SplineFontDB: 3.2
FontName: NewCM08-Regular
FullName: NewComputerModern08-Regular
FamilyName: NewComputerModern08
Weight: Regular
Copyright: Copyright 2021 A. Tsolomitis
Version: 3.93
ItalicAngle: 0
UnderlinePosition: -117
UnderlineWidth: 36
Ascent: 806
Descent: 194
InvalidEm: 0
sfntRevision: 0x00020106
LayerCount: 2
Layer: 0 0 "Back" 1
Layer: 1 0 "Fore" 0
XUID: [1021 970 578947182 3503381]
StyleMap: 0x0040
FSType: 8
OS2Version: 3
OS2_WeightWidthSlopeOnly: 0
OS2_UseTypoMetrics: 0
CreationTime: 1254995847
ModificationTime: 1633795739
PfmFamily: 81
TTFWeight: 400
TTFWidth: 5
LineGap: 0
VLineGap: 0
Panose: 0 0 5 0 0 0 0 0 0 0
OS2TypoAscent: 806
OS2TypoAOffset: 0
OS2TypoDescent: -194
OS2TypoDOffset: 0
OS2TypoLinegap: 200
OS2WinAscent: 1125
OS2WinAOffset: 0
OS2WinDescent: 292
OS2WinDOffset: 0
HheadAscent: 1125
HheadAOffset: 0
HheadDescent: -292
HheadDOffset: 0
OS2SubXSize: 650
OS2SubYSize: 600
OS2SubXOff: 0
OS2SubYOff: 75
OS2SupXSize: 650
OS2SupYSize: 600
OS2SupXOff: 0
OS2SupYOff: 350
OS2StrikeYSize: 36
OS2StrikeYPos: 258
OS2CapHeight: 683
OS2XHeight: 431
OS2Vendor: 'UKWN'
OS2CodePages: 20000193.00000000
OS2UnicodeRanges: 20000007.00000000.00000000.00000000
Lookup: 1 0 0 "'aalt' Access All Alternates lookup 0" { "'aalt' Access All Alternates lookup 0 subtable"  } ['aalt' ('DFLT' <'dflt' > 'cyrl' <'dflt' > 'latn' <'AZE ' 'CRT ' 'MOL ' 'NLD ' 'PLK ' 'ROM ' 'TRK ' 'dflt' > ) ]
Lookup: 3 0 0 "'aalt' Access All Alternates lookup 1" { "'aalt' Access All Alternates lookup 1 subtable"  } ['aalt' ('DFLT' <'dflt' > 'cyrl' <'dflt' > 'latn' <'AZE ' 'CRT ' 'MOL ' 'NLD ' 'PLK ' 'ROM ' 'TRK ' 'dflt' > ) ]
Lookup: 1 0 0 "'locl' Localized Forms in Latin lookup 2" { "'locl' Localized Forms in Latin lookup 2 subtable"  } ['locl' ('latn' <'MOL ' 'ROM ' > ) ]
Lookup: 4 0 0 "'frac' Diagonal Fractions lookup 3" { "'frac' Diagonal Fractions lookup 3 subtable"  } ['frac' ('DFLT' <'dflt' > 'cyrl' <'dflt' > 'latn' <'AZE ' 'CRT ' 'MOL ' 'NLD ' 'PLK ' 'ROM ' 'TRK ' 'dflt' > ) ]

StartChar: acute.dup
Encoding: 1114113 -1 1
Width: 513
Flags: W
HStem: 509 189
VStem: 178 205
LayerCount: 2
Fore
SplineSet
364 629 m 2
 200 509 l 1
 178 530 l 1
 307 680 l 2
 312 686 324 698 341 698 c 0
 362 698 383 679 383 660 c 0
 383 647 373 636 364 629 c 2
EndSplineSet
EndChar

StartChar: AE.dup
Encoding: 1114114 -1 2
Width: 930
Flags: W
HStem: 0 37<4 86.875 175.367 240 329 408.809 505.766 768.414> 310 37<259 411 505 673.711> 646 37<243 332 505.766 759.297>
VStem: 411 94<39.7489 310 347 639.182> 698 33<194 282.507 374.493 463>
LayerCount: 2
Fore
SplineSet
857 0 m 1
 329 0 l 1
 329 37 l 1
 402 37 411 37 411 78 c 2
 411 310 l 1
 245 310 l 1
 167 104 l 2
 163 96 161 92 161 83 c 0
 161 61 185 38 240 37 c 1
 240 0 l 1
 115 3 l 2
 72 4 30 1 4 0 c 1
 4 37 l 1
 80 37 109 64 124 101 c 2
 332 645 l 1
 319 646 306 646 294 646 c 2
 243 646 l 1
 243 683 l 1
 843 683 l 1
 873 454 l 1
 840 454 l 1
 823 591 802 646 654 646 c 2
 554 646 l 2
 505 646 505 640 505 610 c 2
 505 347 l 1
 592 347 l 2
 689 347 698 377 698 463 c 1
 731 463 l 1
 731 194 l 1
 698 194 l 1
 698 280 689 310 592 310 c 2
 505 310 l 1
 505 73 l 2
 505 43 505 37 554 37 c 2
 654 37 l 2
 743 37 790 56 818 93 c 0
 832 111 842 135 849 162 c 0
 857 190 863 223 870 262 c 1
 903 262 l 1
 857 0 l 1
411 602 m 2
 411 616 411 640 373 642 c 1
 259 347 l 1
 411 347 l 1
 411 602 l 2
EndSplineSet
EndChar

StartChar: ae.dup
Encoding: 1114115 -1 3
Width: 743
Flags: W
HStem: -11 31<141.023 269.546 492.593 613.623> 228 27<238.235 320 401 639> 420 28<143.765 261.923 484.073 581.774>
VStem: 22 88<43.7076 154.84> 50 104<292.577 371.878> 320 81<107.758 226 255 339.422> 639 77<255 350.339> 680 36<78.2188 129.81>
LayerCount: 2
Fore
SplineSet
548 -11 m 0xed
 516 -11 435 -3 372 74 c 1
 344 27 278 -11 194 -11 c 0
 123 -11 22 13 22 94 c 0xf5
 22 191 150 252 320 253 c 1
 320 297 l 2
 320 381 263 420 211 420 c 0
 175 420 130 408 103 381 c 1
 148 377 154 344 154 333 c 0
 154 305 133 284 102 284 c 0
 73 284 50 302 50 333 c 0
 50 402 128 448 213 448 c 0
 280 448 344 420 376 374 c 1
 430 432 489 448 535 448 c 0
 653 448 716 362 716 252 c 0
 716 228 710 228 686 228 c 2
 400 228 l 1
 401 20 542 20 552 20 c 0
 616 20 664 65 680 113 c 0
 681 118 683 126 686 130 c 0
 689 134 693 135 699 135 c 0
 704 135 716 133 716 120 c 0
 716 100 670 -11 548 -11 c 0xed
636 294 m 0
 629 347 607 420 534 420 c 0
 498 420 413 394 401 255 c 1
 639 255 l 1xe6
 639 264 638 278 636 294 c 0
333 141 m 0
 332 144 331 149 330 154 c 0
 321 184 320 203 320 226 c 1
 152 219 110 145 110 94 c 0xf4
 110 49 151 17 199 17 c 0
 274 17 333 72 333 133 c 0
 333 135 333 137 333 141 c 0
EndSplineSet
EndChar

StartChar: cedilla.dup
Encoding: 1114116 -1 4
Width: 457
Flags: W
HStem: -200 31<78 251.984>
VStem: 191 62<-64 5> 272 95<-154.348 -104.334>
LayerCount: 2
Fore
SplineSet
109 -200 m 2
 78 -200 l 1
 78 -169 l 1
 95 -169 l 2
 177 -169 272 -168 272 -132 c 0
 272 -104 234 -95 191 -95 c 1
 191 5 l 1
 253 5 l 1
 253 -64 l 1
 309 -65 367 -84 367 -132 c 0
 367 -198 225 -200 109 -200 c 2
EndSplineSet
EndChar

StartChar: circumflex.dup
Encoding: 1114117 -1 5
Width: 515
Flags: W
HStem: 515 178
VStem: 85 330
LayerCount: 2
Fore
SplineSet
398 515 m 1
 250 620 l 1
 102 515 l 1
 85 532 l 1
 250 693 l 1
 415 532 l 1
 398 515 l 1
EndSplineSet
EndChar

StartChar: dieresis.dup
Encoding: 1114118 -1 6
Width: 515
Flags: W
HStem: 557 95<110.912 201.824 299.176 390.088>
VStem: 102 109<566.98 642.087> 290 109<566.98 642.087>
LayerCount: 2
Fore
SplineSet
344 557 m 0
 314 557 290 580 290 605 c 0
 290 627 311 652 345 652 c 0
 376 652 399 629 399 605 c 0
 399 582 379 557 344 557 c 0
156 557 m 0
 125 557 102 580 102 605 c 0
 102 627 122 652 157 652 c 0
 187 652 211 629 211 605 c 0
 211 582 190 557 156 557 c 0
EndSplineSet
EndChar

StartChar: Gcedilla
Encoding: 1114119 -1 7
Width: 808
Flags: W
HStem: -146 85<347.858 415.59> -24 37<331.085 514.668> -1 21G<666.5 678.5> 239 37<452 581.101 686.698 759> 668 37<322.257 500.585>
VStem: 32 116<221.99 460.284> 416 26<-205.06 -138.542> 585 100<66.1562 233.026> 645 40<416.004 510.346>
CounterMasks: 1 c8
LayerCount: 2
Fore
SplineSet
685 198 m 2xdf
 685 25 l 2
 685 8 684 -1 673 -1 c 0xbe80
 660 -1 621 36 605 58 c 1
 567 1 483 -24 407 -24 c 0
 203 -24 32 136 32 341 c 0
 32 547 206 705 405 705 c 0
 508 705 566 654 600 621 c 1
 651 692 l 2
 660 704 665 705 671 705 c 0
 684 705 685 698 685 678 c 2
 685 443 l 2
 685 422 685 416 665 416 c 0
 647 416 647 422 645 435 c 0xde80
 624 580 529 668 417 668 c 0
 355 668 148 636 148 341 c 0
 148 47 356 13 424 13 c 0
 454 13 585 22 585 130 c 2
 585 194 l 2
 585 228 585 239 489 239 c 2
 452 239 l 1
 452 276 l 1
 494 273 584 272 626 273 c 2
 759 276 l 1
 759 239 l 1
 687 239 685 234 685 198 c 2xdf
366 -290 m 0
 361 -290 355 -286 355 -279 c 0
 355 -276 356 -274 358 -272 c 2
 361 -269 l 2
 394 -235 416 -193 416 -137 c 1
 408 -143 398 -146 388 -146 c 0
 357 -146 342 -124 342 -104 c 0
 342 -83 358 -61 388 -61 c 0
 422 -61 442 -95 442 -143 c 0
 442 -229 379 -290 366 -290 c 0
EndSplineSet
EndChar

StartChar: gcedilla
Encoding: 1114120 -1 8
Width: 515
Flags: W
HStem: -206 29<160.058 339.341> 6 64<115.059 385.025> 147 29<170.792 266.802> 415 29<173.71 269.116> 427 28<387.61 444> 509 85<188.967 256.188>
VStem: 11 62<-123.455 -21.9647> 45 86<223.829 365.69> 62 38<87.6913 174.032> 163 25<586.542 650.25> 309 86<224.487 367.102> 426 61<-122.949 -27.5873> 434 68<372.351 426.285>
CounterMasks: 1 f4
LayerCount: 2
Fore
SplineSet
217 509 m 0xe460
 182 509 163 543 163 591 c 0
 163 677 225 738 238 738 c 0
 244 738 250 734 250 727 c 0
 250 724 248 722 246 720 c 2
 243 717 l 2
 210 683 189 641 188 585 c 1
 196 591 207 594 217 594 c 0
 247 594 262 572 262 552 c 0
 262 531 246 509 217 509 c 0xe460
468 370 m 0
 449 370 434 384 434 402 c 0
 434 412 437 421 444 427 c 1
 426 427 389 422 353 391 c 1
 379 368 395 331 395 295 c 0
 395 216 320 147 220 147 c 0
 200 147 157 150 116 177 c 1
 100 158 100 138 100 134 c 0xece8
 100 103 122 74 154 70 c 0
 161 69 206 69 233 69 c 0
 296 69 359 70 416 41 c 0
 472 13 487 -39 487 -75 c 0
 487 -155 373 -206 249 -206 c 0
 119 -206 11 -151 11 -77 c 0xee70
 11 -37 44 5 105 24 c 1
 75 45 62 81 62 111 c 0xece0
 62 145 80 177 94 193 c 1
 67 215 45 252 45 296 c 0
 45 374 120 444 220 444 c 0xf560
 243 444 287 441 332 409 c 1
 377 449 423 455 445 455 c 0
 488 455 502 421 502 403 c 0xed68
 502 378 480 370 468 370 c 0
220 415 m 0xf560
 179 415 155 388 147 377 c 0
 132 353 131 322 131 295 c 0
 131 271 131 176 220 176 c 0
 261 176 285 202 292 214 c 0
 308 238 309 269 309 296 c 0
 309 320 308 415 220 415 c 0xf560
219 6 m 2
 156 6 l 2
 111 6 73 -33 73 -77 c 0
 73 -127 143 -177 250 -177 c 0
 353 -177 426 -128 426 -77 c 0xe670
 426 5 312 6 219 6 c 2
EndSplineSet
EndChar

StartChar: germandbls.dup
Encoding: 1114121 -1 9
Width: 515
Flags: W
HStem: -11 28<249.525 342.106> 0 37<12 91.9349> 397 36<12 94> 677 28<222.66 321.813>
VStem: 94 77<39.7489 397 433 627.574> 195 83<34.0146 102.351> 372 86<494.307 628.876> 402 85<89.563 278.939>
LayerCount: 2
Fore
SplineSet
299 -11 m 0xbd
 236 -11 195 26 195 67 c 0
 195 94 217 107 236 107 c 0
 259 107 278 92 278 68 c 0
 278 46 262 35 249 31 c 1
 267 18 287 17 296 17 c 0
 334 17 402 48 402 174 c 0xbd
 402 277 359 396 236 406 c 0
 224 407 224 419 224 419 c 1
 224 432 234 432 243 433 c 0
 336 441 372 500 372 562 c 0
 372 648 315 677 273 677 c 0
 253 677 171 667 171 556 c 2
 171 -1 l 1
 148 3 130 3 119 3 c 2
 12 0 l 1
 12 37 l 1
 86 37 94 37 94 78 c 2
 94 397 l 1
 12 397 l 1
 12 433 l 1
 94 433 l 1
 94 554 l 2
 94 656 191 705 273 705 c 0
 380 705 458 638 458 561 c 0x7e
 458 504 413 444 323 418 c 1
 455 363 487 246 487 175 c 0
 487 63 392 -11 299 -11 c 0xbd
EndSplineSet
EndChar

StartChar: hyphen.dup
Encoding: 1114122 -1 10
Width: 344
Flags: W
HStem: 187 58<0 287>
VStem: 0 287<187 245>
LayerCount: 2
Fore
SplineSet
0 187 m 1
 0 245 l 1
 287 245 l 1
 287 187 l 1
 0 187 l 1
EndSplineSet
EndChar

StartChar: Kcedilla
Encoding: 1114123 -1 11
Width: 802
Flags: W
HStem: -146 85<344.858 413.033> -2 37<9 114.487 222.26 328 480 541.277 674.247 760> 646 37<9 114.924 221.844 328 514 559.846 658.742 745>
VStem: 118 101<39.957 251 293 641.307> 414 25<-202.25 -138.542>
LayerCount: 2
Fore
SplineSet
635 1 m 2
 595 2 521 1 480 -2 c 1
 480 35 l 1
 504 35 543 34 543 62 c 0
 543 73 534 85 528 94 c 2
 338 357 l 1
 219 251 l 1
 219 79 l 2
 219 45 221 35 299 35 c 2
 328 35 l 1
 328 -2 l 1
 287 1 208 1 168 1 c 0
 128 1 49 1 9 -2 c 1
 9 35 l 1
 37 35 l 2
 115 35 118 45 118 79 c 2
 118 602 l 2
 118 637 115 646 37 646 c 2
 9 646 l 1
 9 683 l 1
 49 680 129 680 169 680 c 0
 209 680 287 680 328 683 c 1
 328 646 l 1
 299 646 l 2
 221 646 219 637 219 602 c 2
 219 293 l 1
 545 586 l 2
 555 594 563 603 563 616 c 0
 563 624 558 645 514 646 c 1
 514 683 l 1
 554 680 614 680 652 680 c 0
 681 680 714 680 745 683 c 1
 745 646 l 1
 688 646 635 624 594 587 c 2
 405 417 l 1
 648 81 l 2
 679 39 700 35 760 35 c 1
 760 -2 l 1
 635 1 l 2
364 -290 m 0
 358 -290 352 -286 352 -279 c 0
 352 -276 354 -274 356 -272 c 2
 358 -269 l 1
 392 -235 413 -193 414 -137 c 1
 405 -143 395 -146 385 -146 c 0
 354 -146 339 -124 339 -104 c 0
 339 -83 355 -61 385 -61 c 0
 420 -61 439 -95 439 -143 c 0
 439 -229 376 -290 364 -290 c 0
EndSplineSet
EndChar

StartChar: kcedilla
Encoding: 1114124 -1 12
Width: 544
Flags: W
HStem: -146 85<219.812 287.033> -2 37<10 90.5781 168.422 249 316 353.902 476.752 529> 396 37<305 335.672 427.272 504> 646 37<10 88.7657> 674 20G<10 169>
VStem: 93 76<37.816 178 220 641.227> 288 25<-202.25 -138.542>
LayerCount: 2
Fore
SplineSet
433 1 m 2xee
 316 -2 l 1
 316 35 l 1
 339 35 354 39 354 55 c 0
 354 63 343 80 322 110 c 0
 301 139 270 178 230 229 c 1
 166 178 l 1
 166 77 l 2
 166 35 174 35 249 35 c 1
 249 -2 l 1
 129 1 l 1
 10 -2 l 1
 10 35 l 1
 85 35 93 35 93 77 c 2
 93 594 l 2
 93 640 87 646 10 646 c 1
 10 683 l 1xf6
 169 694 l 1
 169 220 l 1
 314 337 l 2
 326 347 336 358 336 374 c 0
 336 385 327 395 305 396 c 1
 305 433 l 1
 323 432 389 430 427 430 c 0
 456 430 470 430 504 433 c 1
 504 396 l 1
 479 395 435 393 370 343 c 0
 359 335 285 277 285 274 c 0
 285 272 286 271 287 269 c 2
 289 266 l 2
 290 266 290 265 291 264 c 2
 425 86 l 2
 445 60 461 48 476 41 c 0
 492 34 511 35 529 35 c 1
 529 -2 l 1
 495 0 464 2 433 1 c 2xee
238 -290 m 0
 232 -290 227 -286 227 -279 c 0
 227 -276 228 -274 230 -272 c 2
 233 -269 l 2
 266 -235 287 -193 288 -137 c 1
 280 -143 270 -146 259 -146 c 0
 229 -146 214 -124 214 -104 c 0
 214 -83 230 -61 259 -61 c 0
 294 -61 313 -95 313 -143 c 0
 313 -229 251 -290 238 -290 c 0
EndSplineSet
EndChar

StartChar: Lcedilla
Encoding: 1114125 -1 13
Width: 644
Flags: W
HStem: -146 85<268.858 337.033> -2 37<13 119.487 223.906 462.111> 646 37<13 119.924 227.213 359>
VStem: 123 100<40.0364 639.408> 338 25<-202.25 -138.542> 569 33<199.633 261>
LayerCount: 2
Fore
SplineSet
572 -2 m 1
 13 -2 l 1
 13 35 l 1
 42 35 l 2
 120 35 123 45 123 79 c 2
 123 602 l 2
 123 637 120 646 42 646 c 2
 13 646 l 1
 13 683 l 1
 54 680 136 680 178 680 c 0
 221 680 317 680 359 683 c 1
 359 646 l 1
 321 646 l 2
 224 646 223 634 223 601 c 2
 223 72 l 2
 223 41 224 35 272 35 c 2
 359 35 l 2
 542 35 557 156 569 261 c 1
 602 261 l 1
 572 -2 l 1
288 -290 m 0
 282 -290 276 -286 276 -279 c 0
 276 -276 278 -274 280 -272 c 2
 282 -269 l 1
 316 -235 337 -193 338 -137 c 1
 329 -143 319 -146 309 -146 c 0
 278 -146 263 -124 263 -104 c 0
 263 -83 279 -61 309 -61 c 0
 344 -61 363 -95 363 -143 c 0
 363 -229 300 -290 288 -290 c 0
EndSplineSet
EndChar

StartChar: lcedilla
Encoding: 1114126 -1 14
Width: 286
Flags: W
HStem: -146 85<94.8118 162.265> -2 37<23 103.578 184.422 265> 646 37<23 101.766> 674 20G<23 182>
VStem: 106 76<37.816 641.227> 163 26<-205.06 -138.542>
CounterMasks: 1 70
LayerCount: 2
Fore
SplineSet
144 1 m 1xd8
 23 -2 l 1
 23 35 l 1
 98 35 106 35 106 77 c 2
 106 594 l 2
 106 640 100 646 23 646 c 1
 23 683 l 1xe8
 182 694 l 1
 182 77 l 2
 182 35 190 35 265 35 c 1
 265 -2 l 1
 144 1 l 1xd8
113 -290 m 0
 108 -290 102 -286 102 -279 c 0
 102 -276 103 -274 105 -272 c 2
 108 -269 l 2
 141 -235 163 -193 163 -137 c 1
 155 -143 145 -146 134 -146 c 0
 104 -146 89 -124 89 -104 c 0
 89 -83 105 -61 134 -61 c 0
 169 -61 189 -95 189 -143 c 0xc4
 189 -229 126 -290 113 -290 c 0
EndSplineSet
EndChar

StartChar: macron.dup
Encoding: 1114127 -1 15
Width: 531
Flags: W
HStem: 584 38<75 457>
LayerCount: 2
Fore
SplineSet
457 584 m 1
 75 584 l 1
 75 622 l 1
 457 622 l 1
 457 584 l 1
EndSplineSet
EndChar

StartChar: Ncedilla
Encoding: 1114128 -1 16
Width: 773
Flags: W
HStem: -146 85<330.858 397.863> -2 37<9 95.5451 177.816 264> 646 37<9 118.955 485 571.184 653.455 740>
VStem: 119 36<58.0713 615> 399 26<-205.06 -138.542> 594 36<161 623.382>
LayerCount: 2
Fore
SplineSet
630 576 m 2
 630 27 l 2
 630 6 629 -2 612 -2 c 0
 603 -2 601 0 592 12 c 2
 159 609 l 2
 157 612 156 613 155 615 c 2
 155 106 l 2
 155 80 155 35 264 35 c 1
 264 -2 l 1
 136 1 l 1
 9 -2 l 1
 9 35 l 1
 118 35 119 80 119 106 c 2
 119 624 l 2
 119 641 117 642 96 644 c 0
 80 646 59 646 43 646 c 2
 9 646 l 1
 9 683 l 1
 193 683 l 2
 214 683 216 682 226 669 c 2
 594 161 l 1
 594 576 l 2
 594 602 594 646 485 646 c 1
 485 683 l 1
 613 680 l 1
 740 683 l 1
 740 646 l 1
 631 646 630 602 630 576 c 2
350 -290 m 0
 344 -290 338 -286 338 -279 c 0
 338 -276 339 -274 342 -272 c 2
 344 -269 l 1
 378 -235 399 -193 399 -137 c 1
 391 -143 381 -146 371 -146 c 0
 340 -146 325 -124 325 -104 c 0
 325 -83 341 -61 371 -61 c 0
 406 -61 425 -95 425 -143 c 0
 425 -229 362 -290 350 -290 c 0
EndSplineSet
EndChar

StartChar: ncedilla
Encoding: 1114129 -1 17
Width: 572
Flags: W
HStem: -146 84<233.55 301.033> -2 36<14 93.5938 178.422 259 308 388.578 489.806 553> 394 37<14 91.801> 414 28<259.129 360.665>
VStem: 96 80<36.816 342.994 348 389.227> 302 25<-202.25 -138.544> 391 80<38.1436 387.202>
LayerCount: 2
Fore
SplineSet
431 1 m 1xde
 308 -2 l 1
 308 34 l 1
 383 34 391 34 391 76 c 2
 391 307 l 2
 391 364 379 414 316 414 c 0xde
 250 414 176 360 176 259 c 2
 176 76 l 2
 176 34 184 34 259 34 c 1
 259 -2 l 1
 137 1 l 1
 14 -2 l 1
 14 34 l 1
 88 34 96 34 96 76 c 2
 96 342 l 2
 96 388 90 394 14 394 c 1
 14 431 l 1xee
 170 442 l 1
 170 348 l 1
 200 404 249 442 323 442 c 0
 385 442 421 422 437 404 c 0
 470 367 471 336 471 251 c 2
 471 61 l 2
 471 48 476 41 489 38 c 0
 506 33 536 34 553 34 c 1
 553 -2 l 1
 431 1 l 1xde
252 -290 m 0
 246 -290 241 -286 241 -279 c 0
 241 -276 242 -274 244 -272 c 2
 247 -269 l 2
 280 -235 301 -193 302 -138 c 1
 294 -143 284 -146 273 -146 c 0
 243 -146 228 -125 228 -105 c 0
 228 -83 244 -62 273 -62 c 0
 308 -62 327 -95 327 -143 c 0
 327 -229 265 -290 252 -290 c 0
EndSplineSet
EndChar

StartChar: OE.dup
Encoding: 1114130 -1 18
Width: 1043
Flags: W
HStem: -22 28<331.378 463.304> 0 37<597.631 878.029> 336 37<597 797.277> 646 37<597.631 870.436> 677 28<329.055 462.418>
VStem: 39 113<218.215 460.566> 510 87<87.8262 336 373 593.936> 826 33<220 305.238 403.762 489>
LayerCount: 2
Fore
SplineSet
971 0 m 1x77
 558 0 l 2x77
 541 0 528 0 477 -11 c 0
 438 -19 419 -22 392 -22 c 0
 208 -22 39 130 39 339 c 0
 39 550 208 705 392 705 c 0xaf
 438 705 482 689 528 684 c 0
 541 683 549 683 558 683 c 2
 956 683 l 1
 986 454 l 1
 953 454 l 1
 936 590 913 646 764 646 c 2
 646 646 l 2
 597 646 597 641 597 610 c 2
 597 373 l 1
 708 373 l 2
 812 373 826 402 826 489 c 1
 859 489 l 1
 859 220 l 1
 826 220 l 1
 826 307 812 336 708 336 c 2
 597 336 l 1
 597 73 l 2
 597 42 597 37 646 37 c 2
 762 37 l 2
 941 37 956 111 983 262 c 1
 1016 262 l 1
 971 0 l 1x77
505 576 m 0
 498 632 487 677 397 677 c 0
 266 677 152 542 152 354 c 0
 152 158 263 6 397 6 c 0xaf
 483 6 499 46 506 111 c 0
 511 157 510 215 510 341 c 0
 510 448 510 532 505 576 c 0
EndSplineSet
EndChar

StartChar: oe.dup
Encoding: 1114131 -1 19
Width: 801
Flags: W
HStem: -11 31<169.691 295.764 550.698 671.976> 228 27<459 697> 420 28<176.506 289.626 541.988 640.66>
VStem: 3 88<123.702 315.794> 378 80<113.349 228 255 333.938> 697 77<255 354.411> 738 36<78.2188 129.81>
LayerCount: 2
Fore
SplineSet
606 -11 m 0xfa
 542 -11 466 19 419 89 c 1
 383 35 316 -11 232 -11 c 0
 108 -11 3 89 3 219 c 0
 3 349 109 448 232 448 c 0
 312 448 379 406 418 351 c 1
 461 415 527 448 594 448 c 0
 712 448 774 362 774 252 c 0
 774 228 768 228 744 228 c 2
 458 228 l 1
 459 20 600 20 611 20 c 0
 675 20 722 65 738 113 c 0
 739 118 742 126 745 130 c 0
 748 134 751 135 757 135 c 0
 763 135 774 133 774 120 c 0
 774 100 728 -11 606 -11 c 0xfa
694 294 m 0
 687 347 666 420 593 420 c 0
 556 420 471 394 459 255 c 1
 697 255 l 1xfc
 697 264 696 278 694 294 c 0
233 420 m 0
 208 420 91 411 91 223 c 0
 91 25 211 17 233 17 c 0
 266 17 378 36 378 223 c 0
 378 413 251 420 233 420 c 0
EndSplineSet
EndChar

StartChar: Oslash.dup
Encoding: 1114132 -1 20
Width: 801
Flags: W
HStem: -22 28<309.876 467.91> 677 28<309.015 468.173>
VStem: 33 101<216.115 465.92> 643 101<214.871 465.683>
LayerCount: 2
Fore
SplineSet
388 -22 m 0
 296 -22 233 10 189 38 c 1
 117 -57 l 1
 91 -40 l 1
 101 -27 l 1
 163 60 l 1
 116 98 33 192 33 339 c 0
 33 545 196 705 388 705 c 0
 438 705 480 694 513 682 c 0
 545 669 569 655 582 647 c 0
 584 645 585 644 586 643 c 2
 659 740 l 1
 686 723 l 1
 613 622 l 1
 692 553 744 462 744 339 c 0
 744 137 583 -22 388 -22 c 0
388 677 m 0
 315 677 237 642 188 569 c 0
 137 492 134 395 134 339 c 0
 134 216 160 152 195 104 c 1
 560 605 l 1
 538 626 481 677 388 677 c 0
581 579 m 1
 217 78 l 1
 262 31 325 6 389 6 c 0
 464 6 537 42 583 104 c 0
 642 183 643 288 643 339 c 0
 643 402 638 505 581 579 c 1
EndSplineSet
EndChar

StartChar: oslash.dup
Encoding: 1114133 -1 21
Width: 515
Flags: W
HStem: -12 28<185.24 312.071> 421 28<190.448 310.839>
VStem: 19 79<118.038 311.146> 401 79<119.363 312.035>
LayerCount: 2
Fore
SplineSet
249 -12 m 0
 205 -12 167 1 142 14 c 1
 70 -103 l 1
 44 -88 l 1
 53 -76 l 1
 118 29 l 1
 61 67 19 134 19 213 c 0
 19 342 122 449 250 449 c 0
 295 449 334 435 359 420 c 1
 429 535 l 1
 455 520 l 1
 384 405 l 1
 424 376 480 309 480 213 c 0
 480 89 377 -12 249 -12 c 0
361 367 m 1
 162 44 l 1
 190 22 225 16 250 16 c 0
 290 16 340 33 370 78 c 0
 400 123 401 181 401 214 c 0
 401 254 398 323 361 367 c 1
249 421 m 0
 212 421 160 404 129 354 c 0
 101 310 98 256 98 214 c 0
 98 160 104 106 139 66 c 1
 339 390 l 1
 320 405 289 421 249 421 c 0
EndSplineSet
EndChar

StartChar: quoteleft.dup
Encoding: 1114134 -1 22
Width: 287
Flags: W
HStem: 394 110<96.3801 187.516> 673 20G<161 171.5>
VStem: 65 30<489.087 574.646>
LayerCount: 2
Fore
SplineSet
96 488 m 1
 104 495 119 504 139 504 c 0
 180 504 199 476 199 449 c 0
 199 422 179 394 139 394 c 0
 91 394 65 441 65 500 c 0
 65 616 154 693 168 693 c 0
 175 693 182 688 182 679 c 2
 182 678 l 2
 182 672 172 664 168 661 c 0
 102 600 95 531 95 500 c 0
 95 498 96 493 96 488 c 1
EndSplineSet
EndChar

StartChar: quoteright.dup
Encoding: 1114135 -1 23
Width: 286
Flags: W
HStem: 584 110<90.4844 181.62>
VStem: 183 30<513.354 598.913>
LayerCount: 2
Fore
SplineSet
182 600 m 1
 174 593 159 584 139 584 c 0
 98 584 79 612 79 639 c 0
 79 666 99 694 139 694 c 0
 187 694 213 647 213 588 c 0
 213 472 124 395 110 395 c 0
 103 395 96 400 96 409 c 2
 96 410 l 2
 96 416 106 424 110 427 c 0
 176 488 183 557 183 588 c 0
 183 590 182 595 182 600 c 1
EndSplineSet
EndChar

StartChar: Rcedilla
Encoding: 1114136 -1 24
Width: 757
Flags: W
HStem: -146 85<322.858 389.863> -24 28<621.335 691.758> -2 37<11 116.74 221.26 327> 327 28<218 400.856> 646 37<11 117.156 218.707 437.331>
VStem: 120 98<39.5243 327 355 641.713> 391 26<-205.06 -138.542> 511 116<434.364 568.761> 723 33<34.1324 108.991>
CounterMasks: 1 38
LayerCount: 2
Fore
SplineSet
652 -24 m 0xdf80
 620 -24 560 -18 517 19 c 0
 482 48 475 79 473 119 c 0
 472 132 472 147 472 163 c 0
 472 230 472 259 433 294 c 0
 396 327 353 327 336 327 c 2
 218 327 l 1
 218 79 l 2
 218 45 220 35 298 35 c 2
 327 35 l 1
 327 -2 l 1
 285 1 210 1 169 1 c 0
 128 1 52 1 11 -2 c 1
 11 35 l 1
 40 35 l 2xbf80
 118 35 120 45 120 79 c 2
 120 602 l 2
 120 637 118 646 40 646 c 2
 11 646 l 1
 11 683 l 1
 347 683 l 2
 503 683 627 599 627 501 c 0
 627 424 547 364 449 339 c 1
 504 319 552 286 571 224 c 1
 584 145 l 2
 588 122 592 101 596 84 c 0
 599 66 603 51 608 39 c 0
 618 16 632 4 656 4 c 0
 681 4 717 21 723 90 c 0
 724 99 726 109 739 109 c 0
 756 109 756 96 756 89 c 0
 756 61 738 -24 652 -24 c 0xdf80
342 -290 m 0
 336 -290 330 -286 330 -279 c 0
 330 -276 331 -274 334 -272 c 2
 336 -269 l 1
 370 -235 391 -193 391 -137 c 1
 383 -143 373 -146 363 -146 c 0
 332 -146 317 -124 317 -104 c 0
 317 -83 333 -61 363 -61 c 0
 398 -61 417 -95 417 -143 c 0
 417 -229 354 -290 342 -290 c 0
300 646 m 0
 279 646 249 646 238 644 c 0
 218 641 218 633 218 609 c 2
 218 355 l 1
 332 355 l 2
 487 355 511 434 511 501 c 0
 511 642 396 646 300 646 c 0
EndSplineSet
EndChar

StartChar: rcedilla
Encoding: 1114137 -1 25
Width: 404
Flags: W
HStem: -146 84<91.55 159.033> -3 37<15 94.5938 177.154 277> 394 37<15 92.801> 414 28<246.888 298>
VStem: 97 77<38.5243 339.174 347 389.227> 160 25<-202.25 -138.544> 280 97<339.542 413.436>
LayerCount: 2
Fore
SplineSet
328 332 m 0xda
 304 332 280 348 280 378 c 0
 280 396 290 408 298 414 c 1
 296 414 l 2xda
 218 414 174 329 174 231 c 2
 174 78 l 2
 174 44 176 34 251 34 c 2
 277 34 l 1
 277 -3 l 1
 188 4 104 0 15 -2 c 1
 15 34 l 1
 89 34 97 34 97 76 c 2
 97 342 l 2
 97 388 91 394 15 394 c 1
 15 431 l 1xea
 168 442 l 1
 168 347 l 1
 187 389 225 442 296 442 c 0
 342 442 377 412 377 379 c 0
 377 345 349 332 328 332 c 0xda
110 -290 m 0
 104 -290 98 -286 98 -279 c 0
 98 -276 100 -274 102 -272 c 2
 105 -269 l 2
 138 -235 159 -193 160 -138 c 1
 152 -143 141 -146 131 -146 c 0
 101 -146 86 -125 86 -105 c 0
 86 -83 102 -62 131 -62 c 0
 166 -62 185 -95 185 -143 c 0xc6
 185 -229 123 -290 110 -290 c 0
EndSplineSet
EndChar

StartChar: tilde.dup
Encoding: 1114138 -1 26
Width: 515
Flags: W
HStem: 558 48<258.739 372.567> 603 48<128.433 242.261>
LayerCount: 2
Fore
SplineSet
394 598 m 0x80
 371 577 349 558 313 558 c 0x80
 264 558 224 603 178 603 c 0
 133 603 94 559 91 557 c 2
 70 575 l 1
 85 590 97 601 107 611 c 0
 130 632 152 651 188 651 c 0x40
 237 651 277 606 323 606 c 0
 368 606 407 650 410 652 c 2
 431 634 l 1
 416 619 404 608 394 598 c 0x80
EndSplineSet
EndChar

StartChar: A
Encoding: 65 65 27
Width: 796
Flags: W
HStem: 0 37<31 113.503 202.367 267 465 551.063 664.089 763> 226 37<251 481>
AnchorPoint: "overlap" 387 323 basechar 0
AnchorPoint: "below" 378 -20 basechar 0
AnchorPoint: "bottom" 628 7 basechar 0
AnchorPoint: "top" 397 749 basechar 0
LayerCount: 2
Fore
SplineSet
621 3 m 2
 581 4 507 3 465 0 c 1
 465 37 l 1
 496 37 553 35 553 63 c 0
 553 68 551 72 550 77 c 2
 495 226 l 1
 238 226 l 1
 189 98 l 2
 189 97 188 87 188 84 c 0
 188 61 212 37 267 37 c 1
 267 0 l 1
 142 3 l 1
 31 0 l 1
 31 37 l 1
 91 38 132 52 150 101 c 2
 369 694 l 2
 374 709 379 716 397 716 c 0
 417 716 420 707 425 694 c 2
 654 74 l 2
 665 44 678 37 741 37 c 2
 763 37 l 1
 763 0 l 1
 621 3 l 2
366 573 m 1
 251 263 l 1
 481 263 l 1
 366 573 l 1
EndSplineSet
Position2: "'cpsp' Capital Spacing lookup 0 subtable" dx=7 dy=0 dh=14 dv=0
EndChar

StartChar: a
Encoding: 97 97 28
Width: 531
Flags: W
HStem: -11 28<159.519 266.2> -6 36<419.813 473.302> 237 26<243.035 332> 420 28<154.03 275.317>
VStem: 31 88<45.115 160.898> 61 104<292.121 371.62> 332 79<68.8282 237 263 371.291> 482 33<38.4338 149>
AnchorPoint: "hook" 425 1 basechar 0
AnchorPoint: "overlap" 236 213 basechar 0
AnchorPoint: "below" 244 -20 basechar 0
AnchorPoint: "top" 226 505 basechar 0
AnchorPoint: "bottom" 412 1 basechar 0
LayerCount: 2
Fore
SplineSet
425 -6 m 0x77
 377 -6 349 30 341 67 c 1
 318 24 270 -11 204 -11 c 0
 137 -11 31 14 31 97 c 0xbb
 31 141 58 193 139 228 c 0
 200 254 265 260 332 263 c 1
 332 297 l 2
 332 383 273 420 223 420 c 0
 191 420 143 411 115 381 c 1
 160 377 165 344 165 333 c 0
 165 305 145 284 113 284 c 0
 84 284 61 302 61 333 c 0
 61 401 137 448 225 448 c 0
 276 448 330 432 372 393 c 0
 410 357 411 320 411 274 c 2
 411 77 l 2
 411 72 415 30 447 30 c 0
 457 30 482 35 482 91 c 2
 482 149 l 1
 515 149 l 1
 515 91 l 2
 515 8 448 -6 425 -6 c 0x77
332 237 m 1
 161 230 119 150 119 98 c 0
 119 50 160 17 211 17 c 0
 257 17 332 49 332 141 c 2
 332 237 l 1
EndSplineSet
Substitution2: "'cv02' Character Variants 02 lookup 0 subtable" a.end
Substitution2: "'smcp' Lowercase to Small Capitals lookup 14 subtable" A.sc
EndChar

StartChar: ampersand
Encoding: 38 38 29
Width: 826
Flags: W
HStem: -22 37<188.658 333.483 557.355 680.947> 397 37<535 600.664 687.403 774> 688 28<280.496 350.834>
VStem: 41 95<71.6323 198.028> 170 73<439.579 638.487> 379 33<530.052 659.028> 735 33<71.8034 126>
LayerCount: 2
Fore
SplineSet
615 297 m 0
 591 258 568 221 545 188 c 0
 523 155 501 126 477 100 c 1
 511 62 564 15 619 15 c 0
 666 15 731 47 735 126 c 1
 768 126 l 1
 765 36 697 -22 615 -22 c 0
 564 -22 501 -6 428 52 c 1
 389 20 326 -22 236 -22 c 0
 130 -22 41 41 41 130 c 0
 41 171 58 197 86 226 c 0
 95 236 106 246 117 258 c 2
 213 353 l 1
 176 441 170 512 170 553 c 0
 170 660 249 716 317 716 c 0
 396 716 412 630 412 585 c 0
 412 519 340 443 284 384 c 1
 328 276 434 149 456 125 c 1
 500 176 547 243 604 337 c 0
 607 344 611 348 611 356 c 0
 611 378 587 397 535 397 c 1
 535 434 l 1
 567 431 656 430 668 430 c 2
 774 433 l 1
 774 397 l 1
 678 396 656 362 615 297 c 0
319 688 m 0
 284 688 243 659 243 576 c 0
 243 546 246 491 273 414 c 1
 314 456 379 529 379 586 c 0
 379 588 379 688 319 688 c 0
350 135 m 0
 333 156 318 176 308 190 c 0
 264 250 247 279 225 324 c 1
 170 274 136 239 136 162 c 0
 136 108 160 15 245 15 c 0
 274 15 337 21 403 75 c 1
 385 93 366 115 350 135 c 0
EndSplineSet
Substitution2: "'lnum' Lining Figures lookup 5 subtable" ampersand
Substitution2: "'onum' Oldstyle Figures lookup 4 subtable" ampersand
Substitution2: "'aalt' Access All Alternates lookup 0 subtable" ampersand
EndChar

StartChar: asciicircum
Encoding: 94 94 30
Width: 556
Flags: W
HStem: 561 183
LayerCount: 2
Fore
SplineSet
583 561 m 1
 294 681 l 1
 5 561 l 1
 -9 587 l 1
 295 744 l 1
 599 587 l 1
 583 561 l 1
EndSplineSet
EndChar

StartChar: asciitilde
Encoding: 126 126 31
Width: 556
Flags: W
HStem: 193 47<328.606 482.049> 260 47<106.31 260.859>
LayerCount: 2
Fore
SplineSet
533 244 m 2
 515 231 494 220 472 210 c 0
 449 200 420 193 393 193 c 0
 350 193 316 210 286 226 c 0
 250 244 219 260 177 260 c 0
 124 260 69 233 14 192 c 1
 -4 212 l 1
 55 256 l 2
 74 269 95 280 116 290 c 0
 140 300 168 307 195 307 c 0
 282 307 328 240 411 240 c 0
 464 240 520 267 574 308 c 1
 593 288 l 1
 533 244 l 2
EndSplineSet
EndChar

StartChar: asterisk
Encoding: 42 42 32
Width: 531
Flags: W
HStem: 412 60<439 461.45> 597 60<67.4518 90 437 461.45>
VStem: 233 63<320.32 417.438 651.562 748.68>
LayerCount: 2
Fore
SplineSet
431 412 m 0
 423 412 419 414 413 418 c 2
 280 508 l 1
 296 347 l 2
 296 332 283 319 264 319 c 0
 249 319 233 330 233 347 c 2
 249 508 l 1
 105 412 l 1
 65 412 66 442 66 442 c 1
 66 456 71 463 92 473 c 2
 233 535 l 1
 90 597 l 2
 71 606 66 614 66 627 c 0
 66 641 78 657 98 657 c 0
 105 657 108 656 123 646 c 2
 248 561 l 1
 233 722 l 2
 233 737 246 750 265 750 c 0
 280 750 296 739 296 722 c 2
 280 561 l 1
 392 638 l 2
 398 642 417 655 426 657 c 0
 428 657 429 657 431 657 c 0
 450 657 463 641 463 627 c 0
 463 613 458 606 437 596 c 2
 296 534 l 1
 439 472 l 2
 458 463 463 455 463 442 c 0
 463 428 450 412 431 412 c 0
EndSplineSet
EndChar

StartChar: at
Encoding: 64 64 33
Width: 826
Flags: W
HStem: -11 28<323.278 551.113> 127 28<363.983 469.837 635.997 696.642> 539 28<363.777 469.376> 677 28<324.073 501.213>
VStem: 56 33<243.865 446.363> 197 80<254.128 439.872> 547 79<213.652 478.85> 735 32<203.625 441.523>
LayerCount: 2
Fore
SplineSet
656 127 m 0
 617 127 563 144 549 193 c 1
 516 154 466 127 410 127 c 0
 299 127 197 221 197 347 c 0
 197 473 299 567 410 567 c 0
 452 567 508 552 558 490 c 0
 563 483 565 483 580 483 c 2
 598 483 l 2
 624 483 626 481 626 456 c 2
 626 217 l 2
 626 203 625 155 660 155 c 0
 726 155 735 239 735 332 c 0
 735 569 555 677 411 677 c 0
 239 677 89 535 89 347 c 0
 89 171 226 17 417 17 c 0
 516 17 614 40 704 80 c 0
 709 83 711 83 729 83 c 2
 739 83 l 2
 758 83 766 82 766 70 c 0
 766 54 637 17 609 11 c 0
 541 -4 473 -11 418 -11 c 0
 204 -11 56 159 56 347 c 0
 56 546 216 705 412 705 c 0
 585 705 767 572 767 338 c 0
 767 233 753 127 656 127 c 0
547 431 m 2
 547 449 547 451 534 469 c 0
 496 524 446 539 413 539 c 0
 339 539 277 457 277 347 c 0
 277 237 340 155 413 155 c 0
 434 155 487 160 533 222 c 0
 546 240 547 243 547 263 c 2
 547 431 l 2
EndSplineSet
EndChar

StartChar: B
Encoding: 66 66 34
Width: 752
Flags: W
HStem: 0 37<35 141.156 238.906 497.682> 341 28<238 462.17> 646 37<35 141.156 238.906 488.067>
VStem: 144 94<41.5551 341 369 641.445> 555 110<445.876 581.377> 581 112<110.994 257.446>
AnchorPoint: "overlap" 367 323 basechar 0
AnchorPoint: "below" 354 -19 basechar 0
AnchorPoint: "top" 349 749 basechar 0
LayerCount: 2
Fore
SplineSet
454 0 m 2xf4
 35 0 l 1
 35 37 l 1
 64 37 l 2
 142 37 144 46 144 80 c 2
 144 603 l 2
 144 637 142 646 64 646 c 2
 35 646 l 1
 35 683 l 1
 426 683 l 2
 565 683 665 601 665 512 c 0xf8
 665 441 598 380 503 358 c 1
 613 340 693 268 693 184 c 0
 693 89 596 0 454 0 c 2xf4
419 646 m 2
 287 646 l 2
 239 646 238 640 238 610 c 2
 238 369 l 1
 389 369 l 2
 505 369 555 450 555 512 c 0
 555 564 519 646 419 646 c 2
435 341 m 2
 238 341 l 1
 238 73 l 2
 238 43 239 37 287 37 c 2
 420 37 l 2
 527 37 581 116 581 185 c 0xf4
 581 251 537 341 435 341 c 2
EndSplineSet
Position2: "'cpsp' Capital Spacing lookup 0 subtable" dx=7 dy=0 dh=14 dv=0
EndChar

StartChar: b
Encoding: 98 98 35
Width: 590
Flags: W
HStem: -11 28<254.083 370.067> 0 21G<109 153.203> 416 28<258.885 377.997> 646 37<26 104.766> 674 20G<26 185>
VStem: 109 76<71.0242 361.422 384 641.227> 461 94<122.128 312.055>
AnchorPoint: "hook" 412 13 basechar 0
AnchorPoint: "overlap" 324 238 basechar 0
AnchorPoint: "below" 317 -41 basechar 0
AnchorPoint: "top" 148 745 basechar 0
LayerCount: 2
Fore
SplineSet
316 -11 m 0xae
 240 -11 195 34 177 59 c 1
 141 0 l 1
 109 0 l 1
 109 594 l 2
 109 640 103 646 26 646 c 1
 26 683 l 1x76
 185 694 l 1
 185 384 l 1
 206 405 251 444 328 444 c 0
 450 444 555 344 555 217 c 0
 555 87 444 -11 316 -11 c 0xae
431 354 m 0
 406 391 369 416 322 416 c 0
 297 416 240 409 200 354 c 0
 188 339 189 338 189 320 c 2
 189 116 l 2
 189 99 189 96 203 76 c 0
 228 40 265 17 312 17 c 0xa6
 367 17 407 48 429 79 c 0
 459 122 461 181 461 218 c 0
 461 259 458 314 431 354 c 0
EndSplineSet
Substitution2: "'smcp' Lowercase to Small Capitals lookup 14 subtable" B.sc
EndChar

StartChar: backslash
Encoding: 92 92 36
Width: 531
Flags: W
LayerCount: 2
Fore
SplineSet
448 -250 m 0
 432 -250 427 -238 422 -226 c 2
 62 708 l 2
 56 722 56 727 56 727 c 2
 56 740 67 750 81 750 c 0
 97 750 102 738 107 726 c 2
 467 -208 l 2
 473 -222 473 -227 473 -227 c 2
 473 -240 462 -250 448 -250 c 0
EndSplineSet
EndChar

StartChar: bar
Encoding: 124 124 37
Width: 295
Flags: W
VStem: 123 49<-249.871 749.871>
LayerCount: 2
Fore
SplineSet
147 -250 m 0
 124 -250 123 -230 123 -214 c 2
 123 714 l 2
 123 730 124 750 147 750 c 0
 171 750 172 730 172 714 c 2
 172 -214 l 2
 172 -230 171 -250 147 -250 c 0
EndSplineSet
EndChar

StartChar: braceleft
Encoding: 123 123 38
Width: 531
Flags: W
HStem: -250 28<374.609 455.993> 236 28<73.0073 154.232> 722 28<373.308 455.993>
VStem: 226 77<-172.309 186.21 313.906 672.88>
CounterMasks: 1 e0
LayerCount: 2
Fore
SplineSet
431 -250 m 0
 363 -250 256 -224 233 -154 c 0
 225 -131 226 -105 226 -81 c 2
 226 116 l 2
 226 213 138 233 93 236 c 0
 83 237 73 237 73 250 c 0
 73 262 82 263 91 264 c 0
 157 267 185 294 199 308 c 0
 213 321 219 332 223 350 c 0
 224 359 225 371 225 386 c 0
 226 401 226 420 226 443 c 2
 226 625 l 2
 226 699 325 750 431 750 c 0
 446 750 456 749 456 736 c 0
 456 729 450 723 443 722 c 0
 407 720 372 714 343 691 c 0
 337 687 332 682 328 677 c 0
 315 665 309 654 306 637 c 0
 305 629 304 619 304 606 c 0
 303 594 303 579 303 561 c 2
 303 382 l 2
 303 354 303 285 186 250 c 1
 228 238 288 210 301 148 c 0
 303 138 303 87 303 57 c 2
 303 -92 l 2
 303 -127 303 -128 306 -139 c 0
 316 -173 353 -217 436 -222 c 0
 446 -223 456 -223 456 -236 c 0
 456 -249 446 -250 431 -250 c 0
EndSplineSet
EndChar

StartChar: braceright
Encoding: 125 125 39
Width: 531
Flags: W
HStem: -250 28<73.0087 155.656> 236 28<374.768 455.993> 722 28<73.0087 154.391>
VStem: 226 77<-172.88 186.094 313.79 672.309>
CounterMasks: 1 e0
LayerCount: 2
Fore
SplineSet
438 236 m 0
 372 233 344 206 330 192 c 0
 316 179 310 168 306 150 c 0
 305 141 304 129 304 114 c 0
 303 99 303 80 303 57 c 2
 303 -125 l 2
 303 -199 204 -250 98 -250 c 0
 85 -250 73 -249 73 -236 c 0
 73 -229 79 -223 85 -222 c 0
 122 -220 157 -214 186 -191 c 0
 192 -187 197 -182 201 -177 c 0
 214 -165 220 -154 223 -137 c 0
 224 -129 225 -119 225 -106 c 0
 226 -94 226 -79 226 -61 c 2
 226 118 l 2
 226 146 226 215 343 250 c 1
 301 262 241 290 228 352 c 0
 226 362 226 413 226 443 c 2
 226 592 l 2
 226 627 226 628 223 639 c 0
 213 673 175 717 93 722 c 0
 83 723 73 723 73 736 c 0
 73 749 85 750 98 750 c 0
 166 750 273 724 296 654 c 0
 304 631 303 605 303 581 c 2
 303 384 l 2
 303 287 391 267 436 264 c 0
 446 263 456 263 456 250 c 0
 456 238 447 237 438 236 c 0
EndSplineSet
EndChar

StartChar: bracketleft
Encoding: 91 91 40
Width: 295
Flags: W
HStem: -250 46<171 273> 704 46<171 273>
VStem: 122 151<-250 -204 704 750> 122 49<-204 704>
LayerCount: 2
Fore
SplineSet
122 -250 m 1xe0
 122 750 l 1
 273 750 l 1
 273 704 l 1xe0
 171 704 l 1
 171 -204 l 1xd0
 273 -204 l 1
 273 -250 l 1
 122 -250 l 1xe0
EndSplineSet
EndChar

StartChar: bracketright
Encoding: 93 93 41
Width: 295
Flags: W
HStem: -250 46<20 123> 704 46<20 123>
VStem: 20 152<-250 -204 704 750> 123 49<-204 704>
LayerCount: 2
Fore
SplineSet
20 -250 m 1xe0
 20 -204 l 1xe0
 123 -204 l 1
 123 704 l 1xd0
 20 704 l 1
 20 750 l 1
 172 750 l 1
 172 -250 l 1
 20 -250 l 1xe0
EndSplineSet
EndChar

StartChar: C
Encoding: 67 67 42
Width: 767
Flags: W
HStem: -22 37<348.124 530.891> 668 37<347.585 524.528>
VStem: 56 116<222.389 460.177> 668 40<416.004 510.883> 675 33<162.71 253.994>
AnchorPoint: "overlap" 427 323 basechar 0
AnchorPoint: "below" 428 -39 basechar 0
AnchorPoint: "top" 429 749 basechar 0
AnchorPoint: "bottom" 428 -9 basechar 0
LayerCount: 2
Fore
SplineSet
428 -22 m 0xe8
 229 -22 56 135 56 342 c 0
 56 546 228 705 428 705 c 0
 493 705 544 686 593 647 c 0
 604 639 614 630 623 621 c 1
 674 692 l 2
 683 704 688 705 693 705 c 0
 707 705 708 698 708 678 c 2xe8
 708 443 l 2
 708 422 708 416 688 416 c 0
 670 416 670 422 668 436 c 0xf0
 647 580 553 668 440 668 c 0
 376 668 172 635 172 341 c 0
 172 48 377 15 441 15 c 0
 555 15 666 95 675 235 c 0
 676 247 677 254 691 254 c 0
 708 254 708 246 708 234 c 0
 708 117 603 -22 428 -22 c 0xe8
EndSplineSet
Position2: "'cpsp' Capital Spacing lookup 0 subtable" dx=7 dy=0 dh=14 dv=0
EndChar

StartChar: c
Encoding: 99 99 43
Width: 472
Flags: W
HStem: -11 31<216.698 340.436> 417 31<209.7 345.333>
VStem: 33 94<121.139 310.659> 328 103<298.068 377.752> 409 34<84.7424 132.996>
AnchorPoint: "hook" 385 42 basechar 0
AnchorPoint: "overlap" 264 224 basechar 0
AnchorPoint: "below" 262 -32 basechar 0
AnchorPoint: "bottom" 240 -2 basechar 0
AnchorPoint: "top" 266 505 basechar 0
LayerCount: 2
Fore
SplineSet
264 -11 m 0xe8
 139 -11 33 88 33 216 c 0
 33 340 132 448 266 448 c 0
 348 448 431 409 431 339 c 0
 431 308 409 290 379 290 c 0
 348 290 328 311 328 338 c 0xf0
 328 351 334 380 373 386 c 1
 337 416 276 417 267 417 c 0
 213 417 127 378 127 218 c 0
 127 61 219 20 273 20 c 0
 312 20 379 31 409 121 c 0
 412 128 415 133 426 133 c 0
 430 133 443 133 443 120 c 0
 443 109 408 -11 264 -11 c 0xe8
EndSplineSet
Substitution2: "'smcp' Lowercase to Small Capitals lookup 14 subtable" C.sc
EndChar

StartChar: colon
Encoding: 58 58 44
Width: 295
Flags: W
HStem: 0 110<100.764 194.161> 321 110<100.764 194.161>
VStem: 88 119<12.6807 97.3193 333.681 418.319>
LayerCount: 2
Fore
SplineSet
147 321 m 0
 115 321 88 346 88 376 c 0
 88 406 115 431 147 431 c 0
 180 431 207 406 207 376 c 0
 207 346 180 321 147 321 c 0
147 0 m 0
 115 0 88 25 88 55 c 0
 88 85 115 110 147 110 c 0
 180 110 207 85 207 55 c 0
 207 25 180 0 147 0 c 0
EndSplineSet
EndChar

StartChar: comma
Encoding: 44 44 45
Width: 295
Flags: W
HStem: -4 110<99.4006 186.437>
VStem: 187 31<-76.8184 8.72517>
LayerCount: 2
Fore
SplineSet
119 -193 m 0
 112 -193 105 -188 105 -179 c 0
 105 -175 107 -173 109 -170 c 0
 162 -119 187 -62 187 9 c 1
 175 1 162 -4 147 -4 c 0
 107 -4 88 24 88 51 c 0
 88 78 108 106 147 106 c 0
 193 106 218 63 218 0 c 0
 218 -113 134 -193 119 -193 c 0
EndSplineSet
EndChar

StartChar: D
Encoding: 68 68 46
Width: 811
Flags: W
HStem: 0 37<34 140.156 241.75 490.773> 646 37<34 140.156 241.75 491.539>
VStem: 143 98<41.5551 641.445> 640 113<217.045 457.373>
AnchorPoint: "overlap" 377 323 basechar 0
AnchorPoint: "below" 354 -19 basechar 0
AnchorPoint: "top" 379 749 basechar 0
AnchorPoint: "bottom" 357 1 basechar 0
LayerCount: 2
Fore
SplineSet
425 0 m 2
 34 0 l 1
 34 37 l 1
 63 37 l 2
 141 37 143 46 143 80 c 2
 143 603 l 2
 143 637 141 646 63 646 c 2
 34 646 l 1
 34 683 l 1
 425 683 l 2
 608 683 753 526 753 336 c 0
 753 148 605 0 425 0 c 2
586 555 m 0
 532 625 460 646 395 646 c 2
 289 646 l 2
 241 646 241 640 241 610 c 2
 241 73 l 2
 241 43 241 37 289 37 c 2
 396 37 l 2
 502 37 562 93 583 120 c 0
 620 168 640 226 640 336 c 0
 640 413 630 498 586 555 c 0
EndSplineSet
Position2: "'cpsp' Capital Spacing lookup 0 subtable" dx=7 dy=0 dh=14 dv=0
EndChar

StartChar: d
Encoding: 100 100 47
Width: 590
Flags: W
HStem: -11 28<210.69 325.808> 0 37<483.234 562> 416 28<218.383 336.148> 646 37<320 398.766> 674 20G<320 479>
VStem: 33 94<120.945 308.314> 400 79<41.7731 49 72.4627 371.382 388 642.097>
AnchorPoint: "hook" 440 -2 basechar 0
AnchorPoint: "overlap" 263 218 basechar 0
AnchorPoint: "below" 261 -20 basechar 0
AnchorPoint: "top" 442 745 basechar 0
AnchorPoint: "bottom" 261 -2 basechar 0
LayerCount: 2
Fore
SplineSet
400 -11 m 1xa6
 400 49 l 1
 372 19 325 -11 261 -11 c 0
 138 -11 33 89 33 216 c 0
 33 346 146 444 272 444 c 0
 327 444 372 421 403 388 c 1
 403 594 l 2
 403 640 397 646 320 646 c 1
 320 683 l 1xb6
 479 694 l 1
 479 89 l 2
 479 43 485 37 562 37 c 1
 562 0 l 1x6e
 400 -11 l 1xa6
400 323 m 2
 400 341 400 342 389 358 c 0
 357 402 313 416 277 416 c 0
 221 416 181 385 160 354 c 0
 129 311 127 252 127 215 c 0
 127 174 130 119 157 79 c 0
 183 42 220 17 266 17 c 0
 310 17 357 38 388 85 c 0
 400 101 400 103 400 120 c 2
 400 323 l 2
EndSplineSet
Substitution2: "'smcp' Lowercase to Small Capitals lookup 14 subtable" D.sc
EndChar

StartChar: dollar
Encoding: 36 36 48
Width: 531
Flags: W
HStem: -11 38<168.553 245 284 338.435> 136 97<95.3586 151.457> 475 97<377.122 432.334> 667 37<188.443 245 284 363.576>
VStem: 56 104<145.652 224.11> 56 61<475.339 595.779> 245 39<-56 -9.47074 27 308 414 667 703.585 750> 369 104<484.271 563.168> 412 61<104.734 240.722>
LayerCount: 2
Fore
SplineSet
284 -10 m 1xf280
 284 -56 l 1
 245 -56 l 1
 245 -11 l 1
 112 -2 56 90 56 179 c 0
 56 231 102 233 108 233 c 0
 136 233 160 214 160 184 c 0xfa80
 160 156 138 136 108 136 c 0
 105 136 100 136 95 137 c 1
 110 79 157 32 245 27 c 1
 245 317 l 1
 192 329 156 338 115 377 c 0
 97 394 56 442 56 512 c 0
 56 603 127 693 245 704 c 1
 245 750 l 1
 284 750 l 1
 284 705 l 1
 403 698 473 625 473 528 c 0
 473 476 424 475 421 475 c 0
 397 475 369 491 369 524 c 0xf7
 369 553 392 572 421 572 c 0
 427 572 431 572 433 571 c 1
 416 623 368 663 284 667 c 1
 284 405 l 1
 334 393 372 383 415 340 c 0
 424 331 473 280 473 196 c 0
 473 93 396 0 284 -10 c 1xf280
245 667 m 1
 164 658 117 599 117 542 c 0xf6
 117 523 120 440 245 414 c 1
 245 667 l 1
284 308 m 1
 284 27 l 1
 364 38 412 102 412 166 c 0xf280
 412 190 405 282 284 308 c 1
EndSplineSet
Substitution2: "'onum' Oldstyle Figures lookup 4 subtable" dollar.oldstyle
Substitution2: "'aalt' Access All Alternates lookup 0 subtable" dollar.oldstyle
EndChar

StartChar: E
Encoding: 69 69 49
Width: 723
Flags: W
HStem: 0 37<32 137.924 242.75 549.393> 335 37<242 418.899> 643 37<32 137.924 242.75 546.139>
VStem: 141 101<41.6406 335 372 638.359> 445 33<219 305.701 400.505 488>
AnchorPoint: "overlap" 377 323 basechar 0
AnchorPoint: "below" 382 -22 basechar 0
AnchorPoint: "top" 368 749 basechar 0
AnchorPoint: "bottom" 432 2 basechar 0
LayerCount: 2
Fore
SplineSet
649 0 m 1
 32 0 l 1
 32 37 l 1
 60 37 l 2
 138 37 141 46 141 80 c 2
 141 600 l 2
 141 634 138 643 60 643 c 2
 32 643 l 1
 32 680 l 1
 635 680 l 1
 665 451 l 1
 632 451 l 1
 615 591 587 643 427 643 c 2
 290 643 l 2
 242 643 242 637 242 607 c 2
 242 372 l 1
 334 372 l 2
 434 372 445 400 445 488 c 1
 478 488 l 1
 478 219 l 1
 445 219 l 1
 445 305 434 335 334 335 c 2
 242 335 l 1
 242 73 l 2
 242 43 242 37 290 37 c 2
 431 37 l 2
 611 37 635 107 662 262 c 1
 695 262 l 1
 649 0 l 1
EndSplineSet
Position2: "'cpsp' Capital Spacing lookup 0 subtable" dx=7 dy=0 dh=14 dv=0
EndChar

StartChar: e
Encoding: 101 101 50
Width: 472
Flags: W
HStem: -11 31<206.061 337.193> 228 27<122 367> 420 28<198.996 302.359>
VStem: 26 95<127.375 228 255 318.16> 367 76<255 349.082> 409 34<86.0242 134.994>
AnchorPoint: "hook" 385 42 basechar 0
AnchorPoint: "overlap" 252 239 basechar 0
AnchorPoint: "below" 266 -34 basechar 0
AnchorPoint: "top" 252 505 basechar 0
AnchorPoint: "bottom" 265 -6 basechar 0
LayerCount: 2
Fore
SplineSet
263 -11 m 0xf4
 139 -11 26 86 26 220 c 0
 26 345 125 448 250 448 c 0
 385 448 443 350 443 252 c 0
 443 228 438 228 413 228 c 2
 121 228 l 1
 121 192 122 130 152 84 c 0
 176 48 218 20 269 20 c 0
 290 20 311 24 330 32 c 0
 359 44 391 69 409 119 c 0
 412 127 414 135 426 135 c 0
 432 135 443 133 443 120 c 0
 443 100 394 -11 263 -11 c 0xf4
250 420 m 0
 216 420 129 397 122 255 c 1
 367 255 l 1xf8
 366 297 353 420 250 420 c 0
EndSplineSet
Substitution2: "'cv02' Character Variants 02 lookup 0 subtable" e.end
Substitution2: "'smcp' Lowercase to Small Capitals lookup 14 subtable" E.sc
EndChar

StartChar: eight
Encoding: 56 56 51
Width: 531
Flags: W
HStem: -22 34<186.957 346.376> 635 31<189.121 332.779>
VStem: 41 60<82.4141 229.218> 70 53<482.921 574.17> 406 53<449.349 578.565> 428 60<88.5447 194.851>
LayerCount: 2
Fore
SplineSet
264 -22 m 0xc4
 152 -22 41 45 41 152 c 0xe4
 41 250 130 306 191 335 c 1
 179 343 164 352 151 361 c 0
 136 371 123 380 117 386 c 0
 72 434 70 479 70 497 c 0
 70 592 157 666 265 666 c 0
 362 666 459 609 459 515 c 0xd8
 459 450 408 398 334 361 c 1
 398 324 415 314 435 293 c 0
 476 251 488 206 488 169 c 0
 488 61 385 -22 264 -22 c 0xc4
264 635 m 0
 189 635 123 594 123 536 c 0
 123 520 127 487 175 458 c 2
 304 380 l 1
 366 414 406 461 406 515 c 0xd8
 406 585 340 635 264 635 c 0
350 240 m 2
 221 317 l 1
 133 270 101 208 101 152 c 0
 101 72 175 12 265 12 c 0
 351 12 428 63 428 134 c 0xe4
 428 192 381 222 350 240 c 2
EndSplineSet
Substitution2: "'pnum' Proportional Numbers lookup 6 subtable" eight.prop
Substitution2: "'onum' Oldstyle Figures lookup 4 subtable" eight.oldstyle
AlternateSubs2: "'aalt' Access All Alternates lookup 1 subtable" eight.oldstyle eight.prop
EndChar

StartChar: equal
Encoding: 61 61 52
Width: 826
Flags: W
HStem: 133 45<56.016 766.985> 322 45<56.016 766.985>
LayerCount: 2
Fore
SplineSet
728 322 m 2
 95 322 l 2
 78 322 56 323 56 345 c 0
 56 366 78 367 94 367 c 2
 729 367 l 2
 746 367 767 366 767 345 c 0
 767 323 746 322 728 322 c 2
729 133 m 2
 94 133 l 2
 78 133 56 134 56 155 c 0
 56 177 78 178 95 178 c 2
 728 178 l 2
 746 178 767 177 767 155 c 0
 767 134 746 133 729 133 c 2
EndSplineSet
EndChar

StartChar: exclam
Encoding: 33 33 53
Width: 295
Flags: W
HStem: 0 111<100.764 194.161>
VStem: 88 119<12.7644 98.3193 586.667 704.576>
LayerCount: 2
Fore
SplineSet
165 210 m 2
 164 193 161 185 147 185 c 0
 133 185 131 194 129 211 c 2
 88 662 l 2
 85 697 119 716 147 716 c 0
 176 716 210 697 207 662 c 2
 165 210 l 2
147 0 m 0
 115 0 88 25 88 56 c 0
 88 86 115 111 147 111 c 0
 180 111 207 86 207 56 c 0
 207 25 180 0 147 0 c 0
EndSplineSet
EndChar

StartChar: F
Encoding: 70 70 54
Width: 693
Flags: W
HStem: 0 37<32 137.924 245.427 377> 322 37<242 413.708> 643 37<32 137.924 242.75 533.847>
VStem: 141 101<43.0068 322 359 638.359> 439 33<206 294.894 386.493 475>
AnchorPoint: "overlap" 367 323 basechar 0
AnchorPoint: "top" 359 749 basechar 0
LayerCount: 2
Fore
SplineSet
617 451 m 1
 600 590 574 643 418 643 c 2
 290 643 l 2
 242 643 242 637 242 607 c 2
 242 359 l 1
 330 359 l 2
 429 359 439 389 439 475 c 1
 472 475 l 1
 472 206 l 1
 439 206 l 1
 439 293 429 322 330 322 c 2
 242 322 l 1
 242 81 l 2
 242 48 242 37 339 37 c 2
 377 37 l 1
 377 0 l 1
 336 3 239 3 196 3 c 0
 155 3 72 3 32 0 c 1
 32 37 l 1
 60 37 l 2
 138 37 141 46 141 80 c 2
 141 600 l 2
 141 634 138 643 60 643 c 2
 32 643 l 1
 32 680 l 1
 620 680 l 1
 650 451 l 1
 617 451 l 1
EndSplineSet
Position2: "'cpsp' Capital Spacing lookup 0 subtable" dx=7 dy=0 dh=14 dv=0
EndChar

StartChar: f
Encoding: 102 102 55
Width: 325
Flags: W
HStem: 0 37<33 113.796 194.753 295> 397 36<32 116 192 313> 677 28<242.361 308.955>
VStem: 116 76<41.2297 397 433 624.998> 283 99<592.794 669.551>
AnchorPoint: "hook" 160 10 basechar 0
AnchorPoint: "overlap" 252 404 basechar 0
AnchorPoint: "top" 286 745 basechar 0
LayerCount: 2
Fore
SplineSet
332 586 m 0
 301 586 283 607 283 632 c 0
 283 654 297 667 310 673 c 1
 297 677 286 677 283 677 c 0
 239 677 189 632 189 545 c 2
 189 433 l 1
 313 433 l 1
 313 397 l 1
 192 397 l 1
 192 80 l 2
 192 46 194 37 269 37 c 2
 295 37 l 1
 295 0 l 1
 206 6 122 2 33 0 c 1
 33 37 l 1
 107 37 116 37 116 78 c 2
 116 397 l 1
 32 397 l 1
 32 433 l 1
 116 433 l 1
 116 544 l 2
 116 651 207 705 283 705 c 0
 340 705 382 671 382 633 c 0
 382 607 365 586 332 586 c 0
EndSplineSet
Substitution2: "'smcp' Lowercase to Small Capitals lookup 14 subtable" F.sc
EndChar

StartChar: five
Encoding: 53 53 56
Width: 531
Flags: W
HStem: -22 34<171.554 304.346> 115 103<92.9227 150.93> 394 28<203.982 318.107> 546 88<148.194 336.507> 645 20G<111.5 118.5 424 429>
VStem: 50 111<125.313 207.648> 104 39<375 558> 378 101<107.98 300.6>
LayerCount: 2
Fore
SplineSet
245 -22 m 0xfb
 124 -22 50 76 50 162 c 0
 50 210 89 218 105 218 c 0
 142 218 161 192 161 166 c 0xfd
 161 141 142 115 105 115 c 0
 99 115 95 115 92 116 c 1
 111 60 169 12 243 12 c 0
 290 12 329 36 353 75 c 0
 378 113 378 166 378 209 c 0
 378 259 376 297 360 333 c 0
 351 351 325 394 272 394 c 0
 188 394 150 342 138 326 c 0
 134 320 131 316 122 316 c 0
 105 316 104 324 104 345 c 2
 104 638 l 2
 104 657 105 665 118 665 c 0
 119 665 124 665 132 662 c 0
 181 642 229 634 271 634 c 0
 342 634 393 654 414 663 c 0
 420 666 424 666 424 666 c 2
 434 666 438 659 438 652 c 0
 438 637 361 546 230 546 c 0
 198 546 165 552 143 558 c 1
 143 375 l 1
 181 407 225 422 275 422 c 0
 391 422 479 321 479 202 c 0
 479 74 370 -22 245 -22 c 0xfb
EndSplineSet
Substitution2: "'pnum' Proportional Numbers lookup 6 subtable" five.prop
Substitution2: "'onum' Oldstyle Figures lookup 4 subtable" five.oldstyle
AlternateSubs2: "'aalt' Access All Alternates lookup 1 subtable" five.oldstyle five.prop
EndChar

StartChar: four
Encoding: 52 52 57
Width: 531
Flags: W
HStem: 0 37<206 305.247 398.985 499> 164 36<65 308 396 502>
VStem: 308 88<41.2297 164> 315 81<200 557>
LayerCount: 2
Fore
SplineSet
396 164 m 1xe0
 396 80 l 2
 396 46 399 37 474 37 c 2
 499 37 l 1
 499 0 l 1
 452 3 396 3 352 3 c 0
 307 3 252 3 206 0 c 1
 206 37 l 1
 231 37 l 2
 306 37 308 46 308 80 c 2
 308 164 l 1xe0
 26 164 l 1
 26 198 l 1
 352 664 l 2
 360 675 363 677 376 677 c 0
 396 677 396 671 396 648 c 2
 396 200 l 1xd0
 502 200 l 1
 502 164 l 1
 396 164 l 1xe0
315 557 m 1xd0
 65 200 l 1
 315 200 l 1
 315 557 l 1xd0
EndSplineSet
Substitution2: "'pnum' Proportional Numbers lookup 6 subtable" four.prop
Substitution2: "'onum' Oldstyle Figures lookup 4 subtable" four.oldstyle
AlternateSubs2: "'aalt' Access All Alternates lookup 1 subtable" four.oldstyle four.prop
EndChar

StartChar: G
Encoding: 71 71 58
Width: 834
Flags: W
HStem: -22 37<354.366 539.585> 240 37<476 604.141 710.679 782> 668 37<345.562 525.822>
VStem: 56 116<223.243 460.837> 608 101<68.1562 234.026> 669 40<416.004 511.254>
AnchorPoint: "overlap" 427 323 basechar 0
AnchorPoint: "below" 432 -50 basechar 0
AnchorPoint: "top" 429 749 basechar 0
LayerCount: 2
Fore
SplineSet
709 199 m 2xf8
 709 27 l 2
 709 9 707 1 696 1 c 0
 684 1 645 37 629 60 c 1
 590 3 506 -22 430 -22 c 0
 227 -22 56 137 56 342 c 0
 56 547 229 705 428 705 c 0
 532 705 589 654 624 621 c 1
 675 692 l 2
 684 704 689 705 694 705 c 0
 708 705 709 698 709 678 c 2
 709 443 l 2
 709 422 709 416 689 416 c 0
 671 416 671 422 669 436 c 0xf4
 648 581 552 668 441 668 c 0
 378 668 172 636 172 342 c 0
 172 49 379 15 447 15 c 0
 478 15 608 24 608 132 c 2
 608 195 l 2
 608 229 608 240 513 240 c 2
 476 240 l 1
 476 277 l 1
 517 274 607 273 650 274 c 2
 782 277 l 1
 782 240 l 1
 711 240 709 235 709 199 c 2xf8
EndSplineSet
Position2: "'cpsp' Capital Spacing lookup 0 subtable" dx=7 dy=0 dh=14 dv=0
EndChar

StartChar: g
Encoding: 103 103 59
Width: 531
Flags: W
HStem: -206 29<175.264 354.774> 5 64<130.807 400.025> 146 29<185.998 281.864> 413 29<188.573 284.696> 425 28<400.957 460>
VStem: 26 62<-123.455 -23.8362> 60 86<223.5 364.513> 77 39<86.1935 174.02> 324 86<223.18 365.369> 441 61<-124.002 -28.2762> 449 68<371.139 424.285>
AnchorPoint: "overlap" 236 274 basechar 0
AnchorPoint: "top" 242 505 basechar 0
LayerCount: 2
Fore
SplineSet
483 369 m 0xeaa0
 465 369 449 382 449 400 c 0
 449 410 453 419 460 425 c 1
 459 425 l 2
 441 425 405 421 368 390 c 1
 394 366 410 330 410 293 c 0
 410 215 335 146 235 146 c 0
 215 146 172 149 131 175 c 1
 116 157 116 137 116 133 c 0xe9a0
 116 102 137 73 169 69 c 0
 176 69 222 68 248 68 c 0
 311 68 375 69 432 40 c 0
 488 12 502 -40 502 -75 c 0
 502 -155 389 -206 264 -206 c 0
 135 -206 26 -151 26 -77 c 0xecc0
 26 -37 59 5 120 23 c 1
 90 44 77 80 77 110 c 0xe980
 77 144 95 176 109 192 c 1
 83 214 60 251 60 294 c 0
 60 373 135 442 235 442 c 0xf280
 259 442 303 439 347 407 c 1
 392 447 439 453 460 453 c 0
 504 453 517 419 517 401 c 0
 517 376 495 369 483 369 c 0xeaa0
235 413 m 0xf280
 195 413 171 387 163 375 c 0
 147 351 146 320 146 293 c 0
 146 270 147 175 235 175 c 0
 276 175 300 201 308 213 c 0
 324 236 324 268 324 294 c 0
 324 318 324 413 235 413 c 0xf280
234 5 m 2
 172 5 l 2
 127 5 88 -33 88 -77 c 0
 88 -127 158 -177 265 -177 c 0
 369 -177 441 -128 441 -77 c 0xe4c0
 441 4 327 5 234 5 c 2
EndSplineSet
Substitution2: "'smcp' Lowercase to Small Capitals lookup 14 subtable" G.sc
EndChar

StartChar: grave
Encoding: 96 96 60
Width: 531
Flags: W
HStem: 509 189
VStem: 130 205
LayerCount: 2
Fore
SplineSet
313 509 m 1
 150 629 l 2
 140 636 130 647 130 660 c 0
 130 679 151 698 172 698 c 0
 189 698 201 686 206 680 c 2
 335 530 l 1
 313 509 l 1
EndSplineSet
EndChar

StartChar: greater
Encoding: 62 62 61
Width: 826
Flags: W
HStem: -40 47<85.1267 107> 493 47<85.1267 107>
LayerCount: 2
Fore
SplineSet
717 226 m 2
 130 -33 l 2
 115 -39 113 -40 109 -40 c 0
 96 -40 85 -30 85 -17 c 0
 85 -7 91 0 107 7 c 2
 657 250 l 1
 107 493 l 2
 91 500 85 507 85 517 c 0
 85 530 96 540 109 540 c 0
 113 540 115 539 130 533 c 2
 717 274 l 2
 728 269 739 264 739 250 c 0
 739 236 728 231 717 226 c 2
EndSplineSet
EndChar

StartChar: H
Encoding: 72 72 62
Width: 796
Flags: W
HStem: 0 37<32 137.924 244.844 351 443 549.156 656.076 762> 337 37<242 552> 646 37<32 137.924 244.844 351 443 549.156 656.076 762>
VStem: 141 101<41.6406 337 374 641.359> 552 101<41.6406 337 374 641.359>
AnchorPoint: "overlap" 400 323 basechar 0
AnchorPoint: "below" 395 -21 basechar 0
AnchorPoint: "top" 399 749 basechar 0
AnchorPoint: "bottom" 195 5 basechar 0
LayerCount: 2
Fore
SplineSet
602 3 m 0
 562 3 484 3 443 0 c 1
 443 37 l 1
 472 37 l 2
 550 37 552 46 552 80 c 2
 552 337 l 1
 242 337 l 1
 242 80 l 2
 242 46 244 37 322 37 c 2
 351 37 l 1
 351 0 l 1
 310 3 231 3 191 3 c 0
 151 3 72 3 32 0 c 1
 32 37 l 1
 60 37 l 2
 138 37 141 46 141 80 c 2
 141 603 l 2
 141 637 138 646 60 646 c 2
 32 646 l 1
 32 683 l 1
 72 680 152 680 192 680 c 0
 232 680 310 680 351 683 c 1
 351 646 l 1
 322 646 l 2
 244 646 242 637 242 603 c 2
 242 374 l 1
 552 374 l 1
 552 603 l 2
 552 637 550 646 472 646 c 2
 443 646 l 1
 443 683 l 1
 484 680 563 680 603 680 c 0
 643 680 722 680 762 683 c 1
 762 646 l 1
 734 646 l 2
 656 646 653 637 653 603 c 2
 653 80 l 2
 653 46 656 37 734 37 c 2
 762 37 l 1
 762 0 l 1
 722 3 642 3 602 3 c 0
EndSplineSet
Position2: "'cpsp' Capital Spacing lookup 0 subtable" dx=7 dy=0 dh=14 dv=0
EndChar

StartChar: h
Encoding: 104 104 63
Width: 590
Flags: W
HStem: 0 37<31 110.935 195.078 276 325 405.922 506.806 570> 416 28<276.3 377.665> 646 37<31 108.801> 674 20G<31 190>
VStem: 113 77<40.4333 338.343 357 641.227> 408 80<40.189 390.89>
AnchorPoint: "hook" 450 4 basechar 0
AnchorPoint: "overlap" 304 362 basechar 0
AnchorPoint: "below" 302 -20 basechar 0
AnchorPoint: "top" 153 745 basechar 0
AnchorPoint: "bottom" 448 4 basechar 0
LayerCount: 2
Fore
SplineSet
190 357 m 1xdc
 210 393 257 444 340 444 c 0
 402 444 438 424 454 406 c 0
 487 370 488 338 488 253 c 2
 488 63 l 2
 488 50 493 44 506 40 c 0
 523 36 553 37 570 37 c 1
 570 0 l 1
 448 3 l 1
 325 0 l 1
 325 37 l 1
 400 37 408 37 408 78 c 2
 408 309 l 2
 408 366 396 416 333 416 c 0
 267 416 193 362 193 261 c 2
 193 78 l 2
 193 37 201 37 276 37 c 1
 276 0 l 1
 154 3 l 1
 31 0 l 1
 31 37 l 1
 105 37 113 37 113 78 c 2
 113 594 l 2
 113 640 107 646 31 646 c 1
 31 683 l 1xec
 190 694 l 1
 190 357 l 1xdc
EndSplineSet
Substitution2: "'smcp' Lowercase to Small Capitals lookup 14 subtable" H.sc
EndChar

StartChar: hyphen
Encoding: 45 45 64
Width: 354
Flags: W
HStem: 187 58<8 296>
VStem: 8 288<187 245>
LayerCount: 2
Fore
SplineSet
8 187 m 1
 8 245 l 1
 296 245 l 1
 296 187 l 1
 8 187 l 1
EndSplineSet
EndChar

StartChar: I
Encoding: 73 73 65
Width: 383
Flags: W
HStem: 0 37<26 138.235 244.533 356> 646 37<26 138.235 244.533 356>
VStem: 141 101<41.9043 641.096>
AnchorPoint: "overlap" 191 323 basechar 0
AnchorPoint: "below" 192 -24 basechar 0
AnchorPoint: "top" 192 749 basechar 0
AnchorPoint: "bottom" 237 5 basechar 0
LayerCount: 2
Fore
SplineSet
191 3 m 0
 151 3 67 3 26 0 c 1
 26 37 l 1
 57 37 l 2
 140 37 141 47 141 80 c 2
 141 603 l 2
 141 636 140 646 57 646 c 2
 26 646 l 1
 26 683 l 1
 67 680 151 680 192 680 c 0
 232 680 316 680 356 683 c 1
 356 646 l 1
 325 646 l 2
 242 646 242 636 242 603 c 2
 242 80 l 2
 242 47 242 37 325 37 c 2
 356 37 l 1
 356 0 l 1
 316 3 232 3 191 3 c 0
EndSplineSet
Position2: "'cpsp' Capital Spacing lookup 0 subtable" dx=7 dy=0 dh=14 dv=0
EndChar

StartChar: i
Encoding: 105 105 66
Width: 295
Flags: W
HStem: 0 37<32 111.935 192.542 265> 396 37<36 109.725> 424 20G<36 191> 546 111<100.339 193.577>
VStem: 87 120<559.327 643.59> 114 77<39.7489 391.565>
AnchorPoint: "hook" 156 9 basechar 0
AnchorPoint: "overlap" 154 323 basechar 0
AnchorPoint: "below" 156 -22 basechar 0
AnchorPoint: "top" 148 725 basechar 0
AnchorPoint: "bottom" 156 4 basechar 0
LayerCount: 2
Fore
SplineSet
146 546 m 0x98
 113 546 87 573 87 601 c 0
 87 628 109 657 147 657 c 0
 181 657 207 630 207 601 c 0
 207 575 184 546 146 546 c 0x98
152 3 m 2
 32 0 l 1
 32 37 l 1
 106 37 114 37 114 78 c 2
 114 345 l 2
 114 391 107 396 36 396 c 1
 36 433 l 1xd4
 191 444 l 1
 191 77 l 2xb4
 191 41 192 37 265 37 c 1
 265 0 l 1
 226 1 189 4 152 3 c 2
EndSplineSet
Substitution2: "'smcp' Lowercase to Small Capitals lookup 14 subtable" I.sc
EndChar

StartChar: J
Encoding: 74 74 67
Width: 546
Flags: W
HStem: -22 28<148.909 257.36> 57 117<100 151.73> 646 37<175 313.215 416.092 496>
VStem: 40 125<70.0367 160.366> 317 97<70.2362 639.415>
AnchorPoint: "overlap" 367 323 basechar 0
AnchorPoint: "below" 212 -63 basechar 0
AnchorPoint: "top" 363 749 basechar 0
LayerCount: 2
Fore
SplineSet
414 609 m 2
 414 168 l 2
 414 134 415 132 413 124 c 0
 402 48 323 -22 213 -22 c 0
 118 -22 40 38 40 114 c 0
 40 160 78 174 103 174 c 0
 134 174 165 153 165 116 c 0
 165 90 153 59 100 57 c 1
 138 6 205 6 211 6 c 0
 265 6 317 59 317 150 c 2
 317 602 l 2
 317 635 316 646 216 646 c 2
 175 646 l 1
 175 683 l 1
 219 680 312 679 356 680 c 2
 496 683 l 1
 496 646 l 1
 425 646 414 646 414 609 c 2
EndSplineSet
Position2: "'cpsp' Capital Spacing lookup 0 subtable" dx=7 dy=0 dh=14 dv=0
EndChar

StartChar: j
Encoding: 106 106 68
Width: 325
Flags: W
HStem: -205 28<27.1271 113.852> 396 36<58 143.287> 424 20G<58 226> 546 111<119.339 212.577>
VStem: -46 104<-162.348 -82.1211> 106 120<559.327 643.59> 149 77<-130.75 390.389>
AnchorPoint: "overlap" 191 323 basechar 0
AnchorPoint: "below" 121 -262 basechar 0
AnchorPoint: "top" 168 725 basechar 0
LayerCount: 2
Fore
SplineSet
189 3 m 1030x98
165 546 m 0
 132 546 106 573 106 601 c 0
 106 628 128 657 166 657 c 0
 200 657 226 630 226 601 c 0x9c
 226 575 203 546 165 546 c 0
77 -205 m 0
 17 -205 -46 -177 -46 -123 c 0
 -46 -95 -25 -74 6 -74 c 0
 38 -74 58 -95 58 -123 c 0
 58 -147 42 -161 26 -168 c 1
 50 -177 71 -177 75 -177 c 0
 139 -177 149 -96 149 -50 c 2
 149 343 l 2
 149 389 143 396 58 396 c 1
 58 432 l 1xda
 226 444 l 1
 226 -48 l 2xba
 226 -140 159 -205 77 -205 c 0
EndSplineSet
Substitution2: "'smcp' Lowercase to Small Capitals lookup 14 subtable" J.sc
EndChar

StartChar: K
Encoding: 75 75 69
Width: 825
Flags: W
HStem: 0 37<32 137.924 244.844 351 503 564.671 695.873 783> 646 37<32 137.924 244.844 351 537 582.846 679.382 768>
VStem: 141 101<41.6406 252 294 641.359>
AnchorPoint: "overlap" 407 323 basechar 0
AnchorPoint: "below" 431 -20 basechar 0
AnchorPoint: "top" 449 749 basechar 0
LayerCount: 2
Fore
SplineSet
658 3 m 2
 618 4 544 3 503 0 c 1
 503 37 l 1
 527 37 566 36 566 63 c 0
 566 74 557 87 551 95 c 2
 361 358 l 1
 242 252 l 1
 242 80 l 2
 242 46 244 37 322 37 c 2
 351 37 l 1
 351 0 l 1
 310 3 231 3 191 3 c 0
 151 3 72 3 32 0 c 1
 32 37 l 1
 60 37 l 2
 138 37 141 46 141 80 c 2
 141 603 l 2
 141 637 138 646 60 646 c 2
 32 646 l 1
 32 683 l 1
 72 680 152 680 192 680 c 0
 232 680 310 680 351 683 c 1
 351 646 l 1
 322 646 l 2
 244 646 242 637 242 603 c 2
 242 294 l 1
 568 586 l 2
 578 595 586 603 586 617 c 0
 586 624 581 645 537 646 c 1
 537 683 l 1
 577 680 637 680 675 680 c 0
 704 680 738 680 768 683 c 1
 768 646 l 1
 711 646 658 624 617 588 c 2
 428 418 l 1
 671 83 l 2
 702 40 723 37 783 37 c 1
 783 0 l 1
 658 3 l 2
EndSplineSet
Position2: "'cpsp' Capital Spacing lookup 0 subtable" dx=7 dy=0 dh=14 dv=0
EndChar

StartChar: k
Encoding: 107 107 70
Width: 561
Flags: W
HStem: 0 37<26 106.922 184.078 265 332 369.902 471.487 545> 397 36<321 351.57 443.716 520> 646 37<26 104.766> 674 20G<26 185>
VStem: 109 76<39.7489 179 222 641.227>
AnchorPoint: "hook" 444 12 basechar 0
AnchorPoint: "below" 298 -21 basechar 0
AnchorPoint: "overlap" 264 323 basechar 0
AnchorPoint: "top" 148 745 basechar 0
AnchorPoint: "bottom" 149 4 basechar 0
LayerCount: 2
Fore
SplineSet
262 3 m 1030xc8
450 3 m 2
 332 0 l 1
 332 37 l 1
 355 37 370 41 370 57 c 0
 370 64 360 82 338 111 c 0
 317 140 286 179 246 231 c 1
 182 179 l 1
 182 78 l 2
 182 37 190 37 265 37 c 1
 265 0 l 1
 145 3 l 1
 26 0 l 1
 26 37 l 1
 101 37 109 37 109 78 c 2
 109 594 l 2
 109 640 103 646 26 646 c 1
 26 683 l 1xe8
 185 694 l 1xd8
 185 222 l 1
 330 338 l 2
 342 348 352 358 352 375 c 0
 352 386 343 396 321 397 c 1
 321 433 l 1
 339 432 405 430 443 430 c 0
 473 430 486 430 520 434 c 1
 520 397 l 1
 495 396 452 394 386 344 c 0
 375 336 301 279 301 275 c 0
 301 274 302 272 303 270 c 2
 305 268 l 2
 306 267 307 266 307 265 c 2
 441 88 l 2
 461 62 477 49 492 43 c 0
 508 36 527 37 545 37 c 1
 545 0 l 1
 511 2 480 4 450 3 c 2
EndSplineSet
Substitution2: "'smcp' Lowercase to Small Capitals lookup 14 subtable" K.sc
EndChar

StartChar: L
Encoding: 76 76 71
Width: 664
Flags: W
HStem: 0 37<32 137.924 242.75 480.662> 646 37<32 137.924 245.94 377>
VStem: 141 101<41.6406 639.993> 588 32<200.867 262>
AnchorPoint: "overlap" 194 323 basechar 0
AnchorPoint: "below" 336 -22 basechar 0
AnchorPoint: "top" 195 749 basechar 0
LayerCount: 2
Fore
SplineSet
590 0 m 1
 32 0 l 1
 32 37 l 1
 60 37 l 2
 138 37 141 46 141 80 c 2
 141 603 l 2
 141 637 138 646 60 646 c 2
 32 646 l 1
 32 683 l 1
 72 680 155 680 196 680 c 0
 239 680 336 680 377 683 c 1
 377 646 l 1
 339 646 l 2
 242 646 242 634 242 602 c 2
 242 73 l 2
 242 43 242 37 290 37 c 2
 377 37 l 2
 561 37 576 158 588 262 c 1
 620 262 l 1
 590 0 l 1
EndSplineSet
Position2: "'cpsp' Capital Spacing lookup 0 subtable" dx=7 dy=0 dh=14 dv=0
EndChar

StartChar: l
Encoding: 108 108 72
Width: 295
Flags: W
HStem: 0 37<32 111.935 193.065 273> 646 37<32 109.801> 674 20G<32 191>
VStem: 114 77<39.7489 641.227>
AnchorPoint: "hook" 159 12 basechar 0
AnchorPoint: "below" 153 -20 basechar 0
AnchorPoint: "overlap" 154 323 basechar 0
AnchorPoint: "top" 156 745 basechar 0
LayerCount: 2
Fore
SplineSet
152 3 m 1030x90
153 3 m 1
 32 0 l 1
 32 37 l 1
 106 37 114 37 114 78 c 2
 114 594 l 2
 114 640 108 646 32 646 c 1
 32 683 l 1xd0
 191 694 l 1xb0
 191 78 l 2
 191 37 199 37 273 37 c 1
 273 0 l 1
 153 3 l 1
EndSplineSet
Substitution2: "'smcp' Lowercase to Small Capitals lookup 14 subtable" L.sc
EndChar

StartChar: less
Encoding: 60 60 73
Width: 826
Flags: W
HStem: -40 47<717 738.873> 493 47<717 738.873>
LayerCount: 2
Fore
SplineSet
714 -40 m 0
 711 -40 709 -39 694 -33 c 2
 107 226 l 2
 95 231 85 236 85 250 c 0
 85 264 95 269 107 274 c 2
 694 533 l 2
 709 539 711 540 714 540 c 0
 728 540 739 530 739 517 c 0
 739 504 730 498 717 493 c 2
 166 250 l 1
 717 7 l 2
 730 2 739 -4 739 -17 c 0
 739 -30 728 -40 714 -40 c 0
EndSplineSet
EndChar

StartChar: M
Encoding: 77 77 74
Width: 973
Flags: W
HStem: 0 37<36 122.184 204.246 290 624 730.924 828.844 935> 646 37<36 142.156 828.844 935>
VStem: 145 36<59.6181 627.09> 734 92<41.6406 635.981>
AnchorPoint: "overlap" 477 323 basechar 0
AnchorPoint: "top" 484 749 basechar 0
LayerCount: 2
Fore
SplineSet
181 628 m 1
 181 107 l 2
 181 81 182 37 290 37 c 1
 290 0 l 1
 163 3 l 1
 36 0 l 1
 36 37 l 1
 145 37 145 81 145 107 c 2
 145 603 l 2
 145 637 143 646 65 646 c 2
 36 646 l 1
 36 683 l 1
 218 683 l 2
 242 683 248 683 258 659 c 2
 485 111 l 1
 715 662 l 2
 723 683 726 683 753 683 c 2
 935 683 l 1
 935 646 l 1
 906 646 l 2
 828 646 826 637 826 603 c 2
 826 80 l 2
 826 46 828 37 906 37 c 2
 935 37 l 1
 935 0 l 1
 892 3 821 3 780 3 c 0
 739 3 667 3 624 0 c 1
 624 37 l 1
 653 37 l 2
 731 37 734 46 734 80 c 2
 734 636 l 1
 478 21 l 2
 474 11 470 0 456 0 c 0
 443 0 437 11 432 24 c 2
 181 628 l 1
EndSplineSet
Position2: "'cpsp' Capital Spacing lookup 0 subtable" dx=7 dy=0 dh=14 dv=0
EndChar

StartChar: m
Encoding: 109 109 75
Width: 885
Flags: W
HStem: 0 37<31 110.935 195.078 276 325 405.922 490.065 570 620 700.922 801.806 865> 395 36<31 107.705> 414 28<274.634 378.695 570.652 672.665>
VStem: 113 80<39.7489 343.438 348 389.888> 408 80<39.7489 343.438> 703 79<40.1436 388.894>
AnchorPoint: "hook" 744 14 basechar 0
AnchorPoint: "below" 450 -23 basechar 0
AnchorPoint: "overlap" 456 331 basechar 0
AnchorPoint: "top" 448 505 basechar 0
LayerCount: 2
Fore
SplineSet
743 3 m 1xbc
 620 0 l 1
 620 37 l 1
 695 37 703 37 703 78 c 2
 703 308 l 2
 703 364 691 414 628 414 c 0
 562 414 488 361 488 259 c 2
 488 78 l 2
 488 37 496 37 570 37 c 1
 570 0 l 1
 448 3 l 1
 325 0 l 1
 325 37 l 1
 400 37 408 37 408 78 c 2
 408 308 l 2
 408 364 396 414 333 414 c 0xbc
 267 414 193 361 193 259 c 2
 193 78 l 2
 193 37 201 37 276 37 c 1
 276 0 l 1
 154 3 l 1
 31 0 l 1
 31 37 l 1
 105 37 113 37 113 78 c 2
 113 342 l 2
 113 388 107 395 31 395 c 1
 31 431 l 1xdc
 187 442 l 1
 187 348 l 1
 217 404 266 442 340 442 c 0
 386 442 464 432 483 352 c 1
 503 390 550 442 635 442 c 0
 697 442 733 422 749 404 c 0
 782 368 782 336 782 252 c 2
 782 63 l 2
 782 50 788 43 801 40 c 0
 818 35 847 37 865 37 c 1
 865 0 l 1
 743 3 l 1xbc
EndSplineSet
Substitution2: "'cv02' Character Variants 02 lookup 0 subtable" m.end
Substitution2: "'smcp' Lowercase to Small Capitals lookup 14 subtable" M.sc
EndChar

StartChar: N
Encoding: 78 78 76
Width: 796
Flags: W
HStem: 0 37<32 118.184 199.816 286> 646 37<32 140.983 508 593.754 675.816 762>
VStem: 141 36<58.3343 615> 617 36<162 623.382>
AnchorPoint: "overlap" 407 323 basechar 0
AnchorPoint: "below" 411 -18 basechar 0
AnchorPoint: "top" 389 749 basechar 0
LayerCount: 2
Fore
SplineSet
653 576 m 2
 653 29 l 2
 653 7 652 0 635 0 c 0
 626 0 623 2 614 14 c 2
 182 609 l 2
 180 612 178 614 177 615 c 2
 177 107 l 2
 177 81 177 37 286 37 c 1
 286 0 l 1
 159 3 l 1
 32 0 l 1
 32 37 l 1
 141 37 141 81 141 107 c 2
 141 625 l 2
 141 641 140 642 118 644 c 0
 103 646 82 646 66 646 c 2
 32 646 l 1
 32 683 l 1
 215 683 l 2
 236 683 239 682 249 669 c 2
 617 162 l 1
 617 576 l 2
 617 602 616 646 508 646 c 1
 508 683 l 1
 635 680 l 1
 762 683 l 1
 762 646 l 1
 653 646 653 602 653 576 c 2
EndSplineSet
Position2: "'cpsp' Capital Spacing lookup 0 subtable" dx=7 dy=0 dh=14 dv=0
EndChar

StartChar: n
Encoding: 110 110 77
Width: 590
Flags: W
HStem: 0 37<31 110.935 195.078 276 325 405.922 506.806 570> 395 36<31 107.705> 414 28<274.634 377.665>
VStem: 113 80<39.7489 343.438 348 389.888> 408 80<40.1436 388.894>
AnchorPoint: "hook" 449 13 basechar 0
AnchorPoint: "overlap" 314 323 basechar 0
AnchorPoint: "below" 304 -18 basechar 0
AnchorPoint: "top" 332 505 basechar 0
LayerCount: 2
Fore
SplineSet
448 3 m 1xb8
 325 0 l 1
 325 37 l 1
 400 37 408 37 408 78 c 2
 408 308 l 2
 408 364 396 414 333 414 c 0xb8
 267 414 193 361 193 259 c 2
 193 78 l 2
 193 37 201 37 276 37 c 1
 276 0 l 1
 154 3 l 1
 31 0 l 1
 31 37 l 1
 105 37 113 37 113 78 c 2
 113 342 l 2
 113 388 107 395 31 395 c 1
 31 431 l 1xd8
 187 442 l 1
 187 348 l 1
 217 404 266 442 340 442 c 0
 402 442 438 422 454 404 c 0
 487 368 488 336 488 252 c 2
 488 63 l 2
 488 50 493 43 506 40 c 0
 523 35 553 37 570 37 c 1
 570 0 l 1
 448 3 l 1xb8
EndSplineSet
Substitution2: "'cv02' Character Variants 02 lookup 0 subtable" n.end
Substitution2: "'smcp' Lowercase to Small Capitals lookup 14 subtable" N.sc
EndChar

StartChar: nine
Encoding: 57 57 78
Width: 531
Flags: W
HStem: -22 34<138.988 277.477> 42 97<120 163.492> 216 29<202.202 312.953> 635 31<208.93 319.103>
VStem: 41 102<341.366 539.727> 68 104<52.2263 130.245> 386 102<191.993 496.097>
LayerCount: 2
Fore
SplineSet
218 -22 m 0xfa
 127 -22 68 19 68 88 c 0
 68 129 102 139 120 139 c 0
 144 139 172 123 172 90 c 0xf6
 172 73 163 44 120 42 c 1
 149 14 200 12 217 12 c 0
 276 12 386 55 386 286 c 2
 386 304 l 1
 360 252 318 216 257 216 c 0
 136 216 41 315 41 440 c 0
 41 515 66 558 110 603 c 0
 156 648 209 666 268 666 c 0
 365 666 488 597 488 329 c 0
 488 115 358 -22 218 -22 c 0xfa
367 559 m 0
 349 603 315 635 268 635 c 0
 232 635 193 623 165 574 c 0
 144 538 143 493 143 439 c 0xfa
 143 398 142 343 162 305 c 0
 178 275 203 250 240 246 c 0
 247 245 253 245 258 245 c 0
 348 245 384 338 384 420 c 0
 384 466 379 528 367 559 c 0
EndSplineSet
Substitution2: "'pnum' Proportional Numbers lookup 6 subtable" nine.prop
Substitution2: "'onum' Oldstyle Figures lookup 4 subtable" nine.oldstyle
AlternateSubs2: "'aalt' Access All Alternates lookup 1 subtable" nine.oldstyle nine.prop
EndChar

StartChar: numbersign
Encoding: 35 35 79
Width: 885
Flags: W
HStem: 131 45<56.016 260 324 503 567 825.984> 324 45<56.016 315 379 558 622 825.984> 674 20G<432 447.5 674.5 690.5>
VStem: 417 50<-193.668 -150.616 644.216 693.65>
LayerCount: 2
Fore
SplineSet
788 131 m 2
 553 131 l 1
 467 -168 l 2
 464 -181 459 -194 441 -194 c 0
 428 -194 417 -184 417 -171 c 0
 417 -167 420 -155 421 -152 c 2
 503 131 l 1
 310 131 l 1
 225 -168 l 2
 221 -181 217 -194 198 -194 c 0
 185 -194 174 -184 174 -171 c 0
 174 -167 177 -155 178 -152 c 2
 260 131 l 1
 94 131 l 2
 78 131 56 132 56 154 c 0
 56 176 78 176 95 176 c 2
 274 176 l 1
 315 324 l 1
 95 324 l 2
 78 324 56 324 56 346 c 0
 56 368 78 369 94 369 c 2
 329 369 l 1
 415 668 l 2
 418 681 423 694 441 694 c 0
 454 694 465 684 465 671 c 0
 465 667 462 655 461 652 c 2
 379 369 l 1
 572 369 l 1
 657 668 l 2
 661 681 665 694 684 694 c 0
 697 694 708 684 708 671 c 0
 708 667 705 655 704 652 c 2
 622 369 l 1
 788 369 l 2
 804 369 826 368 826 346 c 0
 826 324 804 324 787 324 c 2
 608 324 l 1
 567 176 l 1
 787 176 l 2
 804 176 826 176 826 154 c 0
 826 132 804 131 788 131 c 2
365 324 m 1
 324 176 l 1
 517 176 l 1
 558 324 l 1
 365 324 l 1
EndSplineSet
EndChar

StartChar: O
Encoding: 79 79 80
Width: 826
Flags: W
HStem: -22 32<339.51 483.611> 674 31<339.142 484.665>
VStem: 56 116<218.749 458.52> 652 115<214.367 461.873>
AnchorPoint: "overlap" 417 323 basechar 0
AnchorPoint: "below" 412 -63 basechar 0
AnchorPoint: "top" 412 749 basechar 0
AnchorPoint: "bottom" 411 -14 basechar 0
LayerCount: 2
Fore
SplineSet
411 -22 m 0
 221 -22 56 134 56 339 c 0
 56 545 220 705 411 705 c 0
 606 705 767 543 767 339 c 0
 767 137 606 -22 411 -22 c 0
411 674 m 0
 325 674 172 608 172 353 c 0
 172 95 313 10 412 10 c 0
 508 10 652 91 652 353 c 0
 652 605 502 674 411 674 c 0
EndSplineSet
Position2: "'cpsp' Capital Spacing lookup 0 subtable" dx=7 dy=0 dh=14 dv=0
EndChar

StartChar: o
Encoding: 111 111 81
Width: 531
Flags: W
HStem: -11 31<200.197 328.31> 420 28<204.154 324.68>
VStem: 26 95<119.868 309.014> 408 94<120.239 310.397>
AnchorPoint: "overlap" 264 323 basechar 0
AnchorPoint: "below" 266 -32 basechar 0
AnchorPoint: "top" 266 505 basechar 0
AnchorPoint: "bottom" 267 -7 basechar 0
LayerCount: 2
Fore
SplineSet
262 3 m 1030
264 -11 m 0
 138 -11 26 85 26 214 c 0
 26 339 131 448 265 448 c 0
 395 448 502 342 502 214 c 0
 502 87 394 -11 264 -11 c 0
381 358 m 0
 354 399 309 420 264 420 c 0
 223 420 173 400 146 356 c 0
 121 315 121 267 121 222 c 0
 121 177 122 124 147 84 c 0
 175 40 220 20 265 20 c 0
 317 20 362 48 385 91 c 0
 408 134 408 186 408 222 c 0
 408 260 408 316 381 358 c 0
EndSplineSet
Substitution2: "'smcp' Lowercase to Small Capitals lookup 14 subtable" O.sc
EndChar

StartChar: one
Encoding: 49 49 82
Width: 531
Flags: W
HStem: 0 37<98 226.644 318.356 447> 566 37<91 211.827> 646 20G<253 300>
VStem: 230 85<42.8898 590>
LayerCount: 2
Fore
SplineSet
272 3 m 0
 230 3 138 3 98 0 c 1
 98 37 l 1
 135 37 l 2
 230 37 230 48 230 81 c 2
 230 590 l 1
 175 566 115 566 91 566 c 1
 91 603 l 1
 128 603 220 603 286 666 c 1
 314 666 315 662 315 637 c 2
 315 81 l 2
 315 47 315 37 410 37 c 2
 447 37 l 1
 447 0 l 1
 407 3 315 3 272 3 c 0
EndSplineSet
Substitution2: "'pnum' Proportional Numbers lookup 6 subtable" one.prop
Substitution2: "'onum' Oldstyle Figures lookup 4 subtable" one.oldstyle
AlternateSubs2: "'aalt' Access All Alternates lookup 1 subtable" one.oldstyle one.prop
EndChar

StartChar: P
Encoding: 80 80 83
Width: 723
Flags: W
HStem: 0 37<34 140.156 246.844 353> 313 32<244 473.053> 646 37<34 140.156 241.75 479.391>
VStem: 143 98<42.0735 313 345 641.445> 549 116<423.048 570.733>
AnchorPoint: "overlap" 357 323 basechar 0
AnchorPoint: "top" 349 749 basechar 0
LayerCount: 2
Fore
SplineSet
420 313 m 2
 244 313 l 1
 244 80 l 2
 244 46 246 37 324 37 c 2
 353 37 l 1
 353 0 l 1
 312 3 233 3 193 3 c 0
 153 3 74 3 34 0 c 1
 34 37 l 1
 63 37 l 2
 141 37 143 46 143 80 c 2
 143 603 l 2
 143 637 141 646 63 646 c 2
 34 646 l 1
 34 683 l 1
 411 683 l 2
 558 683 665 595 665 496 c 0
 665 394 548 313 420 313 c 2
384 646 m 2
 289 646 l 2
 241 646 241 640 241 610 c 2
 241 345 l 1
 384 345 l 2
 549 345 549 450 549 496 c 0
 549 543 549 646 384 646 c 2
EndSplineSet
Position2: "'cpsp' Capital Spacing lookup 0 subtable" dx=7 dy=0 dh=14 dv=0
EndChar

StartChar: p
Encoding: 112 112 84
Width: 590
Flags: W
HStem: -194 37<26 106.922 191.065 271> -13 28<254.288 363.531> 394 37<26 106.085> 411 31<256.427 375.219>
VStem: 109 80<-154.251 47 65.0086 361.201 381 389.863> 461 94<120.017 309.604>
AnchorPoint: "hook" 447 36 basechar 0
AnchorPoint: "below" 320 -220 basechar 0
AnchorPoint: "overlap" 314 323 basechar 0
AnchorPoint: "top" 332 505 basechar 0
LayerCount: 2
Fore
SplineSet
312 3 m 1030xcc
189 47 m 1
 189 -116 l 2
 189 -157 197 -157 271 -157 c 1
 271 -194 l 1
 148 -191 l 1
 26 -194 l 1
 26 -157 l 1
 101 -157 109 -157 109 -116 c 2
 109 348 l 2
 109 389 105 394 26 394 c 1
 26 431 l 1xec
 185 442 l 1
 185 381 l 1
 209 404 253 442 331 442 c 0xdc
 451 442 555 342 555 215 c 0
 555 86 444 -13 316 -13 c 0
 248 -13 204 25 189 47 c 1
322 411 m 0xdc
 270 411 219 383 189 334 c 1
 189 114 l 2
 189 95 189 94 203 74 c 0
 231 34 270 15 312 15 c 0
 388 15 461 96 461 215 c 0
 461 327 397 411 322 411 c 0xdc
EndSplineSet
Substitution2: "'smcp' Lowercase to Small Capitals lookup 14 subtable" P.sc
EndChar

StartChar: parenleft
Encoding: 40 40 85
Width: 413
Flags: W
VStem: 102 68<67.7285 429.081>
LayerCount: 2
Fore
SplineSet
340 -250 m 0
 327 -250 235 -184 172 -61 c 0
 113 51 102 172 102 250 c 0
 102 334 114 445 169 554 c 0
 231 681 327 750 340 750 c 0
 348 750 354 746 354 737 c 0
 354 733 352 730 339 718 c 0
 209 595 170 423 170 250 c 0
 170 98 203 -89 335 -213 c 0
 353 -230 354 -233 354 -237 c 0
 354 -246 348 -250 340 -250 c 0
EndSplineSet
EndChar

StartChar: parenright
Encoding: 41 41 86
Width: 413
Flags: W
VStem: 242 68<74.1922 429.035>
LayerCount: 2
Fore
SplineSet
242 -54 m 0
 180 -181 84 -250 71 -250 c 0
 63 -250 57 -245 57 -237 c 0
 57 -233 59 -230 72 -218 c 0
 203 -94 242 80 242 250 c 0
 242 457 182 615 78 712 c 0
 59 730 57 733 57 737 c 0
 57 745 63 750 71 750 c 0
 84 750 176 684 239 561 c 0
 298 449 310 328 310 250 c 0
 310 166 297 55 242 -54 c 0
EndSplineSet
EndChar

StartChar: percent
Encoding: 37 37 87
Width: 885
Flags: W
HStem: -56 28<649.421 725.669> 322 28<649.048 726.027> 344 28<179.421 254.505> 614 28<400.584 576.07> 722 28<177.187 255.766>
VStem: 56 72<446.553 647.108> 323 33<455.338 639.379> 526 72<45.9706 246.747> 793 33<54.7899 238.858>
LayerCount: 2
Fore
SplineSet
685 -56 m 0xdf80
 603 -56 526 26 526 147 c 0
 526 264 602 350 685 350 c 0
 763 350 826 261 826 146 c 0
 826 35 765 -56 685 -56 c 0xdf80
624 644 m 1
 604 634 556 614 491 614 c 0
 454 614 403 619 337 652 c 1
 356 603 356 560 356 547 c 0
 356 435 295 344 215 344 c 0xbf80
 133 344 56 427 56 548 c 0
 56 664 132 750 215 750 c 0
 250 750 274 735 294 717 c 0
 352 667 416 642 490 642 c 0
 566 642 636 669 689 735 c 0
 694 742 701 750 713 750 c 0
 727 750 738 740 738 727 c 0
 738 721 736 717 729 708 c 2
 192 -40 l 2
 186 -49 182 -56 169 -56 c 0
 156 -56 144 -46 144 -33 c 0
 144 -32 145 -25 154 -12 c 2
 624 644 l 1
686 322 m 0xdf80
 666 322 598 311 598 146 c 0
 598 -17 667 -28 686 -28 c 0
 738 -28 793 40 793 147 c 0
 793 252 739 322 686 322 c 0xdf80
216 722 m 0
 196 722 128 711 128 547 c 0
 128 383 197 372 216 372 c 0xbf80
 268 372 323 441 323 548 c 0
 323 652 269 722 216 722 c 0
EndSplineSet
EndChar

StartChar: period
Encoding: 46 46 88
Width: 295
Flags: W
HStem: 0 106<99.8931 195.04>
VStem: 88 119<12.1902 93.8098>
LayerCount: 2
Fore
SplineSet
147 0 m 0
 115 0 88 24 88 53 c 0
 88 82 115 106 147 106 c 0
 180 106 207 82 207 53 c 0
 207 24 180 0 147 0 c 0
EndSplineSet
EndChar

StartChar: plus
Encoding: 43 43 89
Width: 826
Flags: W
HStem: 227 46<56.016 388 437 766.985>
VStem: 388 49<-82.8706 227 273 582.871>
LayerCount: 2
Fore
SplineSet
729 227 m 2
 437 227 l 1
 437 -47 l 2
 437 -63 436 -83 412 -83 c 0
 389 -83 388 -63 388 -47 c 2
 388 227 l 1
 94 227 l 2
 78 227 56 228 56 250 c 0
 56 272 78 273 94 273 c 2
 388 273 l 1
 388 547 l 2
 388 563 389 583 412 583 c 0
 436 583 437 563 437 547 c 2
 437 273 l 1
 729 273 l 2
 746 273 767 272 767 250 c 0
 767 228 746 227 729 227 c 2
EndSplineSet
EndChar

StartChar: Q
Encoding: 81 81 90
Width: 826
Flags: W
HStem: -194 108<596.273 707.512> -23 31<372.849 489.292> 124 28<374.395 458.268> 674 31<339.552 484.419>
VStem: 56 113<214.187 460.715> 323 30<25.5067 103.862> 655 112<215.682 463.834> 744 30<-43.7319 15.9905>
AnchorPoint: "below" 410 -198 basechar 0
AnchorPoint: "overlap" 407 323 basechar 0
AnchorPoint: "top" 414 749 basechar 0
LayerCount: 2
Fore
SplineSet
642 -194 m 0xfd
 563 -194 537 -135 523 -75 c 0
 518 -54 514 -32 510 -9 c 1
 480 -18 444 -23 412 -23 c 0
 217 -23 56 136 56 338 c 0
 56 544 220 705 411 705 c 0
 606 705 767 542 767 338 c 0xfe
 767 188 678 61 553 7 c 1
 578 -55 604 -86 651 -86 c 0
 695 -86 738 -57 744 -5 c 0
 746 7 748 16 759 16 c 0
 773 16 774 3 774 -8 c 0
 774 -58 754 -194 642 -194 c 0xfd
411 674 m 0
 316 674 169 595 169 338 c 0
 169 122 276 47 334 23 c 1
 327 36 323 51 323 65 c 0
 323 107 357 152 413 152 c 0
 477 152 511 102 535 48 c 1
 643 125 655 262 655 338 c 0
 655 591 512 674 411 674 c 0
413 124 m 0
 374 124 353 93 353 65 c 0
 353 51 361 8 412 8 c 0
 435 8 467 11 502 29 c 1
 490 85 467 124 413 124 c 0
EndSplineSet
Position2: "'cpsp' Capital Spacing lookup 0 subtable" dx=7 dy=0 dh=14 dv=0
EndChar

StartChar: q
Encoding: 113 113 91
Width: 561
Flags: W
HStem: -194 37<317 397.922 481.078 562> -13 28<216.016 325.234> 411 31<222.857 331.95>
VStem: 33 94<119.256 306.093> 400 79<-154.251 53 74.1748 352.089>
AnchorPoint: "below" 276 -212 basechar 0
AnchorPoint: "overlap" 264 323 basechar 0
AnchorPoint: "top" 272 505 basechar 0
LayerCount: 2
Fore
SplineSet
262 3 m 1030
439 -191 m 1
 317 -194 l 1
 317 -157 l 1
 392 -157 400 -157 400 -116 c 2
 400 53 l 1
 375 24 332 -13 262 -13 c 0
 137 -13 33 89 33 214 c 0
 33 345 146 442 270 442 c 0
 351 442 395 386 412 356 c 1
 451 442 l 1
 479 442 l 1
 479 -116 l 2
 479 -157 487 -157 562 -157 c 1
 562 -194 l 1
 439 -191 l 1
403 276 m 2
 403 327 359 411 277 411 c 0
 201 411 127 331 127 214 c 0
 127 101 191 15 266 15 c 0
 315 15 348 41 361 55 c 0
 384 78 403 105 403 136 c 2
 403 276 l 2
EndSplineSet
Substitution2: "'smcp' Lowercase to Small Capitals lookup 14 subtable" Q.sc
EndChar

StartChar: question
Encoding: 63 63 92
Width: 502
Flags: W
HStem: 0 111<188.764 282.161> 520 96<103 152.251> 677 28<165.248 306.711>
VStem: 56 104<528.076 607.338> 176 119<12.7644 98.3193> 219 33<185.007 328.824> 349 94<499.571 635.335>
LayerCount: 2
Fore
SplineSet
391 469 m 0xf6
 360 447 331 424 308 396 c 0
 278 360 252 312 252 250 c 2
 252 215 l 2
 252 195 251 185 235 185 c 0
 221 185 219 192 219 212 c 2
 219 257 l 2
 219 318 242 410 314 482 c 0
 324 492 332 500 338 513 c 0
 344 527 349 545 349 574 c 0
 349 612 349 677 236 677 c 0
 194 677 136 663 103 616 c 1
 122 615 160 611 160 568 c 0
 160 541 140 520 108 520 c 0
 82 520 56 534 56 570 c 0
 56 637 124 705 240 705 c 0
 399 705 443 628 443 568 c 0
 443 526 420 489 391 469 c 0xf6
235 0 m 0
 203 0 176 25 176 56 c 0
 176 86 203 111 235 111 c 0
 268 111 295 86 295 56 c 0xfa
 295 25 268 0 235 0 c 0
EndSplineSet
EndChar

StartChar: quotedbl
Encoding: 34 34 93
Width: 403
Flags: W
HStem: 423 282<131 164 232 266>
VStem: 107 81<596.542 700.761> 209 80<593.435 701.448>
LayerCount: 2
Fore
SplineSet
266 423 m 1
 232 423 l 1
 209 668 l 2
 207 689 226 705 249 705 c 0
 272 705 291 689 289 668 c 2
 266 423 l 1
164 423 m 1
 131 423 l 1
 107 668 l 1
 107 671 l 2
 107 691 126 705 147 705 c 0
 170 705 190 689 188 668 c 2
 164 423 l 1
EndSplineSet
EndChar

StartChar: quotesingle
Encoding: 39 39 94
Width: 295
Flags: W
HStem: 423 282<131 164>
VStem: 107 81<596.542 701.057>
LayerCount: 2
Fore
SplineSet
164 423 m 1
 131 423 l 1
 107 668 l 2
 105 689 125 705 147 705 c 0
 170 705 190 689 188 668 c 2
 164 423 l 1
EndSplineSet
EndChar

StartChar: R
Encoding: 82 82 95
Width: 782
Flags: W
HStem: -22 28<644.335 716.239> 0 37<34 140.156 243.844 350> 328 28<241 423.856> 646 37<34 140.156 241.707 460.331>
VStem: 143 98<41.2297 328 356 641.719> 534 116<435.127 569.24> 746 33<35.427 109.991>
AnchorPoint: "overlap" 357 323 basechar 0
AnchorPoint: "below" 438 -20 basechar 0
AnchorPoint: "top" 359 749 basechar 0
LayerCount: 2
Fore
SplineSet
675 -22 m 0xbe
 643 -22 583 -17 540 20 c 0
 505 49 498 80 496 120 c 0
 495 134 495 148 495 164 c 0
 495 231 495 260 456 295 c 0
 419 328 376 328 359 328 c 2
 241 328 l 1
 241 80 l 2
 241 46 243 37 321 37 c 2
 350 37 l 1
 350 0 l 1
 308 3 233 3 192 3 c 0
 151 3 75 3 34 0 c 1
 34 37 l 1
 63 37 l 2x7e
 141 37 143 46 143 80 c 2
 143 603 l 2
 143 637 141 646 63 646 c 2
 34 646 l 1
 34 683 l 1
 370 683 l 2
 526 683 650 599 650 502 c 0
 650 425 570 365 472 339 c 1
 527 320 575 287 594 226 c 1
 607 146 l 2
 611 123 615 103 619 85 c 0
 622 67 626 53 631 41 c 0
 641 17 655 6 679 6 c 0
 704 6 740 22 746 91 c 0
 747 101 749 110 762 110 c 0
 779 110 779 97 779 90 c 0
 779 62 761 -22 675 -22 c 0xbe
323 646 m 0
 302 646 272 646 261 644 c 0
 241 641 241 633 241 610 c 2
 241 356 l 1
 355 356 l 2
 510 356 534 434 534 502 c 0
 534 642 419 646 323 646 c 0
EndSplineSet
Position2: "'cpsp' Capital Spacing lookup 0 subtable" dx=7 dy=0 dh=14 dv=0
EndChar

StartChar: r
Encoding: 114 114 96
Width: 414
Flags: W
HStem: 0 37<26 106.922 187.985 288> 395 36<26 103.658> 414 28<258.3 309.194>
VStem: 109 76<41.2297 339.813 347 389.888> 291 98<339.788 413.436>
AnchorPoint: "overlap" 184 323 basechar 0
AnchorPoint: "below" 152 -32 basechar 0
AnchorPoint: "top" 222 505 basechar 0
AnchorPoint: "bottom" 156 -32 basechar 0
LayerCount: 2
Fore
SplineSet
182 3 m 1030x98
340 332 m 0
 315 332 291 348 291 378 c 0
 291 396 302 408 310 414 c 1
 307 414 l 2xb8
 230 414 185 330 185 232 c 2
 185 80 l 2
 185 46 188 37 263 37 c 2
 288 37 l 1
 288 0 l 1
 199 6 116 2 26 0 c 1
 26 37 l 1
 101 37 109 37 109 78 c 2
 109 342 l 2
 109 388 103 395 26 395 c 1
 26 431 l 1xd8
 180 442 l 1
 180 347 l 1
 198 389 237 442 307 442 c 0xb8
 354 442 389 412 389 379 c 0
 389 345 360 332 340 332 c 0
EndSplineSet
Substitution2: "'cv02' Character Variants 02 lookup 0 subtable" r.end
Substitution2: "'smcp' Lowercase to Small Capitals lookup 14 subtable" R.sc
EndChar

StartChar: S
Encoding: 83 83 97
Width: 590
Flags: W
HStem: -22 37<213.7 388.071> 671 34<198.405 352.65>
VStem: 56 74<478.41 594.573> 56 33<-21.9197 -8 132.334 230.991> 458 74<93.971 228.12> 471 32<452.004 535.476>
AnchorPoint: "overlap" 287 323 basechar 0
AnchorPoint: "below" 298 -53 basechar 0
AnchorPoint: "top" 272 749 basechar 0
AnchorPoint: "bottom" 320 -14 basechar 0
LayerCount: 2
Fore
SplineSet
320 -22 m 0xe8
 228 -22 160 12 126 46 c 1
 93 -4 89 -8 89 -8 c 2
 85 -15 82 -22 71 -22 c 0
 58 -22 56 -15 56 5 c 2
 56 203 l 2
 56 224 57 231 73 231 c 0
 82 231 89 228 89 218 c 0
 90 195 92 172 99 149 c 0
 128 57 220 15 319 15 c 0
 406 15 458 84 458 154 c 0xd8
 458 186 447 217 426 243 c 0
 396 278 366 286 337 292 c 0
 263 310 209 321 197 325 c 0
 113 353 56 426 56 510 c 0
 56 616 147 705 266 705 c 0
 322 705 369 691 411 658 c 0
 420 651 428 644 435 637 c 1
 470 691 l 2
 479 704 480 705 489 705 c 0
 502 705 503 698 503 678 c 2
 503 479 l 2
 503 457 502 452 487 452 c 0
 474 452 472 457 471 467 c 0xe4
 465 508 454 549 432 586 c 0
 403 631 354 671 267 671 c 0
 186 671 130 612 130 544 c 0
 130 488 171 436 235 421 c 2
 371 391 l 2
 461 370 532 288 532 187 c 0
 532 77 446 -22 320 -22 c 0xe8
EndSplineSet
Position2: "'cpsp' Capital Spacing lookup 0 subtable" dx=7 dy=0 dh=14 dv=0
EndChar

StartChar: s
Encoding: 115 115 98
Width: 419
Flags: W
HStem: -11 28<145.873 281.657> 423 25<134.563 268.305>
VStem: 32 57<307.981 389.01> 32 35<100.742 173.994> 328 57<54.3378 154.126>
AnchorPoint: "hook" 323 19 basechar 0
AnchorPoint: "overlap" 202 323 basechar 0
AnchorPoint: "below" 216 -24 basechar 0
AnchorPoint: "top" 207 505 basechar 0
AnchorPoint: "bottom" 216 0 basechar 0
LayerCount: 2
Fore
SplineSet
211 -11 m 0xe8
 189 -11 141 -10 94 30 c 1
 89 24 82 18 77 12 c 0
 72 5 57 -11 47 -11 c 0
 33 -11 32 -4 32 16 c 2
 32 146 l 2
 32 166 33 174 49 174 c 0
 62 174 64 167 67 154 c 0xd8
 87 71 124 17 211 17 c 0
 292 17 328 55 328 104 c 0
 328 172 244 187 220 191 c 0
 144 205 113 211 79 237 c 0
 49 260 32 288 32 324 c 0
 32 381 74 448 205 448 c 0
 221 448 264 448 304 421 c 1
 309 425 317 432 320 435 c 0
 334 447 337 448 343 448 c 0
 357 448 358 441 358 421 c 2
 358 322 l 2
 358 300 357 295 341 295 c 1
 341 295 326 295 325 307 c 0
 323 331 320 355 307 377 c 0
 291 402 262 423 205 423 c 0
 115 423 89 384 89 351 c 0
 89 297 156 284 217 273 c 0
 261 265 304 257 339 225 c 0
 352 213 385 183 385 129 c 0
 385 56 335 -11 211 -11 c 0xe8
EndSplineSet
Substitution2: "'smcp' Lowercase to Small Capitals lookup 14 subtable" S.sc
EndChar

StartChar: semicolon
Encoding: 59 59 99
Width: 295
Flags: W
HStem: -2 111<99.8894 178.758> 320 111<100.764 194.161>
VStem: 88 122<9.4274 90.6426 335.437 415.676> 180 30<-79.2827 5.43875>
LayerCount: 2
Fore
SplineSet
147 320 m 0xe0
 115 320 88 345 88 376 c 0
 88 406 115 431 147 431 c 0
 180 431 207 406 207 376 c 0
 207 345 180 320 147 320 c 0xe0
119 -193 m 0
 112 -193 105 -188 105 -179 c 0
 105 -175 106 -173 113 -164 c 0
 159 -115 180 -58 180 6 c 1xd0
 172 2 163 0 156 -1 c 0
 155 -1 152 -2 147 -2 c 0
 107 -2 88 27 88 54 c 0xe0
 88 81 108 109 147 109 c 0
 207 109 210 34 210 4 c 0xd0
 210 -111 134 -193 119 -193 c 0
EndSplineSet
EndChar

StartChar: seven
Encoding: 55 55 100
Width: 531
Flags: W
HStem: 562 82<127.34 430>
VStem: 56 32<466 506.833> 183 104<-13.6071 187.428>
LayerCount: 2
Fore
SplineSet
507 605 m 2
 364 416 l 2
 297 329 287 190 287 86 c 2
 287 36 l 2
 287 25 287 -22 235 -22 c 0
 184 -22 183 25 183 36 c 0
 183 137 214 278 314 410 c 2
 430 562 l 1
 216 562 l 2
 202 562 120 562 114 557 c 0
 102 546 92 484 88 466 c 1
 56 466 l 1
 92 676 l 1
 123 676 l 1
 126 663 128 658 143 653 c 0
 159 648 192 644 257 644 c 2
 517 644 l 1
 517 620 517 618 507 605 c 2
EndSplineSet
Substitution2: "'pnum' Proportional Numbers lookup 6 subtable" seven.prop
Substitution2: "'onum' Oldstyle Figures lookup 4 subtable" seven.oldstyle
AlternateSubs2: "'aalt' Access All Alternates lookup 1 subtable" seven.oldstyle seven.prop
EndChar

StartChar: six
Encoding: 54 54 101
Width: 531
Flags: W
HStem: -22 34<211.643 327.362> 400 29<216.293 326.631> 505 96<365.158 413> 635 31<262.294 389.469>
VStem: 41 104<150.097 453.662> 357 104<513.755 593.844> 386 102<106.67 303.932>
LayerCount: 2
Fore
SplineSet
266 -22 m 0xfa
 165 -22 41 50 41 316 c 0
 41 536 185 666 323 666 c 0
 413 666 461 617 461 556 c 0
 461 515 427 505 409 505 c 0
 385 505 357 521 357 554 c 0xfc
 357 596 393 601 413 601 c 1
 390 630 349 635 325 635 c 0
 273 635 143 601 143 352 c 2
 143 342 l 1
 166 386 205 429 272 429 c 0
 392 429 488 332 488 205 c 0
 488 73 386 -22 266 -22 c 0xfa
384 278 m 0
 381 301 377 323 367 341 c 0
 351 371 326 395 289 399 c 0
 282 400 275 400 271 400 c 0
 179 400 145 304 145 227 c 0
 145 184 148 123 164 84 c 0
 170 69 201 12 266 12 c 0
 290 12 338 16 368 74 c 0
 387 111 386 166 386 206 c 0xfa
 386 230 386 255 384 278 c 0
EndSplineSet
Substitution2: "'pnum' Proportional Numbers lookup 6 subtable" six.prop
Substitution2: "'onum' Oldstyle Figures lookup 4 subtable" six.oldstyle
AlternateSubs2: "'aalt' Access All Alternates lookup 1 subtable" six.oldstyle six.prop
EndChar

StartChar: slash
Encoding: 47 47 102
Width: 531
Flags: W
LayerCount: 2
Fore
SplineSet
467 708 m 2
 106 -228 l 2
 101 -240 97 -250 81 -250 c 0
 67 -250 56 -240 56 -227 c 2
 56 -227 56 -222 62 -208 c 2
 423 728 l 2
 428 740 432 750 448 750 c 0
 462 750 473 740 473 727 c 2
 473 727 473 722 467 708 c 2
EndSplineSet
EndChar

StartChar: T
Encoding: 84 84 104
Width: 767
Flags: W
HStem: 0 37<178 327.381 436.66 586> 640 37<130.793 331.293 449.238 633.963>
VStem: 35 33<448 528.15> 332 100<44.0079 637.902> 697 33<448 524.333>
AnchorPoint: "overlap" 382 323 basechar 0
AnchorPoint: "below" 384 -24 basechar 0
AnchorPoint: "top" 389 749 basechar 0
AnchorPoint: "bottom" 382 6 basechar 0
LayerCount: 2
Fore
SplineSet
697 448 m 1
 682 609 667 640 509 640 c 0
 499 640 487 640 475 640 c 0
 464 640 454 639 449 638 c 0
 436 636 434 628 433 617 c 0
 432 613 432 609 432 604 c 2
 432 81 l 2
 432 49 433 37 541 37 c 2
 586 37 l 1
 586 0 l 1
 539 3 430 3 382 3 c 0
 333 3 225 3 178 0 c 1
 178 37 l 1
 224 37 l 2
 331 37 332 49 332 81 c 2
 332 604 l 2
 332 627 332 635 312 638 c 0
 302 640 275 640 255 640 c 0
 98 640 83 609 68 448 c 1
 35 448 l 1
 55 677 l 1
 709 677 l 1
 730 448 l 1
 697 448 l 1
EndSplineSet
Position2: "'cpsp' Capital Spacing lookup 0 subtable" dx=7 dy=0 dh=14 dv=0
EndChar

StartChar: t
Encoding: 116 116 105
Width: 413
Flags: W
HStem: -11 31<213.659 291.63> 396 37<187 338> 396 28<17 71.8065>
VStem: 107 80<45.0997 396> 154 33<518.707 615> 322 33<54.5273 185>
AnchorPoint: "overlap" 154 323 basechar 0
AnchorPoint: "below" 210 -24 basechar 0
AnchorPoint: "top" 169 675 basechar 0
AnchorPoint: "bottom" 245 0 basechar 0
LayerCount: 2
Fore
SplineSet
247 -11 m 0xd4
 208 -11 107 1 107 126 c 2
 107 396 l 1
 17 396 l 1
 17 424 l 1xb4
 121 428 153 531 154 615 c 1
 187 615 l 1
 187 433 l 1xcc
 338 433 l 1
 338 396 l 1
 187 396 l 1
 187 124 l 2
 187 107 186 20 254 20 c 0
 291 20 322 55 322 128 c 2
 322 185 l 1
 355 185 l 1
 355 126 l 2
 355 62 325 -11 247 -11 c 0xd4
EndSplineSet
Substitution2: "'smcp' Lowercase to Small Capitals lookup 14 subtable" T.sc
EndChar

StartChar: three
Encoding: 51 51 106
Width: 531
Flags: W
HStem: -22 34<170.233 311.961> 81 116<99 153.024> 334 32<174.095 291.543> 474 106<121 173.618> 635 31<177.792 312.49>
VStem: 41 125<95.5326 183.672> 70 114<484.315 569.322> 355 104<447.893 590.104> 372 116<90.2948 250.099>
LayerCount: 2
Fore
SplineSet
259 -22 m 0xf880
 142 -22 41 44 41 137 c 0
 41 182 77 197 104 197 c 0
 136 197 166 176 166 139 c 0
 166 101 135 79 99 81 c 1
 137 27 212 12 255 12 c 0
 300 12 372 39 372 172 c 0xfc80
 372 269 333 334 249 334 c 2
 202 334 l 2
 182 334 174 335 174 348 c 0
 174 360 182 361 193 363 c 0
 200 363 226 365 234 366 c 0
 260 367 296 369 326 416 c 0
 354 458 355 515 355 527 c 0
 355 614 299 635 257 635 c 0
 220 635 155 623 121 580 c 1
 142 579 184 574 184 527 c 0
 184 497 162 474 127 474 c 0
 95 474 70 494 70 528 c 0
 70 606 153 666 261 666 c 0
 363 666 459 610 459 526 c 0xfb
 459 450 401 382 319 352 c 1
 424 328 488 252 488 172 c 0
 488 69 390 -22 259 -22 c 0xf880
EndSplineSet
Substitution2: "'pnum' Proportional Numbers lookup 6 subtable" three.prop
Substitution2: "'onum' Oldstyle Figures lookup 4 subtable" three.oldstyle
AlternateSubs2: "'aalt' Access All Alternates lookup 1 subtable" three.oldstyle three.prop
EndChar

StartChar: two
Encoding: 50 50 107
Width: 531
Flags: W
HStem: 0 82<142 423.581> 425 110<99.5598 155.571> 629 37<167.885 304.423>
VStem: 50 117<437.35 521.514> 376 103<387.419 559.014> 447 33<137.806 178>
LayerCount: 2
Fore
SplineSet
449 0 m 1xf4
 50 0 l 1
 50 27 51 29 62 42 c 2
 266 254 l 2
 324 315 376 393 376 471 c 0
 376 551 331 629 237 629 c 0
 179 629 124 595 99 535 c 1
 101 535 104 535 108 535 c 0
 147 535 167 508 167 481 c 0
 167 438 128 425 109 425 c 0
 106 425 50 425 50 484 c 0
 50 573 130 666 251 666 c 0
 382 666 479 586 479 471 c 0xf8
 479 420 461 383 423 341 c 0
 404 320 381 297 352 271 c 0
 323 245 289 215 249 179 c 2
 142 82 l 1
 325 82 l 2
 348 82 416 81 424 89 c 0
 435 105 443 159 447 178 c 1
 480 178 l 1
 449 0 l 1xf4
EndSplineSet
Substitution2: "'pnum' Proportional Numbers lookup 6 subtable" two.prop
Substitution2: "'onum' Oldstyle Figures lookup 4 subtable" two.oldstyle
AlternateSubs2: "'aalt' Access All Alternates lookup 1 subtable" two.oldstyle two.prop
EndChar

StartChar: U
Encoding: 85 85 108
Width: 796
Flags: W
HStem: -22 37<337.994 493.988> 646 37<32 137.924 244.844 351 505 590.754 675.816 762>
VStem: 141 101<130.552 641.359> 614 39<139.453 624.666>
AnchorPoint: "overlap" 427 323 basechar 0
AnchorPoint: "below" 411 -44 basechar 0
AnchorPoint: "top" 436 749 basechar 0
AnchorPoint: "bottom" 411 -14 basechar 0
LayerCount: 2
Fore
SplineSet
653 572 m 2
 653 255 l 2
 653 215 653 206 650 186 c 0
 632 72 535 -22 411 -22 c 0
 265 -22 141 87 141 229 c 2
 141 603 l 2
 141 637 138 646 60 646 c 2
 32 646 l 1
 32 683 l 1
 72 680 152 680 192 680 c 0
 232 680 310 680 351 683 c 1
 351 646 l 1
 322 646 l 2
 244 646 242 637 242 603 c 2
 242 225 l 2
 242 39 365 15 413 15 c 0
 512 15 614 93 614 232 c 2
 614 576 l 2
 614 602 613 646 505 646 c 1
 505 683 l 1
 634 680 l 1
 762 683 l 1
 762 646 l 1
 653 646 653 604 653 572 c 2
EndSplineSet
Position2: "'cpsp' Capital Spacing lookup 0 subtable" dx=7 dy=0 dh=14 dv=0
EndChar

StartChar: u
Encoding: 117 117 109
Width: 590
Flags: W
HStem: -11 28<222.018 336.981> 0 36<493.295 570> 395 36<31 106.456 325 402.658> 422 20G<31 193 325 488>
VStem: 113 80<45.125 390.171> 408 80<41.1117 68 79.2281 389.888>
AnchorPoint: "hook" 474 -3 basechar 0
AnchorPoint: "overlap" 284 323 basechar 0
AnchorPoint: "below" 298 -26 basechar 0
AnchorPoint: "top" 282 505 basechar 0
AnchorPoint: "bottom" 464 -4 basechar 0
LayerCount: 2
Fore
SplineSet
300 -31 m 1030x0c
411 -11 m 1x8c
 411 68 l 1
 380 14 335 -11 278 -11 c 0
 114 -11 113 82 113 159 c 2
 113 307 l 2
 113 392 114 395 31 395 c 1
 31 431 l 1xac
 193 442 l 1x1c
 193 111 l 2
 193 60 197 17 283 17 c 0
 358 17 408 82 408 167 c 2
 408 342 l 2
 408 388 402 395 325 395 c 1
 325 431 l 1xac
 488 442 l 1
 488 89 l 2
 488 43 494 36 570 36 c 1
 570 0 l 1x5c
 411 -11 l 1x8c
EndSplineSet
Substitution2: "'smcp' Lowercase to Small Capitals lookup 14 subtable" U.sc
EndChar

StartChar: underscore
Encoding: 95 95 110
Width: 796
Flags: W
HStem: -138 26<-3 798>
LayerCount: 2
Fore
SplineSet
-3 -138 m 1
 -3 -112 l 1
 798 -112 l 1
 798 -138 l 1
 -3 -138 l 1
EndSplineSet
EndChar

StartChar: V
Encoding: 86 86 111
Width: 796
Flags: W
HStem: 646 37<17 111.555 224.458 310 547 610.099 698.573 777>
AnchorPoint: "below" 396 -64 basechar 0
AnchorPoint: "overlap" 427 323 basechar 0
AnchorPoint: "top" 429 749 basechar 0
LayerCount: 2
Fore
SplineSet
661 582 m 2
 425 -1 l 2
 419 -16 416 -22 396 -22 c 0
 381 -22 375 -18 367 2 c 2
 121 611 l 2
 107 646 89 646 17 646 c 1
 17 683 l 1
 155 680 l 2
 195 679 268 680 310 683 c 1
 310 646 l 1
 281 646 223 648 223 621 c 0
 223 620 224 616 229 604 c 2
 428 110 l 1
 619 581 l 2
 622 587 624 593 624 600 c 0
 624 620 604 645 547 646 c 1
 547 683 l 1
 671 680 l 2
 699 679 741 681 777 683 c 1
 777 646 l 1
 703 645 676 617 661 582 c 2
EndSplineSet
Position2: "'cpsp' Capital Spacing lookup 0 subtable" dx=7 dy=0 dh=14 dv=0
EndChar

StartChar: v
Encoding: 118 118 112
Width: 561
Flags: W
HStem: -11 21G<272 288> 394 37<17 94.1088 181.619 242 364 408.23 476.113 542>
AnchorPoint: "below" 282 -41 basechar 0
AnchorPoint: "overlap" 294 323 basechar 0
AnchorPoint: "top" 306 505 basechar 0
LayerCount: 2
Fore
SplineSet
469 370 m 0
 457 359 450 345 444 330 c 2
 305 10 l 2
 301 0 296 -11 280 -11 c 0
 264 -11 261 -4 255 10 c 2
 102 360 l 2
 89 389 86 394 17 394 c 1
 17 431 l 1
 52 429 94 427 123 428 c 2
 242 431 l 1
 242 394 l 1
 221 394 182 396 181 372 c 0
 181 371 183 367 187 356 c 2
 303 88 l 1
 408 332 l 2
 412 341 414 346 414 355 c 0
 414 372 404 394 364 395 c 1
 364 431 l 1
 459 428 l 2
 483 427 514 429 542 431 c 1
 542 395 l 1
 504 394 483 383 469 370 c 0
EndSplineSet
Substitution2: "'smcp' Lowercase to Small Capitals lookup 14 subtable" V.sc
EndChar

StartChar: W
Encoding: 87 87 113
Width: 1091
Flags: W
HStem: 646 37<16 103.264 215.034 302 408 496.401 607.034 694 844 916.047 998.881 1073>
AnchorPoint: "overlap" 561 323 basechar 0
AnchorPoint: "below" 558 -18 basechar 0
AnchorPoint: "top" 559 749 basechar 0
LayerCount: 2
Fore
SplineSet
967 582 m 2
 764 0 l 2
 760 -13 757 -22 740 -22 c 0
 725 -22 721 -12 717 -1 c 2
 544 495 l 1
 372 0 l 2
 368 -13 365 -22 348 -22 c 0
 333 -22 328 -12 325 -1 c 2
 113 607 l 2
 100 641 98 646 16 646 c 1
 16 683 l 1
 148 680 l 2
 189 679 261 680 302 683 c 1
 302 646 l 1
 273 646 213 648 213 620 c 0
 213 617 214 610 215 608 c 2
 383 128 l 1
 527 544 l 1
 504 613 l 2
 494 641 477 644 450 646 c 0
 439 646 426 646 408 646 c 1
 408 683 l 1
 541 680 l 2
 581 679 653 680 694 683 c 1
 694 646 l 1
 665 646 605 648 605 620 c 0
 605 615 607 609 608 606 c 2
 775 128 l 1
 931 578 l 2
 933 583 936 591 936 597 c 0
 936 613 917 645 844 646 c 1
 844 683 l 1
 973 680 l 2
 1005 679 1038 681 1073 683 c 1
 1073 646 l 1
 1029 646 986 637 967 582 c 2
EndSplineSet
Position2: "'cpsp' Capital Spacing lookup 0 subtable" dx=7 dy=0 dh=14 dv=0
EndChar

StartChar: w
Encoding: 119 119 114
Width: 767
Flags: W
HStem: -11 21G<245.5 261.5 503 519> 394 37<16 88.0522 174.688 236 273 344.379 422.688 484 566 618.93 687.829 748>
AnchorPoint: "below" 384 -23 basechar 0
AnchorPoint: "overlap" 384 323 basechar 0
AnchorPoint: "top" 392 505 basechar 0
LayerCount: 2
Fore
SplineSet
659 333 m 2
 535 10 l 2
 531 0 527 -11 511 -11 c 0
 495 -11 491 -1 487 10 c 2
 382 282 l 1
 278 11 l 2
 273 -1 270 -11 253 -11 c 0
 238 -11 234 -3 228 13 c 2
 95 362 l 2
 83 392 72 394 16 394 c 1
 16 431 l 1
 118 428 l 1
 236 431 l 1
 236 394 l 1
 213 394 174 396 174 371 c 0
 174 366 177 359 179 354 c 2
 277 98 l 1
 364 328 l 1
 357 347 346 375 341 381 c 0
 331 392 316 394 273 394 c 1
 273 431 l 1
 309 429 339 427 371 428 c 2
 484 431 l 1
 484 394 l 1
 461 394 422 396 422 371 c 0
 422 365 425 359 427 353 c 2
 529 86 l 1
 622 330 l 2
 627 343 628 345 628 350 c 0
 628 377 606 394 566 395 c 1
 566 431 l 1
 668 428 l 2
 691 427 722 429 748 431 c 1
 748 395 l 1
 709 394 678 381 659 333 c 2
EndSplineSet
Substitution2: "'smcp' Lowercase to Small Capitals lookup 14 subtable" W.sc
EndChar

StartChar: X
Encoding: 88 88 115
Width: 796
Flags: W
HStem: 0 37<22 123.084 226.623 282 474 538.598 666.249 773> 646 37<36 142.123 270.402 335 469 522.637 628.163 728>
AnchorPoint: "below" 388 -25 basechar 0
AnchorPoint: "overlap" 397 323 basechar 0
AnchorPoint: "top" 409 749 basechar 0
LayerCount: 2
Fore
SplineSet
632 3 m 2
 592 4 514 3 474 0 c 1
 474 37 l 1
 523 38 543 55 543 63 c 0
 543 65 539 71 538 73 c 2
 373 306 l 1
 225 101 l 2
 217 91 215 87 215 79 c 0
 215 63 231 38 282 37 c 1
 282 0 l 1
 196 6 109 2 22 0 c 1
 22 37 l 1
 80 37 135 48 170 92 c 0
 173 95 175 98 177 101 c 2
 349 339 l 1
 155 613 l 2
 136 640 117 646 59 646 c 2
 36 646 l 1
 36 683 l 1
 177 680 l 2
 217 679 294 680 335 683 c 1
 335 646 l 1
 286 645 266 628 266 620 c 0
 266 616 271 609 273 606 c 2
 407 419 l 1
 525 583 l 2
 531 590 534 594 534 604 c 0
 534 624 513 645 469 646 c 1
 469 683 l 1
 557 677 639 681 728 683 c 1
 728 646 l 1
 632 645 597 614 574 583 c 2
 430 386 l 1
 652 71 l 2
 673 41 695 37 749 37 c 2
 773 37 l 1
 773 0 l 1
 632 3 l 2
EndSplineSet
Position2: "'cpsp' Capital Spacing lookup 0 subtable" dx=7 dy=0 dh=14 dv=0
EndChar

StartChar: x
Encoding: 120 120 116
Width: 561
Flags: W
HStem: 0 36<10 92.4472 175.713 205 328 365.22 460.655 550> 395 36<15 102.488 199.605 236 336 365.391 448.742 531>
AnchorPoint: "hook" 443 7 basechar 0
AnchorPoint: "overlap" 287 323 basechar 0
AnchorPoint: "below" 270 -18 basechar 0
AnchorPoint: "bottom" 438 7 basechar 0
AnchorPoint: "top" 292 505 basechar 0
LayerCount: 2
Fore
SplineSet
435 3 m 2
 328 0 l 1
 328 36 l 1
 358 37 366 51 366 58 c 0
 366 64 348 84 344 89 c 2
 266 185 l 1
 235 151 212 126 197 106 c 0
 181 87 174 74 174 64 c 0
 174 51 180 39 205 36 c 1
 205 0 l 1
 101 3 l 2
 73 4 40 2 10 0 c 1
 10 36 l 1
 35 36 96 38 146 95 c 0
 195 150 196 153 244 210 c 1
 141 336 l 2
 92 394 91 395 15 395 c 1
 15 431 l 1
 47 429 96 427 119 428 c 2
 236 431 l 1
 236 395 l 1
 212 394 199 385 199 373 c 0
 199 368 199 367 208 357 c 2
 288 260 l 1
 352 334 l 2
 357 340 367 352 367 367 c 0
 367 381 359 393 336 395 c 1
 336 431 l 1
 353 430 409 428 441 428 c 0
 468 428 500 429 531 431 c 1
 531 395 l 1
 479 394 437 379 404 344 c 0
 380 319 340 272 308 235 c 1
 449 66 l 2
 472 38 490 36 550 36 c 1
 550 0 l 1
 515 2 464 4 435 3 c 2
EndSplineSet
Substitution2: "'smcp' Lowercase to Small Capitals lookup 14 subtable" X.sc
EndChar

StartChar: Y
Encoding: 89 89 117
Width: 796
Flags: W
HStem: 0 37<238 344.924 448.114 554> 646 37<8 113.183 235.26 310 553 608.033 697.389 785>
VStem: 348 97<41.7461 273>
AnchorPoint: "overlap" 407 323 basechar 0
AnchorPoint: "below" 399 -20 basechar 0
AnchorPoint: "top" 439 749 basechar 0
LayerCount: 2
Fore
SplineSet
649 583 m 2
 445 273 l 1
 445 82 l 2
 445 46 446 37 527 37 c 2
 554 37 l 1
 554 0 l 1
 513 3 438 3 396 3 c 0
 355 3 280 3 238 0 c 1
 238 37 l 1
 267 37 l 2
 345 37 348 46 348 80 c 2
 348 273 l 1
 126 611 l 2
 109 636 102 646 31 646 c 2
 8 646 l 1
 8 683 l 1
 150 680 l 2
 191 679 268 680 310 683 c 1
 310 646 l 1
 257 646 235 642 235 625 c 0
 235 620 235 620 242 609 c 2
 431 321 l 1
 604 582 l 2
 608 588 614 601 614 611 c 0
 614 628 599 646 553 646 c 1
 553 683 l 1
 678 680 l 2
 707 679 749 681 785 683 c 1
 785 646 l 1
 749 646 688 642 649 583 c 2
EndSplineSet
Position2: "'cpsp' Capital Spacing lookup 0 subtable" dx=7 dy=0 dh=14 dv=0
EndChar

StartChar: y
Encoding: 121 121 118
Width: 561
Flags: W
HStem: -205 28<76.3077 163.201> 394 37<17 95.2643 182.432 242 364 407.52 477.391 542>
VStem: 17 95<-158.054 -82.8555>
AnchorPoint: "overlap" 297 323 basechar 0
AnchorPoint: "below" 395 -173 basechar 0
AnchorPoint: "top" 309 505 basechar 0
LayerCount: 2
Fore
SplineSet
443 333 m 2
 256 -90 l 2
 231 -147 187 -205 118 -205 c 0
 63 -205 17 -168 17 -122 c 0
 17 -90 42 -76 65 -76 c 0
 91 -76 112 -93 112 -121 c 0
 112 -137 104 -158 75 -164 c 1
 93 -177 113 -177 118 -177 c 0
 185 -177 214 -104 236 -56 c 2
 262 1 l 1
 103 362 l 2
 89 394 71 394 17 394 c 1
 17 431 l 1
 52 429 94 427 123 428 c 2
 242 431 l 1
 242 394 l 1
 220 394 182 396 182 372 c 0
 182 367 187 359 188 355 c 2
 303 95 l 1
 407 332 l 2
 411 341 413 345 413 355 c 0
 413 378 398 393 364 394 c 1
 364 431 l 1
 459 428 l 2
 483 427 514 429 542 431 c 1
 542 394 l 1
 522 394 470 393 443 333 c 2
EndSplineSet
Substitution2: "'smcp' Lowercase to Small Capitals lookup 14 subtable" Y.sc
EndChar

StartChar: Z
Encoding: 90 90 119
Width: 649
Flags: W
HStem: 0 40<174 462.644> 646 37<198.732 473>
VStem: 70 33<454 544.914> 564 33<165.611 271>
AnchorPoint: "overlap" 311 323 basechar 0
AnchorPoint: "below" 338 -24 basechar 0
AnchorPoint: "top" 349 749 basechar 0
LayerCount: 2
Fore
SplineSet
579 0 m 1
 87 0 l 2
 62 0 56 1 56 20 c 0
 56 28 56 30 64 41 c 2
 473 646 l 1
 313 646 l 2
 141 646 110 568 103 454 c 1
 70 454 l 1
 82 683 l 1
 560 683 l 2
 584 683 590 682 590 664 c 0
 590 656 590 655 583 644 c 2
 174 40 l 1
 342 40 l 2
 536 40 555 130 564 271 c 1
 597 271 l 1
 579 0 l 1
EndSplineSet
Position2: "'cpsp' Capital Spacing lookup 0 subtable" dx=7 dy=0 dh=14 dv=0
EndChar

StartChar: z
Encoding: 122 122 120
Width: 472
Flags: W
HStem: 0 31<125 333.509> 403 28<126.51 329>
VStem: 41 33<266 351.937> 396 33<120 190>
AnchorPoint: "hook" 360 11 basechar 0
AnchorPoint: "overlap" 247 323 basechar 0
AnchorPoint: "below" 238 -24 basechar 0
AnchorPoint: "top" 252 505 basechar 0
LayerCount: 2
Fore
SplineSet
410 0 m 1
 57 0 l 2
 34 0 26 1 26 17 c 0
 26 23 28 25 37 36 c 2
 329 403 l 1
 214 403 l 2
 100 403 80 369 74 266 c 1
 41 266 l 1
 53 431 l 1
 395 431 l 2
 417 431 426 430 426 415 c 0
 426 410 425 408 416 397 c 2
 125 31 l 1
 244 31 l 2
 364 31 386 72 396 190 c 1
 429 190 l 1
 410 0 l 1
EndSplineSet
Substitution2: "'smcp' Lowercase to Small Capitals lookup 14 subtable" Z.sc
EndChar

StartChar: zero
Encoding: 48 48 121
Width: 531
Flags: W
HStem: -22 28<211.46 317.801> 638 28<208.799 318.426>
VStem: 38 94<142.964 498.764> 396 95<142.057 500.07>
LayerCount: 2
Fore
SplineSet
451 95 m 0
 404 -1 322 -22 264 -22 c 0
 211 -22 133 -2 86 80 c 0
 43 156 38 246 38 320 c 0
 38 399 44 477 78 546 c 0
 123 639 200 666 265 666 c 0
 310 666 399 650 448 553 c 0
 486 479 491 399 491 320 c 0
 491 242 485 164 451 95 c 0
395 431 m 0
 394 465 391 497 386 525 c 0
 367 621 298 638 264 638 c 0
 238 638 160 630 141 514 c 0
 132 461 132 395 132 332 c 0
 132 303 132 265 134 228 c 0
 135 190 138 153 144 123 c 0
 163 29 224 6 264 6 c 0
 310 6 369 34 385 127 c 0
 396 191 396 258 396 332 c 0
 396 363 397 398 395 431 c 0
EndSplineSet
Substitution2: "'zero' Slashed Zero lookup 14 subtable" zero.slash
Substitution2: "'pnum' Proportional Numbers lookup 6 subtable" zero.prop
Substitution2: "'onum' Oldstyle Figures lookup 4 subtable" zero.oldstyle
AlternateSubs2: "'aalt' Access All Alternates lookup 1 subtable" zero.oldstyle zero.prop zero.slash
EndChar

StartChar: f_f
Encoding: 64256 64256 122
Width: 620
Flags: W
HStem: 0 37<30 110.796 191.078 272 322 402.922 483.985 584> 397 36<29 113 189 405 481 603> 677 28<270.13 409.664 530.879 599.478>
VStem: 113 76<39.7489 397 433 614.719> 405 76<41.2297 397 433 575.44> 574 98<592.794 670.418>
LayerCount: 2
Fore
SplineSet
622 586 m 4
 592 586 574 607 574 632 c 4
 574 654 588 667 600 673 c 5
 588 677 576 677 574 677 c 4
 528 677 478 633 478 545 c 6
 478 433 l 5
 603 433 l 5
 603 397 l 5
 481 397 l 5
 481 80 l 6
 481 46 484 37 559 37 c 6
 584 37 l 5
 584 0 l 5
 495 6 412 2 322 0 c 5
 322 37 l 5
 397 37 405 37 405 78 c 6
 405 397 l 5
 189 397 l 5
 189 78 l 6
 189 37 197 37 272 37 c 5
 272 0 l 5
 151 3 l 5
 30 0 l 5
 30 37 l 5
 104 37 113 37 113 78 c 6
 113 397 l 5
 29 397 l 5
 29 433 l 5
 113 433 l 5
 113 543 l 6
 113 653 238 705 339 705 c 4
 367 705 426 700 459 665 c 5
 490 689 531 705 573 705 c 4
 633 705 672 670 672 633 c 4
 672 607 655 586 622 586 c 4
338 677 m 4
 270 677 186 636 186 542 c 6
 186 433 l 5
 405 433 l 5
 405 544 l 6
 405 556 405 564 408 576 c 5
 380 586 379 612 379 618 c 4
 379 643 395 657 412 662 c 5
 400 668 375 677 338 677 c 4
EndSplineSet
Substitution2: "'smcp' Lowercase to Small Capitals lookup 14 subtable" FF.sc
Ligature2: "'liga' Standard Ligatures lookup 9 subtable" f f
LCarets2: 1 0
EndChar

StartChar: f_f_i
Encoding: 64259 64259 123
Width: 885
Flags: W
HStem: 0 37<30 109.935 191.065 271 323 403.922 484.078 565 617 696.935 778.065 858> 397 36<29 112 189 406 482 693.587> 426 20G<746.5 776> 677 28<271.102 400.908 565.308 696.012>
VStem: 112 77<39.7489 397 433 613.34> 406 76<39.7489 397 433 571.374> 671 103<561.927 641.463> 699 77<39.7489 393.435>
LayerCount: 2
Fore
SplineSet
738 3 m 1xbd
 617 0 l 1
 617 37 l 1
 691 37 699 37 699 78 c 2
 699 346 l 2xbd
 699 385 693 397 646 397 c 2
 482 397 l 1
 482 78 l 2
 482 37 490 37 565 37 c 1
 565 0 l 1
 444 3 l 1
 323 0 l 1
 323 37 l 1
 398 37 406 37 406 78 c 2
 406 397 l 1
 189 397 l 1
 189 78 l 2
 189 37 197 37 271 37 c 1
 271 0 l 1
 150 3 l 1
 30 0 l 1
 30 37 l 1
 104 37 112 37 112 78 c 2
 112 397 l 1
 29 397 l 1
 29 433 l 1
 112 433 l 1
 112 543 l 2
 112 654 239 705 339 705 c 0
 392 705 436 686 462 652 c 1
 484 668 544 705 634 705 c 0
 713 705 774 663 774 602 c 0
 774 570 748 553 722 553 c 0
 700 553 671 567 671 602 c 0
 671 618 677 645 717 650 c 1
 696 669 662 677 633 677 c 0
 568 677 479 638 479 542 c 2
 479 433 l 1
 601 433 l 2xde
 659 433 717 436 776 446 c 1
 776 78 l 2
 776 37 784 37 858 37 c 1
 858 0 l 1
 738 3 l 1xbd
337 677 m 0
 275 677 185 639 185 542 c 2
 185 433 l 1
 406 433 l 1xdc
 406 557 l 1
 387 563 374 580 374 602 c 0
 374 622 383 646 421 650 c 1
 394 673 361 677 337 677 c 0
EndSplineSet
LCarets2: 2 0 0
Substitution2: "'smcp' Lowercase to Small Capitals lookup 14 subtable" FFI.sc
Ligature2: "'liga' Standard Ligatures lookup 9 subtable" f f i
EndChar

StartChar: f_f_l
Encoding: 64260 64260 124
Width: 885
Flags: W
HStem: 0 33<35 106.781 188.219 260 330 401.781 483.219 555 624 695.781 777.219 849> 398 33<29 111 184 406 479 700> 674 20G<733 773> 676 28<268.32 408.866 562.293 696.331>
VStem: 111 73<36.0171 398 431 614.082> 406 73<36.0171 398 431 576.391> 678 95<592.054 668.575> 700 73<36.0171 398 431 630.655>
LayerCount: 2
Fore
SplineSet
849 0 m 1xed
 810 3 756 3 736 3 c 0
 719 3 663 3 624 0 c 1
 624 33 l 1
 688 33 700 33 700 78 c 2
 700 398 l 1
 479 398 l 1
 479 78 l 2
 479 33 491 33 555 33 c 1
 555 0 l 1
 516 3 462 3 442 3 c 0
 425 3 369 3 330 0 c 1
 330 33 l 1
 394 33 406 33 406 78 c 2
 406 398 l 1
 184 398 l 1
 184 78 l 2
 184 33 196 33 260 33 c 1
 260 0 l 1
 221 3 167 3 147 3 c 0
 130 3 74 3 35 0 c 1
 35 33 l 1
 99 33 111 33 111 78 c 2
 111 398 l 1
 29 398 l 1
 29 431 l 1
 111 431 l 1
 111 541 l 2
 111 654 238 704 338 704 c 0
 385 704 438 694 465 653 c 1
 514 690 576 704 635 704 c 0xdd
 647 704 691 704 724 691 c 0
 728 689 729 688 733 688 c 2
 773 694 l 1
 773 78 l 2
 773 33 785 33 849 33 c 1
 849 0 l 1xed
413 660 m 1
 383 676 345 676 337 676 c 0
 267 676 181 636 181 540 c 2
 181 431 l 1
 406 431 l 1
 406 541 l 2
 406 551 406 564 410 577 c 1
 387 588 384 605 384 618 c 0
 384 635 390 651 413 660 c 1
700 431 m 1
 700 592 l 2xdd
 698 593 678 603 678 632 c 0xde
 678 647 683 660 697 669 c 1
 686 672 670 676 634 676 c 0
 554 676 476 631 476 540 c 2
 476 431 l 1
 700 431 l 1
EndSplineSet
Substitution2: "'smcp' Lowercase to Small Capitals lookup 14 subtable" FFL.sc
Ligature2: "'liga' Standard Ligatures lookup 9 subtable" f f l
LCarets2: 2 0 0
EndChar

StartChar: f_i
Encoding: 64257 64257 125
Width: 590
Flags: W
HStem: 0 37<30 110.796 191.078 272 323 403.922 484.204 565> 397 36<29 113 189 400.438> 426 20G<453 482> 677 28<272.432 402.719>
VStem: 113 76<39.7489 397 433 612.9> 378 102<561.927 641.463> 406 76<39.7489 393.435>
LayerCount: 2
Fore
SplineSet
444 3 m 1xba
 323 0 l 1
 323 37 l 1
 398 37 406 37 406 78 c 2
 406 346 l 2xba
 406 385 400 397 353 397 c 2
 189 397 l 1
 189 78 l 2
 189 37 197 37 272 37 c 1
 272 0 l 1
 151 3 l 1
 30 0 l 1
 30 37 l 1
 104 37 113 37 113 78 c 2
 113 397 l 1
 29 397 l 1
 29 433 l 1
 113 433 l 1
 113 543 l 2
 113 654 242 705 340 705 c 0
 420 705 480 663 480 602 c 0
 480 570 454 553 428 553 c 0
 407 553 378 567 378 602 c 0
 378 618 384 645 424 650 c 1
 403 669 369 677 339 677 c 0
 275 677 186 638 186 542 c 2
 186 433 l 1
 308 433 l 2xdc
 366 433 424 436 482 446 c 1
 482 78 l 2
 482 37 491 37 565 37 c 1
 565 0 l 1
 444 3 l 1xba
EndSplineSet
LCarets2: 1 0
Substitution2: "'smcp' Lowercase to Small Capitals lookup 14 subtable" FI.sc
Ligature2: "'liga' Standard Ligatures lookup 9 subtable" f i
EndChar

StartChar: f_l
Encoding: 64258 64258 126
Width: 590
Flags: W
HStem: 0 37<30 110.796 191.078 272 323 403.922 484.204 565> 397 36<29 113 189 406> 675 20G<441 482> 677 28<270.596 400.043>
VStem: 113 76<39.7489 397 433 613.031> 380 102<592.802 669.76> 406 76<39.7489 397 433 611.522>
LayerCount: 2
Fore
SplineSet
444 3 m 1xea
 323 0 l 1
 323 37 l 1
 398 37 406 37 406 78 c 2
 406 397 l 1
 189 397 l 1
 189 78 l 2
 189 37 197 37 272 37 c 1
 272 0 l 1
 151 3 l 1
 30 0 l 1
 30 37 l 1
 104 37 113 37 113 78 c 2
 113 397 l 1
 29 397 l 1
 29 433 l 1
 113 433 l 1
 113 543 l 2
 113 649 231 705 343 705 c 0xda
 372 705 406 702 433 691 c 0
 436 690 438 688 441 688 c 2
 482 695 l 1
 482 78 l 2
 482 37 491 37 565 37 c 1
 565 0 l 1
 444 3 l 1xea
406 591 m 1
 388 598 380 614 380 632 c 0xdc
 380 653 391 665 401 670 c 1
 375 677 350 677 342 677 c 0
 264 677 186 632 186 542 c 2
 186 433 l 1
 406 433 l 1
 406 591 l 1
EndSplineSet
LCarets2: 1 0
Substitution2: "'smcp' Lowercase to Small Capitals lookup 14 subtable" FL.sc
Ligature2: "'liga' Standard Ligatures lookup 9 subtable" f l
EndChar

StartChar: Acaron
Encoding: 461 461 141
Width: 796
Flags: W
HStem: 0 37<31 113.503 202.367 267 465 551.063 664.089 763> 226 37<251 481> 797 133
VStem: 244 302
AnchorPoint: "bottom" 628 7 basechar 0
AnchorPoint: "below" 378 -20 basechar 0
AnchorPoint: "top" 391 931 basechar 0
LayerCount: 2
Fore
SplineSet
621 3 m 1030
EndSplineSet
Refer: 672 59921 N 1 0 0 1 129 316 2
Refer: 27 65 N 1 0 0 1 0 0 3
EndChar

StartChar: acute
Encoding: 180 180 155
Width: 531
Flags: W
HStem: 509 189
VStem: 195 205
LayerCount: 2
Fore
SplineSet
380 629 m 2
 217 509 l 1
 195 530 l 1
 324 680 l 2
 329 686 341 698 358 698 c 0
 379 698 400 679 400 660 c 0
 400 647 390 636 380 629 c 2
EndSplineSet
EndChar

StartChar: uni0301
Encoding: 769 769 156
Width: 0
Flags: W
HStem: 507 191
VStem: -331 198
AnchorPoint: "Hebrew-3" -238 468 mark 0
AnchorPoint: "mkmk" -239 704 basemark 0
AnchorPoint: "mkmk" -244 507 mark 0
AnchorPoint: "top" -246 507 mark 0
LayerCount: 2
Fore
SplineSet
-133 658 m 0
 -133 642 -142 633 -153 625 c 2
 -310 507 l 1
 -331 530 l 1
 -203 682 l 2
 -190 698 -176 698 -172 698 c 0
 -154 698 -133 681 -133 658 c 0
EndSplineSet
EndChar

StartChar: Adblgrave
Encoding: 512 512 157
Width: 796
Flags: W
HStem: 0 37<31 113.503 202.367 267 465 551.063 664.089 763> 226 37<251 481> 751 189
VStem: 230 78<908 934.715> 407 78<908 934.715>
AnchorPoint: "bottom" 628 7 basechar 0
AnchorPoint: "below" 378 -20 basechar 0
AnchorPoint: "top" 391 961 basechar 0
LayerCount: 2
Fore
SplineSet
621 3 m 1030
EndSplineSet
Refer: 687 59943 N 1 0 0 1 675 -10 2
Refer: 27 65 N 1 0 0 1 0 0 3
Position2: "'cpsp' Capital Spacing lookup 0 subtable" dx=7 dy=0 dh=14 dv=0
EndChar

StartChar: AE
Encoding: 198 198 163
Width: 959
Flags: W
HStem: 0 37<31 113.875 202.961 267 356 435.935 532.906 795.498> 310 37<286 438 532 700.711> 646 37<270 359 532.906 787.065>
VStem: 438 94<39.7489 310 347 639.182> 725 33<194 282.507 374.493 463>
AnchorPoint: "below" 602 -25 basechar 0
AnchorPoint: "top" 589 749 basechar 0
LayerCount: 2
Fore
SplineSet
885 0 m 1
 356 0 l 1
 356 37 l 1
 430 37 438 37 438 78 c 2
 438 310 l 1
 273 310 l 1
 194 104 l 2
 191 96 189 92 189 83 c 0
 189 61 212 38 267 37 c 1
 267 0 l 1
 142 3 l 2
 100 4 57 1 31 0 c 1
 31 37 l 1
 107 37 136 64 151 101 c 2
 359 645 l 1
 347 646 333 646 321 646 c 2
 270 646 l 1
 270 683 l 1
 870 683 l 1
 900 454 l 1
 867 454 l 1
 850 591 830 646 682 646 c 2
 581 646 l 2
 533 646 532 640 532 610 c 2
 532 347 l 1
 619 347 l 2
 716 347 725 377 725 463 c 1
 758 463 l 1
 758 194 l 1
 725 194 l 1
 725 280 716 310 619 310 c 2
 532 310 l 1
 532 73 l 2
 532 43 533 37 581 37 c 2
 682 37 l 2
 770 37 817 56 845 93 c 0
 859 111 869 135 877 162 c 0
 884 190 890 223 897 262 c 1
 930 262 l 1
 885 0 l 1
438 602 m 2
 438 616 438 640 400 642 c 1
 286 347 l 1
 438 347 l 1
 438 602 l 2
EndSplineSet
Position2: "'cpsp' Capital Spacing lookup 0 subtable" dx=7 dy=0 dh=14 dv=0
EndChar

StartChar: ae
Encoding: 230 230 164
Width: 767
Flags: W
HStem: -11 31<163.38 291.91 514.697 635.755> 228 27<260.607 342 423 661> 420 28<165.765 283.923 506.214 604.306>
VStem: 45 87<43.7076 152.978> 72 104<292.121 371.878> 342 81<107.758 226 255 339.422> 661 77<255 351.969> 702 36<78.2188 129.81>
AnchorPoint: "below" 394 -19 basechar 0
AnchorPoint: "top" 385 505 basechar 0
LayerCount: 2
Fore
SplineSet
570 -11 m 0xed
 538 -11 457 -3 394 74 c 1
 366 27 301 -11 216 -11 c 0
 146 -11 45 13 45 94 c 0xf5
 45 191 172 252 342 253 c 1
 342 297 l 2
 342 381 285 420 233 420 c 0
 197 420 152 408 125 381 c 1
 171 377 176 344 176 333 c 0
 176 305 156 284 124 284 c 0
 95 284 72 302 72 333 c 0
 72 402 150 448 235 448 c 0
 302 448 366 420 398 374 c 1
 452 432 511 448 558 448 c 0
 675 448 738 362 738 252 c 0
 738 228 732 228 708 228 c 2
 422 228 l 1
 423 20 564 20 575 20 c 0
 638 20 686 65 702 113 c 0
 703 118 706 126 709 130 c 0
 712 134 715 135 721 135 c 0
 727 135 738 133 738 120 c 0
 738 100 692 -11 570 -11 c 0xed
658 294 m 0
 651 347 630 420 556 420 c 0
 520 420 435 394 423 255 c 1
 661 255 l 1xe6
 661 264 660 278 658 294 c 0
355 141 m 0
 354 144 354 149 352 154 c 0
 343 184 342 203 342 226 c 1
 175 219 132 145 132 94 c 0xf4
 132 49 173 17 222 17 c 0
 296 17 355 72 355 133 c 0
 355 135 355 137 355 141 c 0
EndSplineSet
Substitution2: "'smcp' Lowercase to Small Capitals lookup 14 subtable" AE.sc
EndChar

StartChar: Alpha
Encoding: 913 913 171
Width: 796
Flags: W
HStem: 0 33<36 107.15 196.315 250 485 560.017 670.11 759> 229 33<244 491>
LayerCount: 2
Fore
SplineSet
759 0 m 1
 701 3 683 3 627 3 c 2
 485 0 l 1
 485 33 l 1
 513 33 565 33 565 63 c 1
 565 63 565 69 560 81 c 2
 504 229 l 1
 232 229 l 1
 185 104 l 2
 180 92 180 90 180 83 c 0
 180 54 206 34 250 33 c 1
 250 0 l 1
 201 3 171 3 139 3 c 0
 121 3 68 3 36 0 c 1
 36 33 l 1
 118 33 139 76 149 103 c 2
 372 692 l 2
 377 706 380 714 398 714 c 0
 415 714 418 705 423 692 c 2
 657 74 l 2
 669 42 679 33 742 33 c 2
 759 33 l 1
 759 0 l 1
491 262 m 1
 368 589 l 1
 244 262 l 1
 491 262 l 1
EndSplineSet
EndChar

StartChar: anglearc
Encoding: 8738 8738 174
Width: 826
Flags: W
VStem: 589 46<108.981 391.019>
LayerCount: 2
Fore
SplineSet
766 23 m 0
 766 7 750 -4 736 1 c 2
 597 49 l 1
 577 -3 549 -51 514 -95 c 0
 510 -101 503 -104 496 -104 c 0
 483 -104 473 -94 473 -81 c 0
 473 -76 475 -71 478 -67 c 0
 510 -27 535 17 554 64 c 1
 75 228 l 2
 65 231 59 240 59 250 c 0
 59 260 65 269 75 272 c 2
 554 436 l 1
 535 483 510 527 478 567 c 0
 475 571 473 576 473 581 c 0
 473 594 483 604 496 604 c 0
 503 604 510 601 514 595 c 0
 549 551 577 503 597 451 c 1
 736 499 l 2
 750 504 766 493 766 477 c 0
 766 467 760 458 750 455 c 2
 612 408 l 1
 627 357 635 304 635 250 c 0
 635 196 627 143 612 92 c 1
 750 45 l 2
 760 42 766 33 766 23 c 0
589 250 m 0
 589 299 582 347 568 393 c 1
 153 250 l 1
 568 107 l 1
 582 153 589 201 589 250 c 0
EndSplineSet
EndChar

StartChar: angleleft
Encoding: 9001 9001 175
Width: 413
Flags: W
VStem: 117 49<193.637 307.531> 305 48<727 749.9>
LayerCount: 2
Fore
SplineSet
353 -227 m 0
 353 -237 343 -249 331 -249 c 0
 316 -249 309 -236 304 -224 c 2
 294 -199 l 1
 147 170 l 2
 137 196 117 231 117 251 c 0
 117 262 124 274 128 284 c 2
 153 347 l 1
 240 566 l 1
 296 705 l 1
 305 727 l 2
 309 737 313 748 325 750 c 2
 330 751 l 2
 343 751 353 740 353 727 c 0
 353 711 339 689 333 674 c 2
 178 283 l 1
 170 263 l 2
 168 259 166 255 166 251 c 0
 166 243 172 233 175 226 c 2
 339 -187 l 2
 344 -198 353 -214 353 -227 c 0
EndSplineSet
EndChar

StartChar: angleright
Encoding: 9002 9002 176
Width: 413
Flags: W
VStem: 60 55<-245.765 -205 715 748.268> 246 49<194.156 307.555>
LayerCount: 2
Fore
SplineSet
295 251 m 0
 295 240 288 229 284 219 c 2
 115 -205 l 2
 109 -220 104 -247 84 -249 c 2
 82 -249 l 2
 67 -249 60 -238 60 -225 c 0
 60 -208 74 -184 81 -167 c 2
 235 220 l 1
 242 239 l 2
 244 243 246 247 246 251 c 0
 246 260 239 270 236 278 c 0
 229 297 221 315 214 334 c 2
 136 529 l 1
 71 694 l 2
 67 704 59 717 59 729 c 0
 59 737 66 750 77 750 c 2
 83 751 l 2
 101 751 107 730 112 715 c 2
 117 703 l 1
 285 281 l 2
 289 272 295 261 295 251 c 0
EndSplineSet
EndChar

StartChar: Aringacute
Encoding: 506 506 181
Width: 796
Flags: W
HStem: 0 37<31 113.503 202.367 267 465 551.063 664.089 763> 226 37<251 481> 795 35<346.596 454.878> 936 35<347.122 455.404> 1029.78 169.935
VStem: 296 39<840.5 924.512> 342.873 213.888 467 39<841.488 925.5>
AnchorPoint: "bottom" 628 7 basechar 0
AnchorPoint: "below" 378 -20 basechar 0
AnchorPoint: "top" 409 1201 basechar 0
LayerCount: 2
Fore
SplineSet
621 3 m 1030xfc
EndSplineSet
Refer: 656 59905 N 1 0 0 1 683 258 2
Refer: 179 197 N 1 0 0 1 0 0 3
Position2: "'cpsp' Capital Spacing lookup 0 subtable" dx=7 dy=0 dh=14 dv=0
EndChar

StartChar: uni2193
Encoding: 8595 8595 183
Width: 531
Flags: W
HStem: 33 45<29 91.4617 439.545 502>
VStem: 243 45<-59 688.15>
LayerCount: 2
Fore
SplineSet
502 33 m 1
 386 9 294 -80 266 -194 c 1
 237 -80 145 9 29 33 c 1
 29 78 l 1
 116 60 192 10 243 -59 c 1
 243 672 l 2
 243 702 288 702 288 672 c 2
 288 -59 l 1
 339 10 415 60 502 78 c 1
 502 33 l 1
EndSplineSet
EndChar

StartChar: uni2190
Encoding: 8592 8592 184
Width: 1062
Flags: W
HStem: 228 46<184 1001.95>
VStem: 269 49<1 71.5279>
LayerCount: 2
Fore
SplineSet
1002 251 m 0
 1002 230 984 228 970 228 c 2
 184 228 l 1
 257 165 300 90 318 1 c 1
 281 1 l 2
 271 1 271 6 269 15 c 0
 242 105 195 178 114 225 c 0
 97 235 77 241 60 251 c 1
 67 255 75 258 83 261 c 0
 167 299 231 370 260 457 c 0
 267 474 267 501 281 501 c 2
 318 501 l 1
 300 412 257 337 184 274 c 1
 970 274 l 2
 985 274 1002 271 1002 251 c 0
EndSplineSet
EndChar

StartChar: uni2192
Encoding: 8594 8594 185
Width: 1062
Flags: W
HStem: 228 46<59.0521 877>
VStem: 743 49<431.284 501>
LayerCount: 2
Fore
SplineSet
1001 251 m 1
 994 247 986 244 978 241 c 0
 894 203 830 132 801 45 c 0
 794 28 794 1 780 1 c 2
 743 1 l 1
 761 90 804 165 877 228 c 1
 91 228 l 2
 77 228 59 230 59 251 c 0
 59 271 76 274 91 274 c 2
 877 274 l 1
 804 337 761 412 743 501 c 1
 780 501 l 2
 790 501 790 496 792 487 c 0
 818 399 866 324 946 278 c 0
 963 268 984 261 1001 251 c 1
EndSplineSet
EndChar

StartChar: uni2191
Encoding: 8593 8593 186
Width: 531
Flags: W
HStem: 422 45<29 91.4617 439.545 502> 674 20G<251.5 280>
VStem: 243 45<-188.15 559>
LayerCount: 2
Fore
SplineSet
502 422 m 1
 415 440 339 490 288 559 c 1
 288 -172 l 2
 288 -202 243 -202 243 -172 c 2
 243 559 l 1
 192 490 116 440 29 422 c 1
 29 467 l 1
 145 491 237 580 266 694 c 1
 294 580 386 491 502 467 c 1
 502 422 l 1
EndSplineSet
EndChar

StartChar: asterisk.math
Encoding: 8727 8727 187
Width: 531
Flags: W
HStem: 127 82<88.8219 140 390 441.178> 293 82<88.8219 140 390 441.178>
VStem: 235 60<37.1206 132.333 242.479 259.521 369.667 464.796>
LayerCount: 2
Fore
SplineSet
460 161 m 0
 460 146 447 127 430 127 c 0
 414 127 401 141 389 149 c 2
 280 225 l 1
 291 111 l 2
 293 95 296 79 296 63 c 0
 294 47 280 36 265 36 c 0
 243 36 235 52 235 68 c 0
 235 74 236 80 236 86 c 2
 250 225 l 1
 141 149 l 2
 129 141 116 127 100 127 c 0
 83 127 70 146 70 161 c 0
 70 187 113 198 140 209 c 2
 199 236 l 2
 210 241 221 246 233 250 c 1
 233 252 l 1
 221 256 210 261 199 266 c 2
 140 293 l 2
 118 302 70 314 70 341 c 0
 70 356 83 375 100 375 c 0
 116 375 129 361 141 353 c 2
 250 277 l 1
 240 382 l 2
 237 399 235 417 235 434 c 2
 235 440 l 2
 236 456 251 466 265 466 c 0
 287 466 295 450 295 434 c 0
 295 428 294 422 294 416 c 2
 280 277 l 1
 389 353 l 2
 401 361 414 375 430 375 c 0
 447 375 460 356 460 341 c 0
 460 315 417 304 390 293 c 2
 331 266 l 2
 320 261 309 256 297 252 c 1
 297 250 l 1
 309 246 320 241 331 236 c 2
 390 209 l 2
 412 200 460 188 460 161 c 0
EndSplineSet
EndChar

StartChar: baht
Encoding: 3647 3647 190
Width: 752
Flags: W
HStem: 0 33<48 143.733 235.868 352 384 499.045> 341 28<234 352 384 466.281> 650 33<48 143.733 235.868 352 384 488.07>
VStem: 149 85<38.2392 341 369 644.761> 352 32<-47.9949 0 33 341 369 650 683 730.995> 565 97<446.722 582.323> 591 101<110.1 255.924>
CounterMasks: 1 e0
LayerCount: 2
Fore
SplineSet
692 183 m 0xfa
 692 88 594 0 456 0 c 2
 384 0 l 1
 384 -32 l 2
 384 -41 377 -48 368 -48 c 0
 359 -48 352 -41 352 -32 c 2
 352 0 l 1
 48 0 l 1
 48 33 l 1
 70 33 l 2
 147 33 149 44 149 81 c 2
 149 602 l 2
 149 639 147 650 70 650 c 2
 48 650 l 1
 48 683 l 1
 352 683 l 1
 352 715 l 2
 352 724 359 731 368 731 c 0
 377 731 384 724 384 715 c 2
 384 683 l 1
 428 683 l 2
 562 683 662 603 662 514 c 0xfc
 662 446 599 380 490 357 c 1
 615 343 692 264 692 183 c 0xfa
565 514 m 0
 565 573 520 650 421 650 c 2
 384 650 l 1
 384 369 l 1
 391 369 l 2
 505 369 565 446 565 514 c 0
352 369 m 1
 352 650 l 1
 282 650 l 2
 236 650 234 643 234 609 c 2
 234 369 l 1
 352 369 l 1
591 184 m 0xfa
 591 263 534 341 437 341 c 2
 384 341 l 1
 384 33 l 1
 422 33 l 2
 524 33 591 103 591 184 c 0xfa
352 33 m 1
 352 341 l 1
 234 341 l 1
 234 74 l 2
 234 40 236 33 282 33 c 2
 352 33 l 1
EndSplineSet
EndChar

StartChar: Beta
Encoding: 914 914 191
Width: 752
Flags: W
HStem: 0 33<48 143.733 235.868 499.045> 341 28<234 466.281> 650 33<48 143.733 235.868 488.07>
VStem: 149 85<38.2392 341 369 644.761> 565 97<446.722 582.323> 591 101<110.1 255.924>
LayerCount: 2
Fore
SplineSet
692 183 m 0xf4
 692 88 594 0 456 0 c 2
 48 0 l 1
 48 33 l 1
 70 33 l 2
 147 33 149 44 149 81 c 2
 149 602 l 2
 149 639 147 650 70 650 c 2
 48 650 l 1
 48 683 l 1
 428 683 l 2
 562 683 662 603 662 514 c 0xf8
 662 446 599 380 490 357 c 1
 615 343 692 264 692 183 c 0xf4
565 514 m 0
 565 573 520 650 421 650 c 2
 282 650 l 2
 236 650 234 643 234 609 c 2
 234 369 l 1
 391 369 l 2
 505 369 565 446 565 514 c 0
591 184 m 0xf4
 591 263 534 341 437 341 c 2
 234 341 l 1
 234 74 l 2
 234 40 236 33 282 33 c 2
 422 33 l 2
 524 33 591 103 591 184 c 0xf4
EndSplineSet
EndChar

StartChar: blanksymbol
Encoding: 9250 9250 192
Width: 590
Flags: W
HStem: -10 28<254.748 371.505> 0 21G<111 153.613> 413 28<260.728 379.322> 431 21G<46.5 53> 650 33<35 104.238> 674 20G<35 184>
VStem: 111 73<73.121 358.422 380 479 522 544 586 644.709> 465 89<121.973 310.323>
LayerCount: 2
Fore
SplineSet
554 216 m 0x27
 554 88 444 -10 317 -10 c 0xa7
 249 -10 202 28 178 62 c 1
 142 0 l 1
 111 0 l 1
 111 479 l 1
 62 435 l 2
 59 433 55 431 51 431 c 0
 42 431 35 438 35 447 c 0
 35 452 37 456 40 459 c 2
 111 522 l 1
 111 594 l 2
 111 643 103 650 35 650 c 1
 35 683 l 1x5b
 184 694 l 1
 184 586 l 1
 265 658 l 2
 268 661 272 662 276 662 c 0
 285 662 292 655 292 646 c 0
 292 642 290 637 286 634 c 2
 184 544 l 1
 184 380 l 1
 201 398 250 441 329 441 c 0
 451 441 554 342 554 216 c 0x27
465 217 m 0
 465 290 451 325 434 352 c 0
 414 382 375 413 323 413 c 0
 278 413 231 392 202 355 c 0
 187 337 187 335 187 316 c 2
 187 121 l 2
 187 102 187 101 199 82 c 0
 225 43 265 18 313 18 c 0
 346 18 393 31 429 76 c 0
 465 123 465 194 465 217 c 0
EndSplineSet
EndChar

StartChar: breve
Encoding: 728 728 193
Width: 531
Flags: W
HStem: 515 44<195.256 336.744> 671 20G<105 134.5 397.5 427>
VStem: 105 28<635.025 691> 399 28<635.396 691>
LayerCount: 2
Fore
SplineSet
427 691 m 1
 425 585 349 515 266 515 c 0
 183 515 107 584 105 691 c 1
 133 691 l 1
 136 605 204 559 266 559 c 0
 328 559 396 605 399 691 c 1
 427 691 l 1
EndSplineSet
EndChar

StartChar: uni032E
Encoding: 814 814 194
Width: 0
Flags: W
HStem: -232 44<-335.744 -194.256>
VStem: -426 28<-111.975 -56> -132 28<-111.604 -56>
AnchorPoint: "below" -260 -32 mark 0
AnchorPoint: "mkmk" -265 -253 basemark 0
AnchorPoint: "mkmk" -261 -32 mark 0
LayerCount: 2
Fore
SplineSet
-104 -56 m 1
 -106 -162 -182 -232 -265 -232 c 0
 -348 -232 -424 -163 -426 -56 c 1
 -398 -56 l 1
 -395 -142 -327 -188 -265 -188 c 0
 -203 -188 -135 -142 -132 -56 c 1
 -104 -56 l 1
EndSplineSet
EndChar

StartChar: uni032F
Encoding: 815 815 195
Width: 0
Flags: W
HStem: -100 44<-335.744 -194.256>
VStem: -426 28<-232 -176.396> -132 28<-232 -176.025>
AnchorPoint: "below" -264 -32 mark 0
AnchorPoint: "mkmk" -267 -253 basemark 0
AnchorPoint: "mkmk" -265 -32 mark 0
LayerCount: 2
Fore
SplineSet
-104 -232 m 1
 -132 -232 l 1
 -135 -146 -203 -100 -265 -100 c 0
 -327 -100 -395 -146 -398 -232 c 1
 -426 -232 l 1
 -424 -126 -348 -56 -265 -56 c 0
 -182 -56 -106 -125 -104 -232 c 1
EndSplineSet
EndChar

StartChar: uni0306
Encoding: 774 774 196
Width: 0
Flags: W
HStem: 515 44<-335.744 -194.256> 671 20G<-426 -396.5 -133.5 -104>
VStem: -426 28<635.025 691> -132 28<635.396 691>
AnchorPoint: "Hebrew-3" -250 468 mark 0
AnchorPoint: "mkmk" -265 506 mark 0
AnchorPoint: "mkmk" -259 712 basemark 0
AnchorPoint: "top" -258 506 mark 0
LayerCount: 2
Fore
SplineSet
-104 691 m 1
 -106 585 -182 515 -265 515 c 0
 -348 515 -424 584 -426 691 c 1
 -398 691 l 1
 -395 605 -327 559 -265 559 c 0
 -203 559 -135 605 -132 691 c 1
 -104 691 l 1
EndSplineSet
EndChar

StartChar: uni0311
Encoding: 785 785 197
Width: 0
Flags: W
HStem: 647 44<-335.744 -194.256>
VStem: -426 28<515 570.604> -132 28<515 570.975>
AnchorPoint: "mkmk" -270 507 mark 0
AnchorPoint: "mkmk" -265 714 basemark 0
AnchorPoint: "top" -258 506 mark 0
LayerCount: 2
Fore
SplineSet
-104 515 m 1
 -132 515 l 1
 -135 601 -203 647 -265 647 c 0
 -327 647 -395 601 -398 515 c 1
 -426 515 l 1
 -424 621 -348 691 -265 691 c 0
 -182 691 -106 622 -104 515 c 1
EndSplineSet
EndChar

StartChar: brokenbar
Encoding: 166 166 198
Width: 295
Flags: W
VStem: 123 49<-249.871 174.843 325.157 749.871>
LayerCount: 2
Fore
SplineSet
147 325 m 0
 136 325 123 331 123 342 c 2
 123 714 l 2
 123 730 124 750 147 750 c 0
 171 750 172 730 172 714 c 2
 172 342 l 2
 172 331 159 325 147 325 c 0
147 -250 m 0
 124 -250 123 -230 123 -214 c 2
 123 158 l 2
 123 169 136 175 147 175 c 0
 159 175 172 169 172 158 c 2
 172 -214 l 2
 172 -230 171 -250 147 -250 c 0
EndSplineSet
EndChar

StartChar: bullet
Encoding: 8226 8226 199
Width: 826
Flags: W
HStem: 78 294<336.661 489.339>
VStem: 266 294<148.661 301.339>
LayerCount: 2
Fore
SplineSet
560 224 m 0
 560 150 502 78 412 78 c 0
 338 78 266 136 266 226 c 0
 266 300 324 372 414 372 c 0
 488 372 560 314 560 224 c 0
EndSplineSet
EndChar

StartChar: caron
Encoding: 711 711 202
Width: 531
Flags: W
HStem: 515 176
VStem: 114 304
LayerCount: 2
Fore
SplineSet
418 677 m 1
 266 515 l 1
 114 677 l 1
 127 691 l 1
 266 583 l 1
 405 691 l 1
 418 677 l 1
EndSplineSet
EndChar

StartChar: uni030C
Encoding: 780 780 203
Width: 0
Flags: W
HStem: 515 176
VStem: -417 304
AnchorPoint: "Hebrew-3" -250 468 mark 0
AnchorPoint: "mkmk" -277 506 mark 0
AnchorPoint: "mkmk" -261 713 basemark 0
AnchorPoint: "top" -258 506 mark 0
LayerCount: 2
Fore
SplineSet
-113 677 m 5
 -265 515 l 5
 -417 677 l 5
 -404 691 l 5
 -265 583 l 5
 -126 691 l 5
 -113 677 l 5
EndSplineSet
EndChar

StartChar: cedilla
Encoding: 184 184 212
Width: 472
Flags: W
HStem: -200 31<91 265.345>
VStem: 205 61<-64 5> 285 96<-154.348 -104.334>
AnchorPoint: "bottom" 236 4 mark 0
LayerCount: 2
Fore
SplineSet
122 -200 m 2
 91 -200 l 1
 91 -169 l 1
 108 -169 l 2
 191 -169 285 -168 285 -132 c 0
 285 -104 248 -95 205 -95 c 1
 205 5 l 1
 266 5 l 1
 266 -64 l 1
 322 -65 381 -84 381 -132 c 0
 381 -198 238 -200 122 -200 c 2
EndSplineSet
EndChar

StartChar: cent
Encoding: 162 162 213
Width: 472
Flags: W
HStem: -10 34<203.442 240 278 351.504> 417 31<208.172 240 278 347.254>
VStem: 33 94<120.551 313.215> 240 38<-44.9942 -9.42308 24 415 447 475.994> 328 103<298.121 377.09> 409 34<85.3365 132.996>
LayerCount: 2
Fore
SplineSet
278 -11 m 1xf4
 278 -27 l 2
 278 -37 270 -45 259 -45 c 0
 248 -45 240 -37 240 -27 c 2
 240 -10 l 1
 126 1 33 96 33 216 c 0
 33 332 119 434 240 447 c 1
 240 458 l 2
 240 468 248 476 259 476 c 0
 270 476 278 468 278 458 c 2
 278 448 l 1
 355 444 431 407 431 340 c 0
 431 308 409 290 379 290 c 0
 348 290 328 311 328 339 c 0xf8
 328 351 334 381 373 386 c 1
 344 411 299 416 278 417 c 1
 278 19 l 1
 317 20 380 34 409 121 c 0
 412 128 415 133 426 133 c 0
 430 133 443 133 443 120 c 0
 443 109 411 -4 278 -11 c 1xf4
240 415 m 1
 189 403 127 353 127 218 c 0
 127 90 188 38 240 24 c 1
 240 415 l 1
EndSplineSet
Substitution2: "'onum' Oldstyle Figures lookup 4 subtable" cent.oldstyle
Substitution2: "'aalt' Access All Alternates lookup 0 subtable" cent.oldstyle
EndChar

StartChar: centigrade
Encoding: 8451 8451 214
Width: 1003
Flags: W
HStem: -20 33<583.801 760.097> 448 46<68.2263 166.553> 638 46<69.4466 167.774> 672 33<583.649 751.994>
VStem: 0 46<516.002 614.518> 190 46<517.482 615.998> 295 104<223.665 461.155> 912 31<166.61 254.995 416.052 489.016>
LayerCount: 2
Fore
SplineSet
943 234 m 0xdf
 943 82 801 -20 665 -20 c 0
 469 -20 295 135 295 343 c 2
 295 357 l 1
 304 551 470 705 663 705 c 0
 754 705 802 668 862 617 c 1
 863 619 911 705 931 705 c 0
 942 705 943 695 943 687 c 2
 943 434 l 2
 943 424 940 416 926 416 c 0
 908 416 910 433 908 446 c 0
 885 562 804 672 671 672 c 0
 576 672 482 613 439 529 c 0
 408 470 399 403 399 338 c 0
 399 261 416 181 462 119 c 0
 511 54 592 13 673 13 c 0
 808 13 901 113 912 230 c 1
 912 237 l 2
 912 248 916 255 927 255 c 0
 938 255 943 248 943 234 c 0xdf
236 565 m 0
 236 505 190 455 129 448 c 1
 121 448 l 2
 45 448 0 508 0 567 c 0
 0 627 46 677 107 684 c 1
 115 684 l 2xef
 191 684 236 624 236 565 c 0
190 566 m 2
 190 573 l 1
 185 608 156 637 120 638 c 2
 118 638 l 2
 80 638 46 604 46 566 c 2
 46 559 l 1
 51 524 80 495 116 494 c 2
 118 494 l 2
 156 494 190 528 190 566 c 2
EndSplineSet
EndChar

StartChar: Chi
Encoding: 935 935 215
Width: 796
Flags: W
HStem: 0 33<28 113.371 221.411 265 492 544.183 672.613 767> 650 33<43 136.854 265.817 318 486 529.21 636.102 722>
LayerCount: 2
Fore
SplineSet
767 0 m 1
 713 3 685 3 635 3 c 2
 492 0 l 1
 492 33 l 1
 532 34 551 50 551 63 c 0
 551 66 551 68 542 79 c 2
 374 312 l 1
 221 105 l 2
 209 89 209 79 209 76 c 0
 209 66 217 35 265 33 c 1
 265 0 l 1
 204 3 191 3 141 3 c 0
 120 3 63 3 28 0 c 1
 28 33 l 1
 49 33 128 33 175 97 c 2
 354 340 l 1
 154 615 l 2
 135 641 120 650 60 650 c 2
 43 650 l 1
 43 683 l 1
 101 680 114 680 175 680 c 2
 318 683 l 1
 318 650 l 1
 278 650 259 632 259 620 c 0
 259 615 263 609 266 605 c 2
 407 412 l 1
 531 580 l 2
 538 589 541 597 541 607 c 0
 541 621 530 648 486 650 c 1
 486 683 l 1
 547 680 556 680 610 680 c 0
 633 680 687 680 722 683 c 1
 722 650 l 1
 699 650 622 649 575 585 c 2
 427 384 l 1
 655 69 l 2
 675 42 689 33 750 33 c 2
 767 33 l 1
 767 0 l 1
EndSplineSet
EndChar

StartChar: circumflex
Encoding: 710 710 216
Width: 531
Flags: W
HStem: 515 176
VStem: 114 304
AnchorPoint: "mkmk" 266 517 mark 0
AnchorPoint: "mkmk" 263 753 basemark 0
AnchorPoint: "top" 265 515 basechar 0
LayerCount: 2
Fore
SplineSet
418 529 m 1
 405 515 l 1
 266 623 l 1
 127 515 l 1
 114 529 l 1
 266 691 l 1
 418 529 l 1
EndSplineSet
EndChar

StartChar: uni0302
Encoding: 770 770 217
Width: 0
Flags: W
HStem: 515 176
VStem: -417 304
AnchorPoint: "Hebrew-3" -251 468 mark 0
AnchorPoint: "mkmk" -265 720 basemark 0
AnchorPoint: "mkmk" -262 513 mark 0
AnchorPoint: "top" -261 513 mark 0
LayerCount: 2
Fore
SplineSet
-113 529 m 1
 -126 515 l 1
 -265 623 l 1
 -404 515 l 1
 -417 529 l 1
 -265 691 l 1
 -113 529 l 1
EndSplineSet
EndChar

StartChar: colonmonetary
Encoding: 8353 8353 218
Width: 767
Flags: W
HStem: -21 33<353.073 406 438 523.353> 671 33<353.304 406 438 515.464>
VStem: 59 104<221.089 461.647> 406 32<-47.9949 -21 14 669 704 730.995> 676 31<166.335 252.993 417.021 484.719>
LayerCount: 2
Fore
SplineSet
707 234 m 0
 707 114 601 -16 438 -21 c 1
 438 -32 l 2
 438 -41 431 -48 422 -48 c 0
 413 -48 406 -41 406 -32 c 2
 406 -20 l 1
 214 -9 59 148 59 342 c 0
 59 536 215 692 406 703 c 1
 406 715 l 2
 406 724 413 731 422 731 c 0
 431 731 438 724 438 715 c 2
 438 704 l 1
 529 701 591 654 626 616 c 1
 677 690 l 2
 686 703 687 704 694 704 c 0
 707 704 707 694 707 678 c 2
 707 443 l 2
 707 424 707 417 690 417 c 0
 676 417 675 424 674 432 c 0
 648 604 532 671 438 671 c 1
 438 12 l 1
 544 12 668 84 676 238 c 0
 677 248 680 253 691 253 c 0
 707 253 707 244 707 234 c 0
406 14 m 1
 406 669 l 1
 308 656 163 583 163 342 c 0
 163 95 313 26 406 14 c 1
EndSplineSet
EndChar

StartChar: uni0326
Encoding: 806 806 219
Width: 0
Flags: W
HStem: -146 83<-306.261 -240.1>
VStem: -240 21<-200.812 -135.345>
AnchorPoint: "Hebrew-0" -155 0 mark 0
AnchorPoint: "mkmk" -271 -313 basemark 0
AnchorPoint: "mkmk" -265 -32 mark 0
AnchorPoint: "below" -265 -27 mark 0
LayerCount: 2
Fore
SplineSet
-219 -143 m 0
 -219 -233 -281 -292 -291 -292 c 0
 -295 -292 -302 -287 -302 -280 c 0
 -302 -276 -299 -274 -297 -272 c 0
 -240 -219 -240 -157 -240 -135 c 1
 -242 -137 -253 -146 -269 -146 c 0
 -296 -146 -311 -127 -311 -104 c 0
 -311 -82 -295 -63 -270 -63 c 0
 -234 -63 -219 -102 -219 -143 c 0
EndSplineSet
EndChar

StartChar: copyright
Encoding: 169 169 220
Width: 683
Flags: W
HStem: 0 46<245.831 479.124> 140 24<317.191 427.41> 520 23<319.424 422.248> 637 46<245.831 479.124>
VStem: -3 49<236.752 446.741> 160 67<254.068 428.723> 501 21<239.43 293.985 382.026 421.426> 678 49<236.752 446.741>
LayerCount: 2
Fore
SplineSet
363 0 m 0
 160 0 -3 153 -3 342 c 0
 -3 530 160 683 363 683 c 0
 564 683 727 530 727 342 c 0
 727 153 564 0 363 0 c 0
363 637 m 0
 187 637 46 505 46 342 c 0
 46 178 187 46 363 46 c 0
 537 46 678 178 678 342 c 0
 678 505 537 637 363 637 c 0
367 140 m 0
 256 140 160 227 160 342 c 0
 160 455 256 543 367 543 c 0
 413 543 442 526 473 498 c 1
 501 535 l 2
 505 542 508 543 512 543 c 0
 520 543 522 539 522 527 c 2
 522 398 l 2
 522 384 521 382 510 382 c 0
 499 382 498 385 497 393 c 0
 486 473 435 520 373 520 c 0
 338 520 227 502 227 341 c 0
 227 181 339 164 373 164 c 0
 435 164 497 207 501 283 c 0
 502 289 502 294 511 294 c 0
 521 294 522 289 522 283 c 0
 522 218 463 140 367 140 c 0
EndSplineSet
EndChar

StartChar: currency
Encoding: 164 164 221
Width: 826
Flags: W
HStem: 53 46<328.781 495.451> 401 46<328.886 495.132>
VStem: 201 49<175.105 325.203> 573 49<175.105 324.992>
LayerCount: 2
Fore
SplineSet
639 11 m 0
 632 14 626 20 620 25 c 2
 543 96 l 1
 507 70 462 53 412 53 c 0
 363 53 317 70 281 96 c 1
 205 25 l 2
 192 13 177 0 160 16 c 0
 143 31 159 46 171 57 c 2
 247 129 l 1
 219 162 201 204 201 250 c 0
 201 296 219 339 247 372 c 1
 171 443 l 2
 159 454 143 470 160 485 c 0
 177 501 192 488 205 476 c 2
 282 404 l 1
 317 430 363 447 412 447 c 0
 462 447 506 430 542 404 c 1
 619 475 l 2
 631 487 647 500 664 484 c 0
 681 469 665 454 653 443 c 2
 577 372 l 1
 606 338 622 296 622 250 c 0
 622 204 606 162 578 129 c 1
 654 57 l 2
 666 45 680 31 664 16 c 0
 655 8 647 8 639 11 c 0
412 401 m 0
 323 401 250 333 250 250 c 0
 250 167 323 99 412 99 c 0
 502 99 573 167 573 250 c 0
 573 333 502 401 412 401 c 0
EndSplineSet
EndChar

StartChar: dagger
Encoding: 8224 8224 222
Width: 472
Flags: W
HStem: 393 75<62.5596 203.383 267.617 408.44> 684 20G<217 254.5>
VStem: 198 75<-17.3621 385.769 484.728 701.056> 219 32<-214.995 -5.78809>
LayerCount: 2
Fore
SplineSet
412 430 m 1xe0
 412 430 412 393 371 393 c 0
 353 393 327 399 305 405 c 0
 281 412 266 416 248 418 c 1
 250 396 250 386 260 341 c 0
 273 279 273 268 273 219 c 0xe0
 273 21 253 -188 251 -202 c 0
 249 -214 242 -215 235 -215 c 0
 221 -215 220 -208 219 -193 c 0xd0
 206 -64 198 99 198 219 c 0
 198 272 198 279 213 349 c 0
 221 385 222 402 223 418 c 1
 207 416 189 412 163 405 c 0
 139 397 115 393 100 393 c 0
 63 393 59 423 59 431 c 1
 59 431 59 468 100 468 c 0
 118 468 144 462 166 456 c 0
 190 449 205 445 223 443 c 1
 222 465 222 479 211 545 c 0
 206 576 198 626 198 659 c 0
 198 668 198 704 236 704 c 0
 273 704 273 667 273 659 c 0
 273 625 264 567 260 543 c 0
 249 483 249 460 248 443 c 1
 264 445 282 449 308 456 c 0
 332 464 356 468 371 468 c 0
 408 468 412 438 412 430 c 1xe0
EndSplineSet
EndChar

StartChar: daggerdbl
Encoding: 8225 8225 223
Width: 472
Flags: W
HStem: -15 75<62.5596 203.383 267.617 408.44> 440 74<62.3344 207.596 263.598 408.704> 684 20G<230 238>
VStem: 198 75<-201.011 -22.4712 67.4712 246.011 252.989 431.852 522.148 701.011>
LayerCount: 2
Fore
SplineSet
412 477 m 0
 412 458 402 440 370 440 c 0
 355 440 342 441 298 454 c 0
 271 461 265 462 248 464 c 1
 249 445 250 433 258 397 c 0
 265 362 273 322 273 293 c 0
 273 254 247 250 235 250 c 0
 231 250 198 250 198 293 c 0
 198 321 207 363 212 392 c 0
 221 433 222 444 223 464 c 1
 207 462 199 461 172 454 c 0
 125 440 112 440 101 440 c 0
 66 440 59 461 59 477 c 0
 59 497 74 514 97 514 c 0
 120 514 142 509 173 500 c 0
 200 493 207 492 223 490 c 1
 222 509 221 521 213 557 c 0
 206 592 198 632 198 661 c 0
 198 700 224 704 236 704 c 0
 240 704 273 704 273 661 c 0
 273 633 264 591 259 562 c 0
 250 521 249 510 248 490 c 1
 265 492 271 493 299 500 c 0
 325 508 350 514 374 514 c 0
 397 514 412 497 412 477 c 0
412 22 m 1
 412 22 412 -15 371 -15 c 0
 353 -15 327 -9 305 -3 c 0
 281 4 266 8 248 10 c 1
 249 -9 250 -21 258 -57 c 0
 264 -90 273 -132 273 -161 c 0
 273 -200 247 -204 235 -204 c 0
 231 -204 198 -204 198 -161 c 0
 198 -134 206 -93 212 -62 c 0
 221 -21 222 -11 223 10 c 1
 207 8 189 4 163 -3 c 0
 139 -11 115 -15 100 -15 c 0
 63 -15 59 15 59 23 c 1
 59 23 59 60 100 60 c 0
 118 60 144 54 166 48 c 0
 190 41 205 37 223 35 c 1
 222 54 221 66 213 102 c 0
 207 135 198 177 198 206 c 0
 198 245 224 249 236 249 c 0
 240 249 273 249 273 206 c 0
 273 179 265 138 259 107 c 0
 250 66 249 56 248 35 c 1
 264 37 282 41 308 48 c 0
 332 56 356 60 371 60 c 0
 408 60 412 30 412 22 c 1
EndSplineSet
EndChar

StartChar: dblbracketleft
Encoding: 10214 10214 224
Width: 428
Flags: W
HStem: -249 46<169 256 302 404> 705 46<169 256 302 404>
VStem: 123 46<-203 705> 256 46<-203 705>
LayerCount: 2
Fore
SplineSet
404 -249 m 1
 123 -249 l 1
 123 751 l 1
 404 751 l 1
 404 705 l 1
 302 705 l 1
 302 -203 l 1
 404 -203 l 1
 404 -249 l 1
256 -203 m 1
 256 705 l 1
 169 705 l 1
 169 -203 l 1
 256 -203 l 1
EndSplineSet
EndChar

StartChar: dblbracketright
Encoding: 10215 10215 225
Width: 428
Flags: W
HStem: -249 46<24 125 171 258> 705 46<24 125 171 258>
VStem: 125 46<-203 705> 258 46<-203 705>
LayerCount: 2
Fore
SplineSet
304 -249 m 1
 24 -249 l 1
 24 -203 l 1
 125 -203 l 1
 125 705 l 1
 24 705 l 1
 24 751 l 1
 304 751 l 1
 304 -249 l 1
258 -203 m 1
 258 705 l 1
 171 705 l 1
 171 -203 l 1
 258 -203 l 1
EndSplineSet
EndChar

StartChar: uni030F
Encoding: 783 783 226
Width: 0
Flags: W
HStem: 508 189
VStem: -445 78<665 691.715> -268 78<665 691.715>
AnchorPoint: "mkmk" -259 507 mark 0
AnchorPoint: "mkmk" -303 720 basemark 0
AnchorPoint: "top" -250 507 mark 0
LayerCount: 2
Fore
SplineSet
-134 524 m 1
 -160 508 l 1
 -254 628 l 2
 -262 639 -268 646 -268 658 c 0
 -268 683 -244 697 -227 697 c 0
 -203 697 -194 676 -190 665 c 2
 -134 524 l 1
-311 524 m 1
 -337 508 l 1
 -431 628 l 2
 -439 639 -445 646 -445 658 c 0
 -445 683 -421 697 -404 697 c 0
 -380 697 -371 676 -367 665 c 2
 -311 524 l 1
EndSplineSet
EndChar

StartChar: dblverticalbar
Encoding: 8214 8214 227
Width: 433
Flags: W
VStem: 124 46<-249.984 749.984> 262 46<-249.984 749.984>
LayerCount: 2
Fore
SplineSet
170 -214 m 2
 170 -228 170 -250 147 -250 c 0
 124 -250 124 -228 124 -214 c 2
 124 714 l 2
 124 728 124 750 147 750 c 0
 170 750 170 728 170 714 c 2
 170 -214 l 2
308 -214 m 2
 308 -228 308 -250 285 -250 c 0
 262 -250 262 -228 262 -214 c 2
 262 714 l 2
 262 728 262 750 285 750 c 0
 308 750 308 728 308 714 c 2
 308 -214 l 2
EndSplineSet
EndChar

StartChar: dcaron
Encoding: 271 271 229
Width: 590
Flags: W
HStem: -11 28<210.69 325.808> 0 37<483.234 562> 416 28<218.383 336.148> 611 83<521.739 587.9> 646 37<320 398.766> 674 20G<320 479>
VStem: 33 94<120.945 308.314> 400 79<41.7731 49 72.4627 371.382 388 642.097> 588 21<556.188 621.655>
AnchorPoint: "below" 268 -38 basechar 0
AnchorPoint: "top" 442 715 basechar 0
LayerCount: 2
Fore
SplineSet
609 614 m 0x3380
 609 524 547 465 537 465 c 0
 533 465 526 470 526 477 c 0
 526 481 529 483 531 485 c 0
 588 538 588 600 588 622 c 1
 586 620 575 611 559 611 c 0
 532 611 517 630 517 653 c 0
 517 675 533 694 558 694 c 0
 594 694 609 655 609 614 c 0x3380
EndSplineSet
Refer: 47 100 N 1 0 0 1 0 0 2
Substitution2: "'smcp' Lowercase to Small Capitals lookup 14 subtable" Dcaron.sc
EndChar

StartChar: dcroat
Encoding: 273 273 231
Width: 590
Flags: W
HStem: -10 28<208.843 326.621> 0 33<484.762 554> 413 28<217.574 335.596> 531 32<236 405 478 554> 650 33<329 398.238> 674 20G<329 478>
VStem: 35 89<121.572 309.569> 402 76<38.2905 53 72.9218 365.255 383 531 563 645.663>
AnchorPoint: "top" 532 715 basechar 0
LayerCount: 2
Fore
SplineSet
554 0 m 1x77
 402 -10 l 1
 402 53 l 1
 369 18 320 -10 261 -10 c 0
 135 -10 35 92 35 215 c 0
 35 344 146 441 271 441 c 0
 323 441 370 421 405 383 c 1
 405 531 l 1
 236 531 l 1
 236 563 l 1
 405 563 l 1
 405 594 l 2
 405 643 397 650 329 650 c 1
 329 683 l 1xbb
 478 694 l 1
 478 563 l 1
 554 563 l 1
 554 531 l 1
 478 531 l 1
 478 89 l 2
 478 40 486 33 554 33 c 1
 554 0 l 1x77
402 124 m 2
 402 337 l 1
 372 389 324 413 276 413 c 0
 225 413 180 385 156 348 c 0
 133 313 124 272 124 214 c 0
 124 167 129 118 156 79 c 0
 180 42 220 18 266 18 c 0
 313 18 359 42 387 82 c 0
 402 102 402 106 402 124 c 2
EndSplineSet
Substitution2: "'smcp' Lowercase to Small Capitals lookup 14 subtable" Eth.sc
EndChar

StartChar: degree
Encoding: 176 176 234
Width: 398
Flags: W
HStem: 406 45<134.282 263.718> 638 45<135.933 262.067>
VStem: 49 49<487.018 601.687> 300 49<487.018 601.687>
LayerCount: 2
Fore
SplineSet
199 406 m 0
 116 406 49 468 49 544 c 0
 49 621 116 683 199 683 c 0
 282 683 349 621 349 544 c 0
 349 468 282 406 199 406 c 0
199 638 m 0
 143 638 98 596 98 544 c 0
 98 493 143 451 199 451 c 0
 255 451 300 493 300 544 c 0
 300 596 255 638 199 638 c 0
EndSplineSet
EndChar

StartChar: Delta
Encoding: 916 916 235
Width: 885
Flags: W
HStem: 0 79<124 694>
LayerCount: 2
Fore
SplineSet
833 10 m 1
 833 0 826 0 809 0 c 2
 75 0 l 2
 59 0 51 0 51 10 c 1
 51 10 51 14 58 25 c 2
 412 694 l 2
 423 714 435 714 442 714 c 0
 449 714 461 714 472 694 c 2
 826 25 l 2
 833 14 833 10 833 10 c 1
694 79 m 1
 409 616 l 1
 124 79 l 1
 694 79 l 1
EndSplineSet
EndChar

StartChar: diameter
Encoding: 8960 8960 236
Width: 826
Flags: W
HStem: -83 46<303.974 519.138> 537 46<306.862 521.776>
VStem: 80 46<140.974 356.138> 700 46<143.862 359.194>
LayerCount: 2
Fore
SplineSet
766 581 m 0
 766 575 763 569 759 565 c 2
 664 469 l 1
 715 411 746 334 746 250 c 0
 746 66 597 -83 413 -83 c 0
 329 -83 253 -52 194 -1 c 1
 98 -97 l 2
 94 -101 88 -104 82 -104 c 0
 69 -104 59 -94 59 -81 c 0
 59 -75 62 -69 66 -65 c 2
 162 31 l 1
 111 90 80 166 80 250 c 0
 80 434 229 583 413 583 c 0
 496 583 573 552 631 502 c 1
 727 597 l 2
 731 601 737 604 743 604 c 0
 756 604 766 594 766 581 c 0
700 250 m 0
 700 321 674 386 631 436 c 1
 227 32 l 1
 277 -11 342 -37 413 -37 c 0
 572 -37 700 91 700 250 c 0
599 469 m 1
 549 511 484 537 413 537 c 0
 254 537 126 409 126 250 c 0
 126 179 152 114 194 64 c 1
 599 469 l 1
EndSplineSet
EndChar

StartChar: dieresis
Encoding: 168 168 237
Width: 531
Flags: W
HStem: 553 100<133.648 214.883 314.648 395.883>
VStem: 125 99<561.648 644.102> 306 99<561.648 644.102>
AnchorPoint: "top" 267 553 mark 0
AnchorPoint: "mkmk" 265 720 basemark 0
AnchorPoint: "mkmk" 267 511 mark 0
LayerCount: 2
Fore
SplineSet
224 602 m 4
 224 576 202 553 174 553 c 4
 145 553 125 576 125 602 c 4
 125 632 148 653 174 653 c 4
 200 653 224 632 224 602 c 4
405 602 m 4
 405 576 383 553 355 553 c 4
 326 553 306 576 306 602 c 4
 306 632 329 653 355 653 c 4
 381 653 405 632 405 602 c 4
EndSplineSet
EndChar

StartChar: uni0308
Encoding: 776 776 238
Width: 0
Flags: W
HStem: 553 100<-396.352 -315.117 -215.352 -134.117>
VStem: -405 99<561.648 644.102> -224 99<561.648 644.102>
AnchorPoint: "Hebrew-3" -249 468 mark 0
AnchorPoint: "mkmk" -263 521 mark 0
AnchorPoint: "mkmk" -265 690 basemark 0
AnchorPoint: "top" -263 533 mark 0
LayerCount: 2
Fore
SplineSet
-306 602 m 0
 -306 576 -328 553 -356 553 c 0
 -385 553 -405 576 -405 602 c 0
 -405 632 -382 653 -356 653 c 0
 -330 653 -306 632 -306 602 c 0
-125 602 m 0
 -125 576 -147 553 -175 553 c 0
 -204 553 -224 576 -224 602 c 0
 -224 632 -201 653 -175 653 c 0
 -149 653 -125 632 -125 602 c 0
EndSplineSet
EndChar

StartChar: discount
Encoding: 8274 8274 239
Width: 531
Flags: W
HStem: 16 128<321.841 368 372 418.159> 608 129<112.303 207.697>
VStem: 95 130<625.895 719.105> 306 128<31.6844 128.316> 415 55<679.344 747.793>
LayerCount: 2
Fore
SplineSet
470 728 m 0xe8
 470 712 458 698 451 684 c 2
 296 386 l 1
 179 161 l 2
 152 109 110 4 84 1 c 2
 83 1 l 2
 69 1 59 12 59 25 c 0
 59 41 80 72 90 90 c 2
 356 602 l 2
 375 640 394 677 415 714 c 0
 422 727 427 747 443 750 c 2
 448 751 l 2
 461 751 470 740 470 728 c 0xe8
225 672 m 0
 225 707 195 737 159 737 c 2
 152 737 l 1
 122 730 95 710 95 673 c 0
 95 638 125 608 161 608 c 2
 168 608 l 1
 198 615 225 635 225 672 c 0
434 79 m 0xf0
 434 109 412 144 374 144 c 2
 368 144 l 2
 333 144 306 115 306 81 c 0
 306 51 328 16 366 16 c 2
 372 16 l 2
 407 16 434 45 434 79 c 0xf0
EndSplineSet
EndChar

StartChar: divide
Encoding: 247 247 240
Width: 826
Flags: W
HStem: 40 110<365.764 459.161> 227 46<56.016 766.985> 350 110<365.764 459.161>
VStem: 353 119<52.6807 137.319 362.681 447.319>
CounterMasks: 1 e0
LayerCount: 2
Fore
SplineSet
412 350 m 0
 380 350 353 375 353 405 c 0
 353 435 380 460 412 460 c 0
 445 460 472 435 472 405 c 0
 472 375 445 350 412 350 c 0
728 227 m 2
 95 227 l 2
 78 227 56 228 56 250 c 0
 56 272 78 273 94 273 c 2
 729 273 l 2
 746 273 767 272 767 250 c 0
 767 228 746 227 728 227 c 2
412 40 m 0
 380 40 353 65 353 95 c 0
 353 125 380 150 412 150 c 0
 445 150 472 125 472 95 c 0
 472 65 445 40 412 40 c 0
EndSplineSet
EndChar

StartChar: divorced
Encoding: 9902 9902 241
Width: 531
Flags: W
HStem: 35 54<-81.006 61.6394 468.511 613.794> 413 53<-84.4168 62.9808 469.144 613.001>
VStem: -203 53<162.535 338.049> 134 37<173.933 332.745> 227 75<-103.903 177.895 349.992 604.856> 240 50<104.554 509.982> 359 37<174.254 329.838> 680 53<161.174 340.586>
CounterMasks: 1 37
LayerCount: 2
Fore
SplineSet
733 252 m 0xf3
 733 148 662 35 541 35 c 0
 429 35 359 149 359 251 c 0
 359 350 419 453 529 466 c 1
 540 466 l 2
 657 466 733 359 733 252 c 0xf3
171 252 m 0
 171 152 112 50 0 36 c 1
 -11 36 l 2
 -127 36 -203 144 -203 250 c 0
 -203 351 -140 454 -26 466 c 0
 -21 466 -17 467 -12 467 c 0
 99 467 171 354 171 252 c 0
304 590 m 0
 304 586 303 582 302 578 c 2xfb
 299 545 l 2
 292 462 290 379 290 295 c 0xf7
 290 176 295 57 302 -61 c 1
 302 -70 l 2xfb
 302 -74 303 -80 303 -85 c 0
 303 -99 297 -104 282 -104 c 2
 240 -104 l 2xf7
 232 -102 227 -96 227 -88 c 2
 227 -81 l 2xfb
 227 -71 229 -62 229 -52 c 0
 236 72 240 195 240 319 c 2
 240 373 l 2xf7
 240 437 235 500 229 563 c 0
 228 569 226 579 226 587 c 0
 226 595 228 602 237 605 c 0
 240 606 243 606 247 606 c 2
 291 606 l 2
 298 605 304 598 304 590 c 0
680 256 m 0
 680 337 630 413 542 413 c 0
 454 413 396 337 396 253 c 0
 396 169 451 89 541 89 c 0
 638 89 672 167 679 236 c 0
 680 242 680 249 680 256 c 0
134 253 m 0
 134 348 67 413 -12 413 c 0
 -110 413 -150 325 -150 246 c 2
 -150 237 l 1
 -142 153 -93 89 -11 89 c 0
 79 89 134 169 134 253 c 0
EndSplineSet
EndChar

StartChar: dong
Encoding: 8363 8363 244
Width: 590
Flags: W
HStem: -32 32<33.0051 525.995> 25 27<198.387 311.278> 35 31<460.523 526> 427 27<206.619 319.695> 539 31<224 385 454 526> 652 32<313 379.094> 674 20G<313 454>
VStem: 33 85<145.906 329.767> 382 72<70.6406 85 104.372 383.455 399 539 570 648.451>
CounterMasks: 1 58
LayerCount: 2
Fore
SplineSet
526 35 m 1xbb80
 382 25 l 1
 382 85 l 1
 351 52 304 25 248 25 c 0
 128 25 33 122 33 239 c 0
 33 362 139 454 257 454 c 0
 307 454 351 435 385 399 c 1
 385 539 l 1
 224 539 l 1
 224 570 l 1
 385 570 l 1
 385 599 l 2
 385 646 377 652 313 652 c 1
 313 684 l 1xdd80
 454 694 l 1
 454 570 l 1
 526 570 l 1
 526 539 l 1
 454 539 l 1
 454 119 l 2
 454 73 462 66 526 66 c 1
 526 35 l 1xbb80
526 -16 m 0
 526 -25 519 -32 510 -32 c 2
 49 -32 l 2
 40 -32 33 -25 33 -16 c 0
 33 -7 40 0 49 0 c 2
 510 0 l 2
 519 0 526 -7 526 -16 c 0
382 153 m 2
 382 355 l 1
 353 404 308 427 262 427 c 0
 214 427 171 400 148 365 c 0
 126 332 118 293 118 238 c 0
 118 193 123 147 148 110 c 0
 171 75 209 52 253 52 c 0
 297 52 341 75 368 113 c 0
 382 132 382 135 382 153 c 2
EndSplineSet
EndChar

StartChar: dotaccent
Encoding: 729 729 245
Width: 295
Flags: W
HStem: 547 111<104.331 191.462>
VStem: 93 110<558.331 646.696>
LayerCount: 2
Fore
SplineSet
203 602 m 0
 203 573 179 547 148 547 c 0
 116 547 93 573 93 602 c 0
 93 635 119 658 148 658 c 0
 177 658 203 635 203 602 c 0
EndSplineSet
EndChar

StartChar: uni0307
Encoding: 775 775 246
Width: 0
Flags: W
HStem: 547 111<-308.669 -221.538>
VStem: -320 110<558.331 646.696>
AnchorPoint: "Hebrew-3" -250 468 mark 0
AnchorPoint: "top" -265 540 mark 0
AnchorPoint: "mkmk" -266 517 mark 0
AnchorPoint: "mkmk" -262 691 basemark 0
LayerCount: 2
Fore
SplineSet
-210 602 m 4
 -210 573 -234 547 -265 547 c 4
 -297 547 -320 573 -320 602 c 4
 -320 635 -294 658 -265 658 c 4
 -236 658 -210 635 -210 602 c 4
EndSplineSet
EndChar

StartChar: uni0323
Encoding: 803 803 247
Width: 0
Flags: W
HStem: -200 111<-308.669 -221.538>
VStem: -320 110<-188.669 -100.304>
AnchorPoint: "below" -263 -32 mark 0
AnchorPoint: "mkmk" -265 -253 basemark 0
AnchorPoint: "mkmk" -266 -32 mark 0
LayerCount: 2
Fore
SplineSet
-210 -145 m 0
 -210 -174 -234 -200 -265 -200 c 0
 -297 -200 -320 -174 -320 -145 c 0
 -320 -112 -294 -89 -265 -89 c 0
 -236 -89 -210 -112 -210 -145 c 0
EndSplineSet
EndChar

StartChar: dotlessi
Encoding: 305 305 248
Width: 295
Flags: W
HStem: 0 33<42 113.781 194.306 260> 397 33<45 111.777> 421 20G<45 191>
VStem: 118 73<36.0171 392.518>
AnchorPoint: "below" 150 -23 basechar 0
AnchorPoint: "top" 152 505 basechar 0
AnchorPoint: "topleft" 92 505 basechar 0
LayerCount: 2
Fore
SplineSet
260 0 m 1xb0
 225 3 165 3 152 3 c 0
 137 3 81 3 42 0 c 1
 42 33 l 1
 106 33 118 33 118 78 c 2
 118 342 l 2
 118 391 109 397 45 397 c 1
 45 430 l 1xd0
 191 441 l 1
 191 77 l 2
 191 38 195 33 260 33 c 1
 260 0 l 1xb0
EndSplineSet
Substitution2: "'smcp' Lowercase to Small Capitals lookup 14 subtable" I.sc
EndChar

StartChar: uni0237
Encoding: 567 567 249
Width: 325
Flags: W
HStem: -204 28<31.9198 117.9> 397 33<70 146.483> 421 20G<70 227>
VStem: -36 94<-164.386 -84.0137> 154 73<-130.922 391.188>
AnchorPoint: "below" 124 -252 basechar 0
AnchorPoint: "top" 192 511 basechar 0
LayerCount: 2
Fore
SplineSet
227 -46 m 2xb8
 227 -140 162 -204 82 -204 c 0
 20 -204 -36 -176 -36 -125 c 0
 -36 -94 -14 -77 11 -77 c 0
 39 -77 58 -97 58 -124 c 0
 58 -152 37 -165 31 -167 c 1
 44 -172 66 -176 81 -176 c 0
 150 -176 154 -75 154 -48 c 2
 154 341 l 2
 154 390 145 397 70 397 c 1
 70 430 l 1xd8
 227 441 l 1
 227 -46 l 2xb8
EndSplineSet
Substitution2: "'smcp' Lowercase to Small Capitals lookup 14 subtable" J.sc
EndChar

StartChar: ellipsis
Encoding: 8230 8230 280
Width: 712
Flags: W
HStem: 0 111<104.795 192.205 312.795 400.205 520.795 608.205>
VStem: 93 111<11.7954 99.2046> 301 111<11.7954 99.2046> 509 111<11.7954 99.2046>
CounterMasks: 1 70
LayerCount: 2
Fore
SplineSet
204 55 m 0
 204 27 182 0 148 0 c 0
 120 0 93 22 93 56 c 0
 93 84 115 111 149 111 c 0
 177 111 204 89 204 55 c 0
412 55 m 0
 412 27 390 0 356 0 c 0
 328 0 301 22 301 56 c 0
 301 84 323 111 357 111 c 0
 385 111 412 89 412 55 c 0
620 55 m 0
 620 27 598 0 564 0 c 0
 536 0 509 22 509 56 c 0
 509 84 531 111 565 111 c 0
 593 111 620 89 620 55 c 0
EndSplineSet
EndChar

StartChar: emdash
Encoding: 8212 8212 283
Width: 1063
Flags: W
HStem: 252 28<0 1062>
LayerCount: 2
Fore
SplineSet
1062 252 m 1
 0 252 l 1
 0 280 l 1
 1062 280 l 1
 1062 252 l 1
EndSplineSet
Substitution2: "'cv03' Character Variants 03 in Cyrillic lookup 23-1" emdash.cyr
Ligature2: "'liga' Standard Ligatures lookup 9 subtable" hyphen hyphen hyphen
EndChar

StartChar: endash
Encoding: 8211 8211 284
Width: 531
Flags: W
HStem: 252 28<0 530>
LayerCount: 2
Fore
SplineSet
530 252 m 1
 0 252 l 1
 0 280 l 1
 530 280 l 1
 530 252 l 1
EndSplineSet
Ligature2: "'liga' Standard Ligatures lookup 9 subtable" hyphen hyphen
EndChar

StartChar: Eng
Encoding: 330 330 285
Width: 796
Flags: W
HStem: -21 94<491.394 566.177> 0 33<39 139.885 242.115 343> 650 33<39 139.885> 672 32<351.501 505.279>
VStem: 145 92<38.168 592.777 616 644.832> 484 93<22.3784 65.4205> 652 104<177.608 470.716>
AnchorPoint: "below" 405 -24 basechar 0
AnchorPoint: "top" 439 749 basechar 0
LayerCount: 2
Fore
SplineSet
756 342 m 0x1e
 756 162 688 -21 531 -21 c 0
 505 -21 484 0 484 26 c 0
 484 52 505 73 531 73 c 0
 557 73 578 52 577 22 c 1
 652 64 652 212 652 342 c 0
 652 506 583 672 438 672 c 0x9e
 353 672 277 629 237 564 c 1
 237 81 l 2
 237 43 240 33 319 33 c 2
 343 33 l 1
 343 0 l 1
 191 3 l 1
 39 0 l 1
 39 33 l 1
 63 33 l 2
 142 33 145 43 145 81 c 2
 145 602 l 2
 145 640 142 650 63 650 c 2
 39 650 l 1
 39 683 l 1
 191 680 l 2
 206 680 222 681 237 683 c 1x6e
 237 616 l 1
 285 670 358 704 438 704 c 0
 622 704 756 534 756 342 c 0x1e
EndSplineSet
Position2: "'cpsp' Capital Spacing lookup 0 subtable" dx=7 dy=0 dh=14 dv=0
EndChar

StartChar: eng
Encoding: 331 331 286
Width: 538
Flags: W
HStem: -215 76<290.745 357.391> 0 33<41 112.781 197.219 269> 397 33<41 110.238> 413 28<277.893 379.788>
VStem: 117 76<36.0171 341.245> 117 69<345 391.709> 410 76<-86.0105 388.912>
AnchorPoint: "below" 327 -254 basechar 0
AnchorPoint: "top" 332 505 basechar 0
LayerCount: 2
Fore
SplineSet
486 78 m 2xd6
 486 -64 448 -215 325 -215 c 0
 304 -215 287 -198 287 -177 c 0
 287 -156 304 -139 325 -139 c 0
 344 -139 359 -153 362 -171 c 1
 410 -134 410 -20 410 78 c 2
 410 307 l 2
 410 370 395 413 334 413 c 0xd6
 273 413 193 364 193 259 c 2
 193 78 l 2
 193 33 205 33 269 33 c 1
 269 0 l 1
 226 3 184 3 155 3 c 0
 128 3 84 3 41 0 c 1
 41 33 l 1
 105 33 117 33 117 78 c 2
 117 341 l 2
 117 390 109 397 41 397 c 1
 41 430 l 1xea
 186 441 l 1
 186 345 l 1
 187 345 l 1
 199 369 244 441 343 441 c 0
 448 441 486 387 486 303 c 2
 486 78 l 2xd6
EndSplineSet
Substitution2: "'smcp' Lowercase to Small Capitals lookup 14 subtable" Eng.sc
Substitution2: "'ss05' Style Set 5 lookup 23 IPA alts-1" eng.ipa
EndChar

StartChar: Epsilon
Encoding: 917 917 289
Width: 723
Flags: W
HStem: 0 33<44 139.733 238.868 546.856> 337 33<237 415.338> 647 33<44 139.733 238.868 540.221>
VStem: 145 92<38.2392 337 370 641.761> 447 31<220 305.668 401.332 487>
LayerCount: 2
Fore
SplineSet
692 260 m 1
 648 0 l 1
 44 0 l 1
 44 33 l 1
 66 33 l 2
 143 33 145 44 145 81 c 2
 145 599 l 2
 145 636 143 647 66 647 c 2
 44 647 l 1
 44 680 l 1
 634 680 l 1
 663 453 l 1
 632 453 l 1
 614 587 593 647 427 647 c 2
 285 647 l 2
 239 647 237 640 237 606 c 2
 237 370 l 1
 334 370 l 2
 433 370 447 400 447 487 c 1
 478 487 l 1
 478 220 l 1
 447 220 l 1
 447 307 433 337 334 337 c 2
 237 337 l 1
 237 74 l 2
 237 40 239 33 285 33 c 2
 434 33 l 2
 614 33 635 110 661 260 c 1
 692 260 l 1
EndSplineSet
EndChar

StartChar: Ereversed
Encoding: 398 398 290
Width: 766
Flags: W
HStem: 0 39<196.941 525.256 632.465 737> 334 39<336.044 526> 641 39<200.551 525.256 632.465 737>
VStem: 270 40<218 309 398 489> 526 104<43.3215 334 373 636.678>
AnchorPoint: "bottom" 432 2 basechar 0
AnchorPoint: "top" 368 749 basechar 0
AnchorPoint: "below" 382 -22 basechar 0
LayerCount: 2
Fore
SplineSet
91 0 m 1
 43 264 l 1
 82 264 l 1
 110 113 132 39 320 39 c 2
 478 39 l 2
 525 39 526 44 526 76 c 2
 526 334 l 1
 426 334 l 2
 323 334 310 306 310 218 c 1
 270 218 l 1
 270 489 l 1
 310 489 l 1
 310 401 323 373 426 373 c 2
 526 373 l 1
 526 604 l 2
 526 636 525 641 478 641 c 2
 328 641 l 2
 154 641 132 584 113 449 c 1
 74 449 l 1
 105 680 l 1
 737 680 l 1
 737 641 l 1
 710 641 l 2
 632 641 630 632 630 597 c 2
 630 83 l 2
 630 48 632 39 710 39 c 2
 737 39 l 1
 737 0 l 1
 91 0 l 1
EndSplineSet
Position2: "'cpsp' Capital Spacing lookup 0 subtable" dx=7 dy=0 dh=14 dv=0
EndChar

StartChar: ereversed
Encoding: 600 600 291
Width: 472
Flags: W
HStem: -10 31<134.761 264.782> 228 26<98 351> 418 28<165.617 271.625>
VStem: 30 68<254 347.831> 30 31<92.4263 133.993> 352 89<123.672 228 254 316.374>
AnchorPoint: "top" 220 495 basechar 0
AnchorPoint: "below" 205 -47 basechar 0
LayerCount: 2
Fore
SplineSet
441 219 m 0xec
 441 90 333 -10 207 -10 c 0
 80 -10 30 97 30 120 c 0
 30 124 33 134 46 134 c 0
 57 134 59 127 61 121 c 0
 97 24 183 21 201 21 c 0
 246 21 292 42 322 88 c 0
 352 134 352 198 352 228 c 1
 58 228 l 2
 36 228 30 228 30 251 c 0
 30 340 79 446 220 446 c 0
 344 446 441 343 441 219 c 0xec
351 254 m 1
 342 394 257 418 220 418 c 0
 103 418 99 277 98 254 c 1xf4
 351 254 l 1
EndSplineSet
EndChar

StartChar: estimated
Encoding: 8494 8494 292
Width: 716
Flags: W
HStem: -9 31<315.367 533.958> 342 27<133 592> 671 28<297.803 446.882>
VStem: 29 104<226.367 342 369 467.791> 592 94<369 500.742>
CounterMasks: 1 e0
LayerCount: 2
Fore
SplineSet
686 121 m 0
 686 115 682 110 680 105 c 0
 617 6 498 -9 393 -9 c 0
 185 -9 29 156 29 346 c 0
 29 542 185 699 374 699 c 0
 448 699 524 678 581 631 c 0
 657 567 686 459 686 367 c 2
 686 361 l 2
 686 347 678 342 665 342 c 2
 133 342 l 1
 134 254 154 157 221 94 c 0
 269 49 330 22 397 22 c 0
 469 22 556 30 612 74 c 0
 633 91 656 135 671 135 c 0
 678 135 685 130 686 121 c 0
592 369 m 1
 591 446 579 533 530 595 c 0
 491 645 434 671 373 671 c 0
 215 671 143 519 135 398 c 0
 134 388 135 378 133 369 c 1
 592 369 l 1
EndSplineSet
EndChar

StartChar: Eta
Encoding: 919 919 293
Width: 796
Flags: W
HStem: 0 33<44 139.733 242.267 338 457 552.733 655.267 751> 339 33<237 558> 650 33<44 139.733 242.267 338 457 552.733 655.267 751>
VStem: 145 92<37.9582 339 372 645.042> 558 92<37.9582 339 372 645.042>
LayerCount: 2
Fore
SplineSet
751 0 m 1
 604 3 l 1
 457 0 l 1
 457 33 l 1
 479 33 l 2
 556 33 558 44 558 81 c 2
 558 339 l 1
 237 339 l 1
 237 81 l 2
 237 44 239 33 316 33 c 2
 338 33 l 1
 338 0 l 1
 191 3 l 1
 44 0 l 1
 44 33 l 1
 66 33 l 2
 143 33 145 44 145 81 c 2
 145 602 l 2
 145 639 143 650 66 650 c 2
 44 650 l 1
 44 683 l 1
 191 680 l 1
 338 683 l 1
 338 650 l 1
 316 650 l 2
 239 650 237 639 237 602 c 2
 237 372 l 1
 558 372 l 1
 558 602 l 2
 558 639 556 650 479 650 c 2
 457 650 l 1
 457 683 l 1
 604 680 l 1
 751 683 l 1
 751 650 l 1
 729 650 l 2
 652 650 650 639 650 602 c 2
 650 81 l 2
 650 44 652 33 729 33 c 2
 751 33 l 1
 751 0 l 1
EndSplineSet
EndChar

StartChar: Eth
Encoding: 208 208 294
Width: 811
Flags: W
HStem: 0 37<34 140.156 241.75 490.773> 324 36<34 143 241 408> 646 37<34 140.156 241.75 491.539>
VStem: 143 98<41.5551 324 360 641.445> 640 113<217.045 457.373>
AnchorPoint: "below" 370 -20 basechar 0
AnchorPoint: "top" 379 749 basechar 0
LayerCount: 2
Fore
SplineSet
425 0 m 2
 34 0 l 1
 34 37 l 1
 63 37 l 2
 141 37 143 46 143 80 c 2
 143 324 l 1
 34 324 l 1
 34 360 l 1
 143 360 l 1
 143 603 l 2
 143 637 141 646 63 646 c 2
 34 646 l 1
 34 683 l 1
 425 683 l 2
 608 683 753 526 753 336 c 0
 753 148 605 0 425 0 c 2
586 555 m 0
 532 625 460 646 395 646 c 2
 289 646 l 2
 241 646 241 640 241 610 c 2
 241 360 l 1
 408 360 l 1
 408 324 l 1
 241 324 l 1
 241 73 l 2
 241 43 241 37 289 37 c 2
 396 37 l 2
 502 37 562 93 583 120 c 0
 620 168 640 226 640 336 c 0
 640 413 630 498 586 555 c 0
EndSplineSet
Position2: "'cpsp' Capital Spacing lookup 0 subtable" dx=7 dy=0 dh=14 dv=0
EndChar

StartChar: eth
Encoding: 240 240 295
Width: 531
Flags: W
HStem: -11 31<204.911 324.216> 421 28<208.34 315.309> 664 32<80.5938 120.621>
VStem: 26 96<121.134 311.644> 407 95<120.996 324.585>
LayerCount: 2
Fore
SplineSet
501 198 m 0
 497 139 474 92 428 50 c 0
 398 23 340 -11 265 -11 c 0
 134 -11 26 89 26 214 c 0
 26 348 139 449 262 449 c 0
 313 449 354 423 382 390 c 1
 354 469 301 538 232 589 c 1
 140 539 l 1
 121 571 l 1
 196 612 l 1
 160 634 119 652 72 664 c 1
 83 696 l 1
 141 683 196 664 247 639 c 1
 345 692 l 1
 365 660 l 1
 286 618 l 1
 348 580 402 529 441 467 c 0
 472 418 487 373 495 334 c 0
 502 296 502 264 502 239 c 0
 502 226 502 212 501 198 c 0
264 421 m 0
 231 421 187 407 156 365 c 0
 125 322 122 268 122 223 c 0
 122 185 124 127 151 85 c 0
 179 41 222 20 265 20 c 0
 284 20 407 26 407 215 c 0
 407 335 341 421 264 421 c 0
EndSplineSet
Substitution2: "'smcp' Lowercase to Small Capitals lookup 14 subtable" Eth.sc
Substitution2: "'ss05' Style Set 5 lookup 23 IPA alts-1" eth.ipa
EndChar

StartChar: eturned
Encoding: 477 477 298
Width: 472
Flags: W
HStem: -10 28<165.617 271.625> 182 26<98 351> 415 31<134.761 264.782>
VStem: 30 68<88.1691 182> 30 31<302.007 343.574> 351 90<119.626 182 208 312.328>
AnchorPoint: "below" 221 -39 basechar 0
AnchorPoint: "top" 218 479 basechar 0
LayerCount: 2
Fore
SplineSet
441 217 m 0xec
 441 93 344 -10 220 -10 c 0
 79 -10 30 96 30 185 c 0
 30 208 36 208 58 208 c 2
 352 208 l 1
 352 238 352 302 322 348 c 0
 292 394 246 415 201 415 c 0
 183 415 97 412 61 315 c 0
 59 309 57 302 46 302 c 0
 33 302 30 312 30 316 c 0
 30 339 80 446 207 446 c 0
 333 446 441 346 441 217 c 0xec
351 182 m 1
 98 182 l 1xf4
 99 159 103 18 220 18 c 0
 257 18 342 42 351 182 c 1
EndSplineSet
EndChar

StartChar: Euro
Encoding: 8364 8364 299
Width: 665
Flags: W
HStem: -21 32<362.197 495.804> 268 32<58.4033 120 225 510.879> 384 32<58.4033 120 225 544.905> 672 32<362.197 495.804>
VStem: 124 101<191.733 268 300 384 416 491.494> 574 32<91.1562 152.859 530.174 592.688>
CounterMasks: 1 f0
LayerCount: 2
Fore
SplineSet
606 -9 m 2
 606 -16 601 -21 594 -21 c 2
 592 -21 l 2
 588 -21 585 -20 583 -17 c 2
 544 24 l 1
 511 -4 469 -21 423 -21 c 0
 339 -21 261 21 207 86 c 0
 163 138 136 201 124 268 c 1
 70 268 l 2
 62 268 56 275 58 283 c 2
 61 291 l 2
 62 296 67 300 72 300 c 2
 120 300 l 1
 119 314 118 328 118 342 c 0
 118 356 119 370 120 384 c 1
 70 384 l 2
 62 384 56 391 58 399 c 2
 61 407 l 2
 62 412 67 416 72 416 c 2
 124 416 l 1
 136 482 163 545 207 597 c 0
 261 662 339 704 423 704 c 0
 469 704 511 688 544 660 c 1
 583 701 l 2
 585 703 588 704 592 704 c 2
 594 704 l 2
 601 704 606 699 606 692 c 2
 606 542 l 2
 606 535 601 530 594 530 c 2
 586 530 l 2
 580 530 575 535 574 541 c 0
 566 615 505 672 432 672 c 0
 367 672 310 633 275 578 c 0
 244 530 230 473 225 416 c 1
 536 416 l 2
 543 416 549 410 548 404 c 2
 545 392 l 2
 543 387 539 384 533 384 c 2
 223 384 l 1
 222 342 l 1
 223 300 l 1
 500 300 l 2
 508 300 514 294 512 288 c 2
 509 276 l 2
 508 271 503 268 498 268 c 2
 225 268 l 1
 230 210 244 154 275 105 c 0
 310 50 367 11 432 11 c 0
 505 11 566 69 574 143 c 0
 575 149 580 153 586 153 c 2
 594 153 l 2
 601 153 606 148 606 141 c 2
 606 -9 l 2
EndSplineSet
EndChar

StartChar: exclamdown
Encoding: 161 161 300
Width: 295
Flags: W
HStem: 389 111<100.764 194.161>
VStem: 88 119<-203.785 -151 401.681 487.236>
LayerCount: 2
Fore
SplineSet
147 389 m 0
 115 389 88 414 88 444 c 0
 88 475 115 500 147 500 c 0
 180 500 207 475 207 444 c 0
 207 414 180 389 147 389 c 0
147 -216 m 0
 119 -216 85 -197 88 -162 c 2
 129 290 l 2
 131 307 134 315 147 315 c 0
 162 315 164 306 165 289 c 2
 206 -151 l 1
 207 -162 l 2
 207 -197 176 -216 147 -216 c 0
EndSplineSet
Ligature2: "'liga' Standard Ligatures lookup 9 subtable" exclam quoteleft
Ligature2: "'liga' Standard Ligatures lookup 9 subtable" exclam grave
Ligature2: "'dlig' Discretionary Ligatures lookup 13 subtable" exclam quoteleft
Ligature2: "'dlig' Discretionary Ligatures lookup 13 subtable" exclam grave
EndChar

StartChar: florin
Encoding: 402 402 301
Width: 344
Flags: W
HStem: 0 39<41 119.822 208.36 306> 395 38<35 122 206 333> 670 34<251.417 320.386>
VStem: 122 84<43.2297 395 433 619.939> 301 102<590.44 666.528>
AnchorPoint: "below" 166 -29 basechar 0
AnchorPoint: "top" 278 751 basechar 0
LayerCount: 2
Fore
SplineSet
352 582 m 0
 323 582 301 602 301 630 c 0
 301 642 305 657 321 667 c 1
 317 668 l 2
 312 669 306 670 298 670 c 0
 254 670 202 628 202 542 c 2
 202 433 l 1
 333 433 l 1
 333 395 l 1
 206 395 l 1
 206 82 l 2
 206 48 208 39 282 39 c 2
 306 39 l 1
 306 0 l 1
 234 3 232 3 170 3 c 0
 144 3 86 3 41 0 c 1
 41 39 l 1
 113 39 122 39 122 80 c 2
 122 395 l 1
 35 395 l 1
 35 433 l 1
 122 433 l 1
 122 541 l 2
 122 650 218 704 299 704 c 0
 356 704 403 675 403 630 c 0
 403 602 382 582 352 582 c 0
EndSplineSet
EndChar

StartChar: fraction
Encoding: 8260 8260 302
Width: 589
Flags: W
HStem: -3 21G<75.5 86> 666 20G<503 513.5>
LayerCount: 2
Fore
SplineSet
530 663 m 0
 530 659 529 654 526 651 c 2
 101 7 l 2
 97 1 90 -3 82 -3 c 0
 69 -3 59 7 59 20 c 0
 59 25 60 29 63 33 c 2
 488 676 l 2
 492 682 499 686 507 686 c 0
 520 686 530 676 530 663 c 0
EndSplineSet
EndChar

StartChar: fraction.alt
Encoding: 8725 8725 303
Width: 0
Flags: W
HStem: -3 21G<-218.5 -208> 666 20G<209 219.5>
LayerCount: 2
Fore
SplineSet
236 663 m 0
 236 659 235 654 232 651 c 2
 -193 7 l 2
 -197 1 -204 -3 -212 -3 c 0
 -225 -3 -235 7 -235 20 c 0
 -235 25 -234 29 -231 33 c 2
 194 676 l 2
 198 682 205 686 213 686 c 0
 226 686 236 676 236 663 c 0
EndSplineSet
EndChar

StartChar: Gamma
Encoding: 915 915 306
Width: 664
Flags: W
HStem: 0 33<44 139.733 243.302 363> 647 33<44 139.733 238.868 500.911>
VStem: 145 92<39.9996 641.761>
LayerCount: 2
Fore
SplineSet
619 453 m 1
 588 453 l 1
 571 582 555 647 400 647 c 2
 285 647 l 2
 239 647 237 640 237 606 c 2
 237 82 l 2
 237 47 237 33 331 33 c 2
 363 33 l 1
 363 0 l 1
 318 3 245 3 198 3 c 2
 44 0 l 1
 44 33 l 1
 66 33 l 2
 143 33 145 44 145 81 c 2
 145 599 l 2
 145 636 143 647 66 647 c 2
 44 647 l 1
 44 680 l 1
 590 680 l 1
 619 453 l 1
EndSplineSet
EndChar

StartChar: germandbls
Encoding: 223 223 317
Width: 531
Flags: W
HStem: -11 28<264.525 357.106> 0 37<26 106.922> 397 36<26 109> 677 28<237.457 336.813>
VStem: 109 76<39.7489 397 433 627.574> 210 83<34.0146 102.351> 387 86<494.307 628.876> 417 85<89.563 278.939>
LayerCount: 2
Fore
SplineSet
314 -11 m 0xbd
 251 -11 210 26 210 67 c 0
 210 94 232 107 251 107 c 0
 274 107 293 92 293 68 c 0
 293 46 277 35 264 31 c 1
 282 18 302 17 311 17 c 0
 349 17 417 48 417 174 c 0xbd
 417 277 374 396 251 406 c 0
 239 407 238 419 238 419 c 1
 238 432 249 432 258 433 c 0
 351 441 387 500 387 562 c 0
 387 648 330 677 288 677 c 0
 268 677 185 667 185 556 c 2
 185 -1 l 1
 163 3 145 3 134 3 c 2
 26 0 l 1
 26 37 l 1
 101 37 109 37 109 78 c 2
 109 397 l 1
 26 397 l 1
 26 433 l 1
 109 433 l 1
 109 554 l 2
 109 656 206 705 288 705 c 0
 395 705 473 638 473 561 c 0x7e
 473 504 428 444 338 418 c 1
 470 363 502 246 502 175 c 0
 502 63 407 -11 314 -11 c 0xbd
EndSplineSet
Substitution2: "'smcp' Lowercase to Small Capitals lookup 14 subtable" Germandbls.sc
EndChar

StartChar: uni0300
Encoding: 768 768 318
Width: 0
Flags: W
HStem: 507 191
VStem: -398 198
AnchorPoint: "Hebrew-3" -239 468 mark 0
AnchorPoint: "mkmk" -276 506 mark 0
AnchorPoint: "mkmk" -252 711 basemark 0
AnchorPoint: "top" -296 506 mark 0
AnchorPoint: "topleft" -242 506 mark 0
LayerCount: 2
Fore
SplineSet
-200 530 m 1
 -221 507 l 1
 -378 625 l 2
 -389 633 -398 642 -398 658 c 0
 -398 681 -377 698 -359 698 c 0
 -355 698 -341 698 -328 682 c 2
 -200 530 l 1
EndSplineSet
EndChar

StartChar: guillemotleft
Encoding: 171 171 319
Width: 590
Flags: W
HStem: 0 21G<278 287 455 464>
VStem: 268 29<1.41056 41.1371 441.896 481.596> 445 29<1.41056 41.1371 441.896 481.596>
LayerCount: 2
Fore
SplineSet
460 0 m 2
 458 0 l 2
 452 0 447 4 445 9 c 0
 414 92 363 169 296 233 c 0
 292 235 291 239 291 242 c 0
 291 245 293 248 296 251 c 0
 363 314 414 390 445 475 c 0
 447 481 453 483 458 483 c 2
 460 483 l 2
 468 483 474 478 474 470 c 2
 474 468 l 1
 454 388 420 312 375 242 c 1
 420 172 454 95 474 15 c 1
 474 13 l 2
 474 5 468 0 460 0 c 2
283 0 m 2
 281 0 l 2
 275 0 270 4 268 9 c 0
 237 92 186 169 119 233 c 0
 115 235 114 239 114 242 c 0
 114 245 116 248 119 251 c 0
 186 314 237 390 268 475 c 0
 270 481 276 483 281 483 c 2
 283 483 l 2
 291 483 297 478 297 470 c 2
 297 468 l 1
 277 388 243 312 198 242 c 1
 243 172 277 95 297 15 c 1
 297 13 l 2
 297 5 291 0 283 0 c 2
EndSplineSet
Substitution2: "'cv04' Character Variants 04 in Greek lookup 24-1" guillemotleft.gr
Substitution2: "'cv03' Character Variants 03 in Cyrillic lookup 23-1" guillemotleft.cyr
EndChar

StartChar: guillemotright
Encoding: 187 187 320
Width: 590
Flags: W
HStem: 0 21G<125 134 302 311>
VStem: 116 28<1.91049 40.1172 443.555 481.456> 293 28<1.91049 40.1172 443.555 481.456>
LayerCount: 2
Fore
SplineSet
471 233 m 0
 403 169 352 93 321 9 c 0
 319 4 314 0 308 0 c 2
 306 0 l 2
 298 0 293 5 293 13 c 2
 293 15 l 1
 312 95 345 172 392 242 c 1
 345 312 312 388 293 468 c 1
 293 470 l 2
 293 478 298 483 306 483 c 2
 308 483 l 2
 314 483 320 481 321 475 c 0
 353 390 403 314 471 251 c 0
 473 248 475 245 475 242 c 0
 475 238 472 234 471 233 c 0
294 233 m 0
 226 169 175 93 144 9 c 0
 142 4 137 0 131 0 c 2
 129 0 l 2
 121 0 116 5 116 13 c 2
 116 15 l 1
 135 95 168 172 215 242 c 1
 168 312 135 388 116 468 c 1
 116 470 l 2
 116 478 121 483 129 483 c 2
 131 483 l 2
 136 483 143 481 144 475 c 0
 176 390 226 314 294 251 c 0
 295 248 298 245 298 242 c 0
 298 238 295 234 294 233 c 0
EndSplineSet
Substitution2: "'cv04' Character Variants 04 in Greek lookup 24-1" guillemotright.gr
Substitution2: "'cv03' Character Variants 03 in Cyrillic lookup 23-1" guillemotright.cyr
EndChar

StartChar: guilsinglleft
Encoding: 8249 8249 321
Width: 413
Flags: W
HStem: 0 21G<276.5 286.5>
VStem: 268 27<1.95117 39.4883 443.512 481.049>
LayerCount: 2
Fore
SplineSet
295 12 m 2
 295 5 290 0 283 0 c 2
 279 0 l 2
 274 0 269 3 268 8 c 0
 237 93 187 170 122 233 c 0
 119 235 118 238 118 242 c 0
 118 245 119 248 122 250 c 0
 187 313 237 390 268 475 c 0
 269 480 274 483 279 483 c 2
 283 483 l 2
 290 483 295 478 295 471 c 2
 295 468 l 1
 275 388 242 311 196 242 c 1
 242 172 275 95 295 15 c 1
 295 12 l 2
EndSplineSet
EndChar

StartChar: guilsinglright
Encoding: 8250 8250 322
Width: 413
Flags: W
HStem: 0 21G<127 136.5>
VStem: 118 28<1.6506 14.9531 468.047 481.349>
LayerCount: 2
Fore
SplineSet
295 242 m 0
 295 238 294 235 292 233 c 0
 226 170 176 93 146 8 c 0
 144 3 139 0 134 0 c 2
 130 0 l 2
 124 0 118 5 118 12 c 0
 118 13 118 14 119 15 c 0
 138 95 172 172 217 242 c 1
 172 311 138 388 119 468 c 0
 118 469 118 470 118 471 c 0
 118 478 124 483 130 483 c 2
 134 483 l 2
 139 483 144 480 146 475 c 0
 176 390 226 313 292 250 c 0
 294 248 295 245 295 242 c 0
EndSplineSet
EndChar

StartChar: Hbar
Encoding: 294 294 323
Width: 796
Flags: W
HStem: 0 33<44 139.733 242.267 338 457 552.733 655.267 751> 339 33<237 558> 497 32<44 145 237 558 650 751> 650 33<44 139.733 242.267 338 457 552.733 655.267 751>
VStem: 145 92<37.9582 339 372 497 529 645.042> 558 92<37.9582 339 372 497 529 645.042>
AnchorPoint: "below" 402 -22 basechar 0
AnchorPoint: "top" 403 707 basechar 0
LayerCount: 2
Fore
SplineSet
751 0 m 1
 604 3 l 1
 457 0 l 1
 457 33 l 1
 479 33 l 2
 556 33 558 44 558 81 c 2
 558 339 l 1
 237 339 l 1
 237 81 l 2
 237 44 239 33 316 33 c 2
 338 33 l 1
 338 0 l 1
 191 3 l 1
 44 0 l 1
 44 33 l 1
 66 33 l 2
 143 33 145 44 145 81 c 2
 145 497 l 1
 44 497 l 1
 44 529 l 1
 145 529 l 1
 145 602 l 2
 145 639 143 650 66 650 c 2
 44 650 l 1
 44 683 l 1
 191 680 l 1
 338 683 l 1
 338 650 l 1
 316 650 l 2
 239 650 237 639 237 602 c 2
 237 529 l 1
 558 529 l 1
 558 602 l 2
 558 639 556 650 479 650 c 2
 457 650 l 1
 457 683 l 1
 604 680 l 1
 751 683 l 1
 751 650 l 1
 729 650 l 2
 652 650 650 639 650 602 c 2
 650 529 l 1
 751 529 l 1
 751 497 l 1
 650 497 l 1
 650 81 l 2
 650 44 652 33 729 33 c 2
 751 33 l 1
 751 0 l 1
558 372 m 1
 558 497 l 1
 237 497 l 1
 237 372 l 1
 558 372 l 1
EndSplineSet
Position2: "'cpsp' Capital Spacing lookup 0 subtable" dx=7 dy=0 dh=14 dv=0
EndChar

StartChar: hbar
Encoding: 295 295 324
Width: 590
Flags: W
HStem: 0 33<41 112.781 197.219 269 334 405.781 490.219 562> 413 28<277.822 379.788> 531 32<41 117 190 295> 650 33<41 110.238> 674 20G<41 190>
VStem: 117 73<36.7683 337.892 353 531 563 644.709> 410 76<36.0171 388.912>
AnchorPoint: "bottom" 448 4 basechar 0
AnchorPoint: "below" 302 -20 basechar 0
AnchorPoint: "top" 312 765 basechar 0
LayerCount: 2
Fore
SplineSet
562 0 m 1xee
 519 3 477 3 448 3 c 0
 421 3 377 3 334 0 c 1
 334 33 l 1
 398 33 410 33 410 78 c 2
 410 307 l 2
 410 370 395 413 334 413 c 0
 273 413 193 364 193 259 c 2
 193 78 l 2
 193 33 205 33 269 33 c 1
 269 0 l 1
 226 3 184 3 155 3 c 0
 128 3 84 3 41 0 c 1
 41 33 l 1
 105 33 117 33 117 78 c 2
 117 531 l 1
 41 531 l 1
 41 563 l 1
 117 563 l 1
 117 594 l 2
 117 643 109 650 41 650 c 1
 41 683 l 1xf6
 190 694 l 1
 190 563 l 1
 295 563 l 1
 295 531 l 1
 190 531 l 1
 190 353 l 1
 191 353 l 1
 209 385 255 441 343 441 c 0
 448 441 486 387 486 303 c 2
 486 78 l 2
 486 33 498 33 562 33 c 1
 562 0 l 1xee
EndSplineSet
EndChar

StartChar: uni0309
Encoding: 777 777 333
Width: 0
Flags: W
HStem: 681 24<-324.604 -228.273>
VStem: -369 61<609.443 666.808> -285 24<500.004 558.691> -220 58<608.013 673.258>
AnchorPoint: "mkmk" -270 483 mark 0
AnchorPoint: "mkmk" -272 740 basemark 0
AnchorPoint: "top" -264 466 mark 0
LayerCount: 2
Fore
SplineSet
-162 639 m 0
 -162 619 -177 603 -195 594 c 0
 -237 575 -261 556 -261 530 c 2
 -261 512 l 2
 -261 505 -266 500 -273 500 c 0
 -280 500 -285 505 -285 512 c 2
 -285 530 l 2
 -285 564 -263 594 -232 615 c 0
 -224 620 -220 629 -220 639 c 0
 -220 655 -222 664 -228 670 c 0
 -238 678 -253 681 -273 681 c 0
 -295 681 -315 676 -328 667 c 1
 -316 663 -308 653 -308 639 c 0
 -308 620 -322 608 -338 608 c 0
 -354 608 -369 620 -369 638 c 2
 -369 641 l 2
 -367 684 -322 705 -273 705 c 0
 -242 705 -217 702 -194 690 c 0
 -175 679 -162 660 -162 639 c 0
EndSplineSet
EndChar

StartChar: hungarumlaut
Encoding: 733 733 334
Width: 531
Flags: W
HStem: 508 189
VStem: 190 78<665 691.715> 367 78<665 691.715>
AnchorPoint: "top" 262 506 mark 0
LayerCount: 2
Fore
SplineSet
268 658 m 0
 268 646 262 639 254 628 c 2
 160 508 l 1
 134 524 l 1
 190 665 l 2
 194 676 203 697 227 697 c 0
 244 697 268 683 268 658 c 0
445 658 m 0
 445 646 439 639 431 628 c 2
 337 508 l 1
 311 524 l 1
 367 665 l 2
 371 676 380 697 404 697 c 0
 421 697 445 683 445 658 c 0
EndSplineSet
EndChar

StartChar: uni030B
Encoding: 779 779 335
Width: 0
Flags: W
HStem: 508 189
VStem: -341 78<665 691.715> -164 78<665 691.715>
AnchorPoint: "Hebrew-3" -248 468 mark 0
AnchorPoint: "mkmk" -264 507 mark 0
AnchorPoint: "mkmk" -238 714 basemark 0
AnchorPoint: "top" -273 507 mark 0
LayerCount: 2
Fore
SplineSet
-263 658 m 0
 -263 646 -269 639 -277 628 c 2
 -371 508 l 1
 -397 524 l 1
 -341 665 l 2
 -337 676 -328 697 -304 697 c 0
 -287 697 -263 683 -263 658 c 0
-86 658 m 0
 -86 646 -92 639 -100 628 c 2
 -194 508 l 1
 -220 524 l 1
 -164 665 l 2
 -160 676 -151 697 -127 697 c 0
 -110 697 -86 683 -86 658 c 0
EndSplineSet
EndChar

StartChar: iacute
Encoding: 237 237 337
Width: 295
Flags: W
HStem: 0 33<42 113.781 194.306 260> 397 33<45 111.777> 421 20G<45 191> 504.054 167.676
VStem: 72.485 220.386 118 73<36.0171 392.518>
AnchorPoint: "bottom" 156 4 basechar 0
AnchorPoint: "below" 156 -22 basechar 0
AnchorPoint: "top" 157 715 basechar 0
LayerCount: 2
Fore
SplineSet
152 3 m 1030x90
EndSplineSet
Refer: 2135 714 N 1 0 0 1 -132 -17 2
Refer: 248 305 N 1 0 0 1 0 0 3
Substitution2: "'smcp' Lowercase to Small Capitals lookup 14 subtable" Iacute.sc
EndChar

StartChar: icircumflex
Encoding: 238 238 343
Width: 295
Flags: W
HStem: 0 33<42 113.781 194.306 260> 397 33<45 111.777> 421 20G<45 191> 508 176
VStem: 2 304 118 73<36.0171 392.518>
AnchorPoint: "bottom" 156 4 basechar 0
AnchorPoint: "below" 156 -22 basechar 0
AnchorPoint: "top" 152 715 basechar 0
LayerCount: 2
Fore
SplineSet
152 3 m 1030x90
EndSplineSet
Refer: 216 710 N 1 0 0 1 -112 -7 2
Refer: 248 305 N 1 0 0 1 0 0 3
Substitution2: "'smcp' Lowercase to Small Capitals lookup 14 subtable" Icircumflex.sc
EndChar

StartChar: idieresis
Encoding: 239 239 347
Width: 295
Flags: W
HStem: 0 33<42 113.781 194.306 260> 397 33<45 111.777> 421 20G<45 191> 505 100<18.648 99.883 199.648 280.883>
VStem: 10 99<513.648 596.102> 118 73<36.0171 392.518> 191 99<513.648 596.102>
AnchorPoint: "bottom" 156 4 basechar 0
AnchorPoint: "below" 156 -22 basechar 0
AnchorPoint: "top" 146 645 basechar 0
LayerCount: 2
Fore
SplineSet
152 3 m 1030x98
EndSplineSet
Refer: 237 168 N 1 0 0 1 -115 -48 2
Refer: 248 305 N 1 0 0 1 0 0 3
Substitution2: "'smcp' Lowercase to Small Capitals lookup 14 subtable" Idieresis.sc
EndChar

StartChar: igrave
Encoding: 236 236 354
Width: 295
Flags: W
HStem: 0 33<42 113.781 194.306 260> 397 33<45 111.777> 421 20G<45 191> 509.984 167.815
VStem: -22.876 218.979 118 73<36.0171 392.518>
AnchorPoint: "bottom" 156 4 basechar 0
AnchorPoint: "below" 156 -22 basechar 0
AnchorPoint: "top" 155 715 basechar 0
LayerCount: 2
Fore
SplineSet
152 3 m 1030x90
EndSplineSet
Refer: 2136 715 N 1 0 0 1 -126 -11 2
Refer: 248 305 N 1 0 0 1 0 0 3
Substitution2: "'smcp' Lowercase to Small Capitals lookup 14 subtable" Igrave.sc
EndChar

StartChar: I_J
Encoding: 306 306 357
Width: 890
Flags: W
HStem: -21 28<496.875 606.197> 0 33<39 139.885 242.115 343> 58 111<448 494.375> 650 33<39 139.885 242.115 343 536 660.382 760.219 832>
VStem: 145 92<38.168 644.832> 396 110<72.2471 157.934> 667 89<69.3386 643.187>
AnchorPoint: "below" 450 -24 basechar 0
AnchorPoint: "top" 447 705 basechar 0
LayerCount: 2
Fore
SplineSet
343 0 m 1x7e
 191 3 l 1
 39 0 l 1
 39 33 l 1
 63 33 l 2
 142 33 145 43 145 81 c 2
 145 602 l 2
 145 640 142 650 63 650 c 2
 39 650 l 1
 39 683 l 1
 191 680 l 1
 343 683 l 1
 343 650 l 1
 319 650 l 2
 240 650 237 640 237 602 c 2
 237 81 l 2
 237 43 240 33 319 33 c 2
 343 33 l 1
 343 0 l 1x7e
832 650 m 1
 768 650 756 650 756 605 c 2
 756 149 l 2
 756 39 655 -21 563 -21 c 0
 469 -21 396 38 396 112 c 0
 396 155 430 169 451 169 c 0
 479 169 506 149 506 114 c 0
 506 76 476 59 448 58 c 1
 471 27 517 7 560 7 c 0xbe
 613 7 667 57 667 149 c 2
 667 601 l 2
 667 638 664 650 570 650 c 2
 536 650 l 1
 536 683 l 1
 577 680 653 680 697 680 c 0
 753 680 781 680 832 683 c 1
 832 650 l 1
EndSplineSet
LCarets2: 1 0
Ligature2: "'liga' Standard Ligatures lookup 9 subtable" I J
Position2: "'cpsp' Capital Spacing lookup 0 subtable" dx=7 dy=0 dh=14 dv=0
EndChar

StartChar: i_j
Encoding: 307 307 358
Width: 590
Flags: W
HStem: -204 28<297.92 383.9> 0 33<42 113.781 194.306 260> 397 33<45 111.777 336 412.483> 421 20G<45 191 336 493> 547 111<96.331 183.462 394.331 481.462>
VStem: 85 110<558.331 646.696> 118 73<36.0171 392.518> 230 94<-164.386 -84.0137> 383 110<558.331 646.696> 420 73<-130.922 391.188>
AnchorPoint: "below" 292 -252 basechar 0
AnchorPoint: "top" 302 715 basechar 0
AnchorPoint: "bottom" 183 0 basechar 0
LayerCount: 2
Fore
SplineSet
195 602 m 0xcd
 195 573 171 547 140 547 c 0
 108 547 85 573 85 602 c 0
 85 635 111 658 140 658 c 0
 169 658 195 635 195 602 c 0xcd
493 602 m 0xc980
 493 573 469 547 438 547 c 0
 406 547 383 573 383 602 c 0
 383 635 409 658 438 658 c 0
 467 658 493 635 493 602 c 0xc980
260 0 m 1
 225 3 165 3 152 3 c 0
 137 3 81 3 42 0 c 1
 42 33 l 1
 106 33 118 33 118 78 c 2
 118 342 l 2
 118 391 109 397 45 397 c 1
 45 430 l 1xeb
 191 441 l 1
 191 77 l 2xdb
 191 38 195 33 260 33 c 1
 260 0 l 1
493 -46 m 2xd940
 493 -140 428 -204 348 -204 c 0
 286 -204 230 -176 230 -125 c 0
 230 -94 252 -77 277 -77 c 0
 305 -77 324 -97 324 -124 c 0
 324 -152 303 -165 297 -167 c 1
 310 -172 332 -176 347 -176 c 0
 416 -176 420 -75 420 -48 c 2
 420 341 l 2
 420 390 411 397 336 397 c 1
 336 430 l 1xe940
 493 441 l 1
 493 -46 l 2xd940
EndSplineSet
LCarets2: 1 0
Substitution2: "'smcp' Lowercase to Small Capitals lookup 14 subtable" IJ.sc
Ligature2: "'liga' Standard Ligatures lookup 9 subtable" i j
EndChar

StartChar: infinity
Encoding: 8734 8734 361
Width: 1063
Flags: W
HStem: -26 76<744.907 886.993> -24 58<175.303 335.767> 381 76<176.007 318.093> 397 58<727.233 887.697>
VStem: 47 52<122.211 303.099> 964 52<128.257 309.131>
LayerCount: 2
Fore
SplineSet
478 193 m 1x6c
 429 252 l 2
 378 314 323 381 244 381 c 0
 160 381 99 303 99 216 c 0
 99 121 158 34 246 34 c 0
 346 34 422 106 478 193 c 1x6c
964 216 m 0
 964 310 905 397 817 397 c 0
 717 397 641 325 585 238 c 1
 634 179 l 2
 685 117 740 50 819 50 c 0x9c
 903 50 964 128 964 216 c 0
1016 216 m 0
 1016 85 921 -26 794 -26 c 0x9c
 696 -26 610 32 547 108 c 2
 524 137 l 1
 461 46 375 -24 267 -24 c 0
 141 -24 47 87 47 216 c 0
 47 346 142 457 269 457 c 0x6c
 367 457 453 399 516 323 c 2
 539 294 l 1
 602 385 688 455 796 455 c 0
 922 455 1016 344 1016 216 c 0
EndSplineSet
EndChar

StartChar: interrobang
Encoding: 8253 8253 362
Width: 502
Flags: W
HStem: 0 111<207.118 294.078> 521 95<90 130.508>
VStem: 44 94<528.265 607.883> 195 111<11.9218 99.1533> 207 88<698.517 704.999 705 750.824> 235 31<191.004 337.098> 338 89<495.323 641.038>
LayerCount: 2
Fore
SplineSet
306 56 m 0xf2
 306 25 281 0 250 0 c 0
 222 0 195 22 195 56 c 0
 195 84 218 111 251 111 c 0
 281 111 306 86 306 56 c 0xf2
427 568 m 0
 427 505 391 477 374 463 c 0
 313 414 266 342 266 248 c 2
 266 217 l 2
 266 197 266 191 250 191 c 0
 238 191 235 196 235 207 c 2
 235 237 l 2xe6
 235 248 235 261 236 276 c 2
 209 673 l 1
 171 668 119 654 90 616 c 1
 112 615 138 601 138 568 c 0
 138 537 114 521 91 521 c 0
 75 521 44 530 44 570 c 0
 44 642 113 690 207 701 c 0
 207 703 206 705 206 705 c 1
 206 737 228 758 251 758 c 0
 272 758 295 739 295 705 c 2
 295 701 l 1xea
 406 686 427 613 427 568 c 0
338 575 m 0
 338 612 338 654 293 670 c 1
 276 428 l 1
 285 446 297 464 311 483 c 0
 326 503 338 519 338 575 c 0
EndSplineSet
EndChar

StartChar: Iota
Encoding: 921 921 365
Width: 383
Flags: W
HStem: 0 33<39 139.885 242.115 343> 650 33<39 139.885 242.115 343>
VStem: 145 92<38.168 644.832>
LayerCount: 2
Fore
SplineSet
343 0 m 1
 191 3 l 1
 39 0 l 1
 39 33 l 1
 63 33 l 2
 142 33 145 43 145 81 c 2
 145 602 l 2
 145 640 142 650 63 650 c 2
 39 650 l 1
 39 683 l 1
 191 680 l 1
 343 683 l 1
 343 650 l 1
 319 650 l 2
 240 650 237 640 237 602 c 2
 237 81 l 2
 237 43 240 33 319 33 c 2
 343 33 l 1
 343 0 l 1
EndSplineSet
EndChar

StartChar: Kappa
Encoding: 922 922 371
Width: 825
Flags: W
HStem: 0 33<44 139.733 242.267 338 524 574.162 704.111 779> 650 33<44 139.733 242.267 338 552 586.49 690.869 765>
VStem: 145 92<37.9582 248 289 645.042>
LayerCount: 2
Fore
SplineSet
779 0 m 1
 744 3 688 3 661 3 c 2
 524 0 l 1
 524 33 l 1
 542 33 577 33 577 61 c 0
 577 73 571 82 561 95 c 2
 366 362 l 1
 237 248 l 1
 237 81 l 2
 237 44 239 33 316 33 c 2
 338 33 l 1
 338 0 l 1
 191 3 l 1
 44 0 l 1
 44 33 l 1
 66 33 l 2
 143 33 145 44 145 81 c 2
 145 602 l 2
 145 639 143 650 66 650 c 2
 44 650 l 1
 44 683 l 1
 191 680 l 1
 338 683 l 1
 338 650 l 1
 316 650 l 2
 239 650 237 639 237 602 c 2
 237 289 l 1
 568 582 l 2
 587 599 590 612 590 620 c 0
 590 640 572 649 552 650 c 1
 552 683 l 1
 618 680 621 680 672 680 c 0
 724 680 726 680 765 683 c 1
 765 650 l 1
 742 649 689 648 623 589 c 2
 427 416 l 1
 680 73 l 2
 709 33 743 33 779 33 c 1
 779 0 l 1
EndSplineSet
EndChar

StartChar: Lambda
Encoding: 923 923 376
Width: 737
Flags: W
HStem: 0 33<35 97.7126 185.125 240 434 509.753 622.696 701>
LayerCount: 2
Fore
SplineSet
701 0 m 1
 656 3 613 3 574 3 c 2
 434 0 l 1
 434 33 l 1
 460 33 515 33 515 63 c 0
 515 66 515 68 510 81 c 2
 337 575 l 1
 172 104 l 2
 167 91 167 89 167 84 c 0
 167 58 191 34 240 33 c 1
 240 0 l 1
 195 3 147 3 130 3 c 0
 102 3 67 3 35 0 c 1
 35 33 l 1
 89 34 119 55 135 100 c 2
 342 691 l 2
 348 707 353 714 368 714 c 0
 383 714 388 707 394 691 c 2
 610 73 l 2
 624 33 642 33 701 33 c 1
 701 0 l 1
EndSplineSet
EndChar

StartChar: Lcaron
Encoding: 317 317 377
Width: 664
Flags: W
HStem: 0 33<44 139.733 238.868 475.704> 600 83<426.739 492.9> 650 33<44 139.733 243.302 363>
VStem: 145 92<38.2392 643> 493 21<545.188 610.655>
AnchorPoint: "below" 351 -22 basechar 0
AnchorPoint: "top" 192 749 basechar 0
LayerCount: 2
Fore
SplineSet
619 260 m 1xb8
 590 0 l 1
 44 0 l 1
 44 33 l 1
 66 33 l 2
 143 33 145 44 145 81 c 2
 145 602 l 2
 145 639 143 650 66 650 c 2
 44 650 l 1
 44 683 l 1
 198 680 l 2
 245 680 318 680 363 683 c 1
 363 650 l 1
 331 650 l 2
 237 650 237 636 237 601 c 2
 237 74 l 2
 237 40 239 33 285 33 c 2
 378 33 l 2
 561 33 576 156 588 260 c 1
 619 260 l 1xb8
514 603 m 0
 514 513 452 454 442 454 c 0
 438 454 431 459 431 466 c 0
 431 470 434 472 436 474 c 0
 493 527 493 589 493 611 c 1
 491 609 480 600 464 600 c 0
 437 600 422 619 422 642 c 0
 422 664 438 683 463 683 c 0xd8
 499 683 514 644 514 603 c 0
EndSplineSet
Position2: "'cpsp' Capital Spacing lookup 0 subtable" dx=7 dy=0 dh=14 dv=0
EndChar

StartChar: lcaron
Encoding: 318 318 378
Width: 295
Flags: W
HStem: 0 33<42 113.781 195.219 267> 611 83<234.739 300.9> 650 33<42 111.238>
VStem: 118 73<36.0171 644.709> 301 21<556.188 621.655>
AnchorPoint: "below" 154 -23 basechar 0
AnchorPoint: "top" 156 775 basechar 0
LayerCount: 2
Fore
SplineSet
267 0 m 1xd8
 228 3 174 3 154 3 c 0
 137 3 81 3 42 0 c 1
 42 33 l 1
 106 33 118 33 118 78 c 2
 118 594 l 2
 118 643 110 650 42 650 c 1
 42 683 l 1xb8
 191 694 l 1
 191 78 l 2
 191 33 203 33 267 33 c 1
 267 0 l 1xd8
322 614 m 0
 322 524 260 465 250 465 c 0
 246 465 239 470 239 477 c 0
 239 481 242 483 244 485 c 0
 301 538 301 600 301 622 c 1
 299 620 288 611 272 611 c 0
 245 611 230 630 230 653 c 0
 230 675 246 694 271 694 c 0xd8
 307 694 322 655 322 614 c 0
EndSplineSet
Substitution2: "'smcp' Lowercase to Small Capitals lookup 14 subtable" Lcaron.sc
EndChar

StartChar: Ldot
Encoding: 319 319 381
Width: 664
Flags: W
HStem: 0 33<44 139.733 238.868 475.704> 351 111<479.331 566.462> 650 33<44 139.733 243.302 363>
VStem: 145 92<38.2392 643> 468 110<362.331 450.696>
AnchorPoint: "below" 328 -20 basechar 0
AnchorPoint: "top" 192 749 basechar 0
LayerCount: 2
Fore
SplineSet
619 260 m 1
 590 0 l 1
 44 0 l 1
 44 33 l 1
 66 33 l 2
 143 33 145 44 145 81 c 2
 145 602 l 2
 145 639 143 650 66 650 c 2
 44 650 l 1
 44 683 l 1
 198 680 l 2
 245 680 318 680 363 683 c 1
 363 650 l 1
 331 650 l 2
 237 650 237 636 237 601 c 2
 237 74 l 2
 237 40 239 33 285 33 c 2
 378 33 l 2
 561 33 576 156 588 260 c 1
 619 260 l 1
578 406 m 0
 578 377 554 351 523 351 c 0
 491 351 468 377 468 406 c 0
 468 439 494 462 523 462 c 0
 552 462 578 439 578 406 c 0
EndSplineSet
Position2: "'cpsp' Capital Spacing lookup 0 subtable" dx=7 dy=0 dh=14 dv=0
EndChar

StartChar: ldot
Encoding: 320 320 382
Width: 295
Flags: W
HStem: 0 33<42 113.781 195.219 267> 312 111<258.331 345.462> 650 33<42 111.238> 674 20G<42 191>
VStem: 118 73<36.0171 644.709> 247 110<323.331 411.696>
AnchorPoint: "below" 157 -22 basechar 0
AnchorPoint: "top" 155 745 basechar 0
LayerCount: 2
Fore
SplineSet
267 0 m 1xdc
 228 3 174 3 154 3 c 0
 137 3 81 3 42 0 c 1
 42 33 l 1
 106 33 118 33 118 78 c 2
 118 594 l 2
 118 643 110 650 42 650 c 1
 42 683 l 1xec
 191 694 l 1
 191 78 l 2
 191 33 203 33 267 33 c 1
 267 0 l 1xdc
357 367 m 0
 357 338 333 312 302 312 c 0
 270 312 247 338 247 367 c 0
 247 400 273 423 302 423 c 0
 331 423 357 400 357 367 c 0
EndSplineSet
EndChar

StartChar: uni0332
Encoding: 818 818 387
Width: 0
Flags: W
HStem: -163 38<-456 -74>
AnchorPoint: "below" -265 -32 mark 0
AnchorPoint: "mkmk" -271 -253 basemark 0
AnchorPoint: "mkmk" -267 -32 mark 0
LayerCount: 2
Fore
SplineSet
-74 -163 m 1
 -456 -163 l 1
 -456 -125 l 1
 -74 -125 l 1
 -74 -163 l 1
EndSplineSet
EndChar

StartChar: lira
Encoding: 8356 8356 388
Width: 796
Flags: W
HStem: -34 58<528.185 647.528> -21 32<125.475 251.841> 155 32<138.011 291.703> 283 32<126 287 368 524> 368 32<126 273 352 524> 478 94<566.394 611> 651 32<419.927 545.291>
VStem: 64 32<39.6745 120.998> 272 76<400 542.124> 321 74<91.6621 137.243> 559 94<485.394 561.847> 700 32<86.5254 144>
CounterMasks: 2 78 0150
LayerCount: 2
Fore
SplineSet
732 144 m 1xbf70
 732 55 695 -34 617 -34 c 0xbf70
 530 -34 463 27 393 79 c 1
 378 3 272 -21 172 -21 c 0
 113 -21 64 25 64 83 c 0
 64 152 141 187 219 187 c 0
 255 187 288 175 319 158 c 1
 314 200 304 242 294 283 c 1
 126 283 l 1
 126 315 l 1
 287 315 l 1
 283 333 280 350 277 368 c 1
 126 368 l 1
 126 400 l 1
 273 400 l 1
 273 410 272 420 272 431 c 0
 272 562 352 683 473 683 c 0
 569 683 653 616 653 525 c 0
 653 499 632 478 606 478 c 0
 580 478 559 499 559 525 c 0
 559 551 580 572 606 572 c 2
 611 572 l 1
 589 620 534 651 473 651 c 0
 380 651 348 538 348 431 c 0x7fb0
 348 420 349 410 349 400 c 1
 524 400 l 1
 524 368 l 1
 352 368 l 1
 361 315 l 1
 524 315 l 1
 524 283 l 1
 368 283 l 1
 380 225 394 167 395 107 c 1
 451 66 507 24 576 24 c 0
 644 24 700 77 700 144 c 1
 732 144 l 1xbf70
321 116 m 2
 321 127 l 1
 290 144 256 155 219 155 c 0
 159 155 96 135 96 83 c 0
 96 42 131 11 172 11 c 0x7f70
 248 11 321 48 321 116 c 2
EndSplineSet
EndChar

StartChar: logicalnot
Encoding: 172 172 389
Width: 826
Flags: W
HStem: 322 45<56.032 719>
VStem: 719 48<133.115 322>
LayerCount: 2
Fore
SplineSet
743 133 m 0
 730 133 719 143 719 155 c 2
 719 322 l 1
 81 322 l 2
 67 322 56 332 56 345 c 0
 56 357 67 367 81 367 c 2
 743 367 l 2
 756 367 767 357 767 345 c 2
 767 155 l 2
 767 143 756 133 743 133 c 0
EndSplineSet
EndChar

StartChar: longs
Encoding: 383 383 390
Width: 325
Flags: W
HStem: 0 33<42 113.781 195.482 286> 398 33<36 118> 676 28<241.62 309.093>
VStem: 118 73<37.9118 398 431 623.998> 287 90<593.248 670.133>
AnchorPoint: "top" 279 751 basechar 0
AnchorPoint: "below" 161 -24 basechar 0
LayerCount: 2
Fore
SplineSet
377 632 m 0
 377 606 359 587 332 587 c 0
 306 587 287 606 287 632 c 0
 287 645 292 662 310 671 c 1
 310 671 297 676 281 676 c 0
 237 676 191 631 191 544 c 2
 191 80 l 2
 191 44 193 33 266 33 c 2
 286 33 l 1
 286 0 l 1
 221 3 219 3 160 3 c 0
 136 3 81 3 42 0 c 1
 42 33 l 1
 106 33 118 33 118 78 c 2
 118 398 l 1
 36 398 l 1
 36 431 l 1
 118 431 l 1
 118 543 l 2
 118 650 207 704 282 704 c 0
 335 704 377 675 377 632 c 0
EndSplineSet
EndChar

StartChar: Lslash
Encoding: 321 321 391
Width: 664
Flags: W
HStem: 0 33<44 139.733 238.868 475.704> 650 33<44 139.733 243.302 363>
VStem: 145 92<38.2392 291 337 365 411 643>
AnchorPoint: "below" 329 -23 basechar 0
AnchorPoint: "top" 192 749 basechar 0
LayerCount: 2
Fore
SplineSet
619 260 m 1
 590 0 l 1
 44 0 l 1
 44 33 l 1
 66 33 l 2
 143 33 145 44 145 81 c 2
 145 291 l 1
 78 237 l 1
 55 265 l 1
 145 337 l 1
 145 602 l 2
 145 639 143 650 66 650 c 2
 44 650 l 1
 44 683 l 1
 198 680 l 2
 245 680 318 680 363 683 c 1
 363 650 l 1
 331 650 l 2
 237 650 237 636 237 601 c 2
 237 411 l 1
 390 533 l 1
 413 505 l 1
 237 365 l 1
 237 74 l 2
 237 40 239 33 285 33 c 2
 378 33 l 2
 561 33 576 156 588 260 c 1
 619 260 l 1
EndSplineSet
Position2: "'cpsp' Capital Spacing lookup 0 subtable" dx=7 dy=0 dh=14 dv=0
EndChar

StartChar: lslash
Encoding: 322 322 392
Width: 357
Flags: W
HStem: 0 33<70 141.781 223.219 295> 650 33<70 139.238> 674 20G<70 219>
VStem: 146 73<36.0171 310 351 364 405 644.709>
AnchorPoint: "below" 182 -19 basechar 0
AnchorPoint: "top" 182 745 basechar 0
LayerCount: 2
Fore
SplineSet
303 427 m 1xb0
 219 364 l 1
 219 78 l 2
 219 33 231 33 295 33 c 1
 295 0 l 1
 256 3 202 3 182 3 c 0
 165 3 109 3 70 0 c 1
 70 33 l 1
 134 33 146 33 146 78 c 2
 146 310 l 1
 80 260 l 1
 60 288 l 1
 146 351 l 1
 146 594 l 2
 146 643 138 650 70 650 c 1
 70 683 l 1xd0
 219 694 l 1
 219 405 l 1
 284 453 l 1
 303 427 l 1xb0
EndSplineSet
Substitution2: "'smcp' Lowercase to Small Capitals lookup 14 subtable" Lslash.sc
EndChar

StartChar: macron
Encoding: 175 175 393
Width: 531
Flags: W
HStem: 589 31<71 460>
AnchorPoint: "mkmk" 271 517 mark 0
AnchorPoint: "mkmk" 262 694 basemark 0
AnchorPoint: "top" 271 515 mark 0
LayerCount: 2
Fore
SplineSet
71 589 m 1
 71 620 l 1
 460 620 l 1
 460 589 l 1
 71 589 l 1
EndSplineSet
EndChar

StartChar: uni0331
Encoding: 817 817 394
Width: 0
Flags: W
HStem: -163 38<-456 -74>
AnchorPoint: "below" -264 -32 mark 0
AnchorPoint: "mkmk" -271 -253 basemark 0
AnchorPoint: "mkmk" -267 -32 mark 0
LayerCount: 2
Fore
SplineSet
-74 -163 m 1
 -456 -163 l 1
 -456 -125 l 1
 -74 -125 l 1
 -74 -163 l 1
EndSplineSet
EndChar

StartChar: uni0304
Encoding: 772 772 395
Width: 0
Flags: W
HStem: 584 38<-456 -74>
AnchorPoint: "Hebrew-3" -250 468 mark 0
AnchorPoint: "mkmk" -251 508 mark 0
AnchorPoint: "mkmk" -260 685 basemark 0
AnchorPoint: "top" -251 506 mark 0
LayerCount: 2
Fore
SplineSet
-74 584 m 1
 -456 584 l 1
 -456 622 l 1
 -74 622 l 1
 -74 584 l 1
EndSplineSet
EndChar

StartChar: married
Encoding: 9901 9901 396
Width: 531
Flags: W
HStem: 36 53<50.4153 227.102 302.789 478.613> 73 61<241.482 286.696> 368 61<243.304 288.391> 413 54<51.136 227.111 302.797 478.825>
VStem: -85 53<169.338 331.9> 173 37<181.205 322.561> 320 37<179.03 321.809> 562 53<170.889 332.462>
CounterMasks: 1 0f
LayerCount: 2
Fore
SplineSet
615 252 m 0x2f
 615 131 512 36 393 36 c 0xaf
 366 36 338 41 313 50 c 0
 296 56 274 73 265 73 c 0x4f
 261 73 258 70 255 68 c 0
 219 46 181 36 140 36 c 0
 23 36 -85 126 -85 251 c 0
 -85 369 11 454 123 466 c 0
 129 467 134 467 140 467 c 0x9f
 168 467 196 461 221 451 c 0
 236 445 256 429 265 429 c 0
 269 429 272 432 275 434 c 0
 311 456 348 466 389 466 c 0
 508 466 615 374 615 252 c 0x2f
228 107 m 1
 194 149 173 196 173 251 c 0
 173 306 194 353 228 395 c 1
 199 406 171 413 139 413 c 0x9f
 43 413 -32 347 -32 251 c 0
 -32 143 53 89 138 89 c 0
 170 89 198 96 228 107 c 1
562 251 m 0
 562 351 482 413 391 413 c 0
 359 413 331 406 302 395 c 1
 336 353 357 306 357 251 c 0
 357 196 336 149 302 107 c 1
 332 96 360 89 392 89 c 0
 492 89 562 160 562 251 c 0
320 253 m 0
 320 285 289 368 265 368 c 0
 261 368 258 364 256 362 c 0
 227 333 210 290 210 249 c 0
 210 245 211 240 211 236 c 0
 216 199 245 134 265 134 c 0x6f
 269 134 272 138 274 140 c 0
 303 169 320 212 320 253 c 0
EndSplineSet
EndChar

StartChar: uni2127
Encoding: 8487 8487 399
Width: 767
Flags: W
HStem: -20 28<307.868 462.132> 616 68<98.9906 248 522 671.009>
VStem: 49 31<519 552> 61 104<141.341 328.08> 605 104<141.141 329.703> 690 31<519 552>
LayerCount: 2
Fore
SplineSet
721 519 m 1xc4
 690 519 l 1xc4
 688 529 677 580 670 597 c 0
 665 608 662 616 603 616 c 2
 522 616 l 1
 539 558 569 514 606 463 c 0
 661 385 709 317 709 230 c 0
 709 94 569 -20 385 -20 c 0
 201 -20 61 94 61 230 c 0xd8
 61 316 112 388 156 450 c 0
 201 514 231 557 248 616 c 1
 167 616 l 2
 108 616 105 608 100 597 c 0
 93 580 82 529 80 519 c 1
 49 519 l 1xe0
 84 684 l 1
 254 684 l 2
 277 684 283 684 283 661 c 0
 283 589 248 505 218 432 c 0
 193 370 165 301 165 230 c 0
 165 82 278 8 385 8 c 0
 492 8 605 81 605 230 c 0xd8
 605 302 576 374 548 442 c 0
 522 504 487 589 487 662 c 0
 487 684 494 684 515 684 c 2
 686 684 l 1
 721 519 l 1xc4
EndSplineSet
EndChar

StartChar: minus
Encoding: 8722 8722 400
Width: 826
Flags: W
HStem: 227 46<59.0578 765.942>
LayerCount: 2
Fore
SplineSet
766 250 m 0
 766 227 746 227 731 227 c 2
 94 227 l 2
 79 227 59 227 59 250 c 0
 59 273 83 273 98 273 c 2
 727 273 l 2
 742 273 766 273 766 250 c 0
EndSplineSet
EndChar

StartChar: Mu
Encoding: 924 924 401
Width: 973
Flags: W
HStem: 0 33<49 123.446 210.554 285 639 734.733 827.267 923> 650 33<49 144.733 827.267 923>
VStem: 150 34<56.0538 638> 740 82<37.9582 645.042>
LayerCount: 2
Fore
SplineSet
923 0 m 1
 781 3 l 1
 639 0 l 1
 639 33 l 1
 661 33 l 2
 738 33 740 44 740 81 c 2
 740 646 l 1
 739 647 l 1
 484 24 l 2
 479 12 474 0 461 0 c 0
 447 0 443 11 437 24 c 2
 185 639 l 1
 184 638 l 1
 184 107 l 2
 184 81 184 33 285 33 c 1
 285 0 l 1
 240 3 193 3 167 3 c 0
 141 3 94 3 49 0 c 1
 49 33 l 1
 150 33 150 81 150 107 c 2
 150 602 l 2
 150 639 148 650 71 650 c 2
 49 650 l 1
 49 683 l 1
 217 683 l 2
 245 683 246 680 254 660 c 2
 486 95 l 1
 718 662 l 2
 725 680 727 683 754 683 c 2
 923 683 l 1
 923 650 l 1
 901 650 l 2
 824 650 822 639 822 602 c 2
 822 81 l 2
 822 44 824 33 901 33 c 2
 923 33 l 1
 923 0 l 1
EndSplineSet
EndChar

StartChar: uni00B5
Encoding: 181 181 402
Width: 590
Flags: W
HStem: -194 37<31 110.875 196.141 277> -13 28<221.668 336.975> -2 37<491.494 569> 393 37<31 108.506 323 401.465> 421 20G<31 194 323 487>
VStem: 113 81<-154.437 -1 33.2748 388.108> 406 81<39.8923 65 77.6807 388.108>
LayerCount: 2
Fore
SplineSet
409 65 m 1xc6
 379 12 333 -13 277 -13 c 0
 239 -13 211 -7 194 -1 c 1
 194 -114 l 2
 194 -157 200 -157 277 -157 c 1
 277 -194 l 1
 154 -191 l 1
 31 -194 l 1
 31 -157 l 1
 107 -157 113 -157 113 -114 c 2
 113 339 l 2
 113 387 108 393 31 393 c 1
 31 430 l 1xd6
 194 441 l 1x8e
 194 111 l 2
 194 60 197 15 282 15 c 0
 358 15 406 80 406 167 c 2
 406 339 l 2
 406 387 401 393 323 393 c 1
 323 430 l 1xd6
 487 441 l 1
 487 89 l 2
 487 41 492 35 569 35 c 1
 569 -2 l 1xae
 409 -13 l 1
 409 65 l 1xc6
EndSplineSet
EndChar

StartChar: multiply
Encoding: 215 215 403
Width: 826
Flags: W
LayerCount: 2
Fore
SplineSet
620 25 m 2
 412 218 l 1
 205 25 l 2
 192 13 177 0 160 16 c 0
 143 31 159 46 171 57 c 2
 378 250 l 1
 171 443 l 2
 159 454 143 470 160 485 c 0
 177 501 192 488 205 476 c 2
 412 283 l 1
 619 475 l 2
 631 487 647 500 664 484 c 0
 681 469 665 454 653 443 c 2
 447 250 l 1
 654 57 l 2
 666 45 680 31 664 16 c 0
 647 0 632 14 620 25 c 2
EndSplineSet
EndChar

StartChar: uni266A
Encoding: 9834 9834 404
Width: 649
Flags: W
HStem: -32 288<146.948 323.523> 675 20G<380.5 405>
VStem: 59 353<47.7344 189.351> 366 46<215 488 560.925 694.879> 543 47<122.091 261.313>
LayerCount: 2
Fore
SplineSet
590 150 m 0xd8
 590 136 583 122 567 122 c 0
 541 122 544 152 543 168 c 0
 537 258 486 341 446 419 c 0
 434 442 424 465 412 488 c 1xd8
 412 108 l 1
 402 17 315 -32 235 -32 c 0
 149 -32 59 27 59 120 c 0xe8
 59 212 152 256 237 256 c 0
 283 256 330 243 366 215 c 1
 366 666 l 2
 366 679 371 695 390 695 c 0
 420 695 410 653 416 630 c 0
 438 462 590 328 590 150 c 0xd8
EndSplineSet
EndChar

